<?xml version="1.0" encoding="UTF-8" standalone="no"?>
<!-- Created with Inkscape (http://www.inkscape.org/) -->

<svg
   xmlns:dc="http://purl.org/dc/elements/1.1/"
   xmlns:cc="http://creativecommons.org/ns#"
   xmlns:rdf="http://www.w3.org/1999/02/22-rdf-syntax-ns#"
   xmlns:svg="http://www.w3.org/2000/svg"
   xmlns="http://www.w3.org/2000/svg"
   xmlns:sodipodi="http://sodipodi.sourceforge.net/DTD/sodipodi-0.dtd"
   xmlns:inkscape="http://www.inkscape.org/namespaces/inkscape"
   id="svg2"
   version="1.1"
   inkscape:version="0.91 r13725"
   width="640"
   height="555"
   viewBox="0 0 640 555"
   sodipodi:docname="recology.svg"
   inkscape:export-filename="C:\Users\Team 100\Desktop\2016 Sponsors\image10.png"
   inkscape:export-xdpi="270"
   inkscape:export-ydpi="270">
  <metadata
     id="metadata8">
    <rdf:RDF>
      <cc:Work
         rdf:about="">
        <dc:format>image/svg+xml</dc:format>
        <dc:type
           rdf:resource="http://purl.org/dc/dcmitype/StillImage" />
        <dc:title />
      </cc:Work>
    </rdf:RDF>
  </metadata>
  <defs
     id="defs6" />
  <sodipodi:namedview
     pagecolor="#ffffff"
     bordercolor="#666666"
     borderopacity="1"
     objecttolerance="10"
     gridtolerance="10"
     guidetolerance="10"
     inkscape:pageopacity="0"
     inkscape:pageshadow="2"
     inkscape:window-width="1536"
     inkscape:window-height="897"
     id="namedview4"
     showgrid="false"
     inkscape:zoom="0.5"
     inkscape:cx="215.14817"
     inkscape:cy="229.33026"
     inkscape:window-x="-8"
     inkscape:window-y="-8"
     inkscape:window-maximized="1"
     inkscape:current-layer="g4197" />
  <g
     inkscape:groupmode="layer"
     id="layer1"
     inkscape:label="Layer 1">
    <g
       id="g4197"
       transform="translate(-688.61865,-9.4067792)">
      <path
         sodipodi:nodetypes="ssssscssssscscscssscscsssscscscscscsscsssssssscssssssssssssssssssssssssssssssssssssssssssssssssssssssscssssssscssscccccssccsscccsccsscccccsscscsssssscssssssssssssscccccsccccssscccscccscsssccssssssc"
         style="fill:#000000;fill-opacity:1"
         d="m 1170.5133,541.37571 c -10.948,-3.56631 -19.8009,-11.93328 -23.3901,-22.10617 -3.7075,-10.50807 -1.9752,-11.1423 6.7103,-2.45679 11.5527,11.55269 29.3787,13.3938 40.3443,4.16685 4.3228,-3.63742 7.3688,-9.69637 7.3688,-14.65767 0,-3.84183 -0.047,-3.84483 -6.6123,-0.4183 -7.8899,4.11811 -21.8203,3.88294 -30.2627,-0.51093 -11.9294,-6.20863 -18.1647,-16.16872 -19.1016,-30.51212 -0.9945,-15.2245 5.2298,-28.25058 16.7154,-34.98158 4.632,-2.71451 7.8787,-3.54271 15.6523,-3.99271 8.7126,-0.50436 10.5578,-0.20097 16.5206,2.71635 8.0587,3.94279 7.8784,3.9278 8.716,0.72472 0.6049,-2.31297 1.4916,-2.52362 9.2083,-2.1875 l 8.539,0.37192 0,40 c 0,39.04474 -0.067,40.12519 -2.802,45.24214 -3.7019,6.92567 -10.4121,13.30275 -17.6074,16.73331 -7.3406,3.49984 -22.1578,4.42273 -29.9989,1.86848 z m 24.0809,-53.90817 c 5.0574,-3.31372 7.4615,-8.13915 7.4413,-14.93576 -0.036,-12.02604 -6.1236,-18.125 -18.0918,-18.125 -8.7265,0 -14.0726,3.38261 -16.8532,10.66329 -3.7731,9.87993 -0.3191,19.04943 8.7787,23.30528 5.7778,2.70279 13.8088,2.31343 18.725,-0.90781 z m 50.7024,49.59445 c 0,-1.34747 2.6349,-8.26176 5.8554,-15.36507 3.2205,-7.10333 5.7922,-13.8259 5.715,-14.93907 -0.077,-1.11316 -6.1323,-16.13973 -13.4557,-33.39238 -7.3235,-17.25265 -13.1236,-32.37313 -12.8893,-33.60108 0.3531,-1.85022 1.9426,-2.29484 9.2801,-2.59594 6.4514,-0.26472 9.2513,0.11538 10.3179,1.40054 0.8052,0.97013 4.9711,10.34371 9.2578,20.8302 4.2866,10.48649 8.3057,19.02926 8.9314,18.98394 0.6256,-0.0453 4.2171,-8.6929 7.9811,-19.21686 3.7639,-10.52398 7.399,-19.83762 8.078,-20.69699 1.7836,-2.25756 18.2904,-2.12645 19.1648,0.15222 0.3619,0.9431 -8.2339,23.86498 -19.1018,50.9375 l -19.7597,49.22278 -9.6875,0.36507 c -8.9124,0.33588 -9.6875,0.16907 -9.6875,-2.08486 z M 810.51326,507.6257 c -11.47099,-3.73668 -21.05133,-13.67371 -24.12188,-25.01996 -1.95951,-7.24076 -0.74424,-20.29604 2.4764,-26.60326 5.93743,-11.62768 17.204,-18.94411 30.86003,-20.04029 15.04479,-1.20765 26.16095,4.79599 32.67245,17.6458 2.58378,5.09884 3.28124,8.35138 3.38751,15.79732 l 0.13384,9.37647 -24.34046,0.34046 c -13.38727,0.18727 -24.83965,0.83965 -25.44977,1.44977 -1.80623,1.80623 3.0471,8.6125 7.72374,10.83171 6.0595,2.87541 15.11756,1.80959 20.68039,-2.43339 2.38936,-1.82245 5.11476,-3.31355 6.05645,-3.31355 2.4283,0 12.20465,7.40899 12.20465,9.24927 0,2.26687 -6.10911,7.63182 -12.36125,10.85551 -6.87235,3.54346 -21.89399,4.47931 -29.9221,1.86414 z m 26.03335,-45.55034 c 0,-3.7976 -4.7864,-8.75423 -9.94649,-10.30023 -7.04385,-2.11039 -12.93577,-0.56169 -17.45802,4.58887 -6.62539,7.5459 -5.89766,8.04278 11.77951,8.04278 14.41507,0 15.625,-0.18054 15.625,-2.33142 z m 54.82531,45.44649 c -7.44594,-2.38842 -17.47037,-11.40285 -21.17201,-19.03883 -3.63676,-7.50217 -3.99645,-23.27364 -0.6994,-30.66659 7.56964,-16.97331 29.02678,-26.26971 46.91769,-20.3273 6.28308,2.0869 13.87841,7.27797 13.87841,9.48527 0,1.61935 -7.45475,9.8202 -10.32136,11.35437 -1.97925,1.05926 -3.26664,0.7349 -6.39108,-1.61027 -2.84661,-2.13663 -5.47654,-2.91298 -9.65309,-2.8496 -22.42543,0.34038 -23.45795,34.7022 -1.13272,37.69664 3.60231,0.48318 6.06692,-0.0424 9.38792,-2.00179 2.47678,-1.46133 5.24319,-2.65697 6.14758,-2.65697 2.6559,0 12.01686,10.90451 11.1964,13.0426 -0.39934,1.04067 -3.80874,3.40034 -7.57643,5.2437 -8.45611,4.13719 -21.78087,5.15185 -30.58191,2.32877 z m 69.14134,0.0299 c -31.05751,-9.69224 -34.08266,-53.8686 -4.6641,-68.10988 3.66016,-1.77185 9.21138,-3.1203 14.36293,-3.48888 16.2787,-1.16474 29.50315,5.46112 36.83171,18.45381 3.5406,6.27714 3.8778,7.85333 3.8778,18.125 0,10.14465 -0.3659,11.91066 -3.7241,17.97407 -8.53309,15.407 -28.53422,22.71003 -46.68424,17.04588 z m 23.36365,-19.07566 c 14.17536,-10.56522 8.51521,-33.1411 -8.75,-34.89993 -11.13506,-1.13435 -19.8303,7.17738 -19.8303,18.95564 0,7.81516 3.52711,13.88632 10.02491,17.25569 5.37816,2.78878 13.85826,2.18946 18.55539,-1.3114 z m 97.74899,18.6146 c -7.5336,-3.15323 -14.3394,-9.1048 -18.4945,-16.17325 -3.1567,-5.37003 -3.4598,-6.9807 -3.4598,-18.38564 0,-11.29208 0.3214,-13.04358 3.326,-18.125 4.5643,-7.71929 9.1413,-11.77196 17.7327,-15.70144 6.5743,-3.00691 8.3954,-3.28745 18.125,-2.79211 8.5045,0.43296 12.189,1.25524 17.2386,3.84712 12.3669,6.34769 19.2027,18.0138 19.2027,32.77143 0,14.7547 -6.8303,26.41395 -19.2027,32.7789 -8.6244,4.43685 -25.9791,5.33306 -34.468,1.77999 z m 25.6458,-18.79099 c 2.1175,-1.29126 4.7894,-4.32729 5.9375,-6.74674 4.1989,-8.8485 1.4614,-20.27717 -5.9375,-24.78906 -5.1145,-3.11882 -15.0856,-3.11882 -20.2001,0 -10.4903,6.39696 -10.4903,25.13884 0,31.5358 5.1145,3.11883 15.0856,3.11883 20.2001,0 z m -406.14176,19.02374 c -0.45833,-0.45832 -0.83333,-23.12707 -0.83333,-50.375 0,-36.86574 0.3838,-49.92546 1.5,-51.04166 1.99386,-1.99386 39.20856,-2.02708 49.08396,-0.0439 9.6267,1.93333 18.01585,7.65838 21.67794,14.79382 2.45539,4.78423 2.82906,7.15047 2.5,15.83091 -0.34172,9.01413 -0.82983,10.836 -4.17994,15.60166 -2.42875,3.45499 -6.13473,6.56582 -10.3035,8.64883 l -6.51047,3.25308 12.00056,20.20563 c 7.22386,12.16298 11.70636,20.97229 11.26145,22.13171 -0.60314,1.57175 -2.74928,1.8596 -11.6653,1.56464 l -10.92618,-0.36138 -11.28176,-20.625 -11.28176,-20.625 -5.3125,-0.38437 -5.3125,-0.38438 0,19.82188 c 0,13.75034 -0.45946,20.28133 -1.5,21.32187 -1.5771,1.5771 -17.44695,2.13639 -18.91667,0.66666 z m 46.08977,-62.2312 c 5.32033,-2.22297 7.49711,-7.00146 6.00648,-13.18546 -1.55682,-6.4586 -6.97946,-8.74561 -20.74208,-8.74806 l -10.9375,-0.002 0,11.875 0,11.875 10.66515,0 c 6.49441,0 12.36345,-0.7096 15.00795,-1.81454 z m 278.66999,61.55717 c -0.3414,-0.88969 -0.4739,-25.52388 -0.2944,-54.74263 l 0.3263,-53.125 9.375,0 9.375,0 0,54.375 0,54.375 -9.0806,0.36763 c -6.5521,0.26526 -9.2534,-0.0828 -9.7013,-1.25 z M 872.48411,351.84911 c -2.06426,-1.24239 -2.1875,-9.94416 -2.1875,-154.46372 l 0,-153.147164 69.6875,0.508531 c 65.23479,0.476039 70.36639,0.673923 80.31249,3.097022 32.3405,7.878871 52.662,20.890216 65.3529,41.843718 11.4354,18.880643 14.9116,47.505833 8.922,73.469283 -5.4472,23.61222 -21.4891,43.75028 -43.1356,54.14979 -6.4704,3.10852 -15.1393,6.348 -19.2643,7.19883 -4.125,0.85085 -7.9928,1.97894 -8.5952,2.50688 -1.4256,1.24949 14.9492,32.34775 24.5666,46.65582 9.788,14.56183 16.7256,21.33479 26.5741,25.94348 20.2974,9.49827 43.2792,0.81304 52.7839,-19.94796 5.7486,-12.5567 5.1525,-35.76764 -1.4585,-56.78829 -2.4679,-7.84707 -0.5947,-8.79886 5.5357,-2.81267 5.9439,5.80403 11.3363,15.80331 15.1507,28.09412 4.25,13.69486 4.0348,35.36165 -0.4878,49.09756 -8.282,25.15368 -25.9955,44.05356 -48.4445,51.68907 -5.3275,1.81201 -10.5328,2.33837 -23.125,2.33837 -14.558,0 -17.4025,-0.37774 -27.3186,-3.62776 -13.8876,-4.55172 -26.6339,-12.78694 -36.5472,-23.61264 -6.2723,-6.84966 -10.4375,-13.78013 -23.61222,-39.28818 -8.79807,-17.03428 -18.47857,-35.61205 -21.5122,-41.28392 l -5.5157,-10.3125 -14.93453,0 -14.93454,0 0,58.78094 0,58.78093 -2.8125,0.98378 c -4.42185,1.5467 -52.46096,1.67481 -55,0.14667 z m 119.6875,-172.4885 c 19.27649,-2.74642 32.44709,-10.07428 38.13079,-21.2151 3.4884,-6.83794 5.1837,-19.26927 3.793,-27.81407 -2.7475,-16.88091 -11.7108,-25.95107 -30.7031,-31.068861 -8.85711,-2.386694 -13.46085,-2.703185 -41.22069,-2.833781 l -31.25,-0.147019 -0.32912,42.187501 -0.32913,42.1875 26.57913,-0.0248 c 14.61851,-0.0136 30.51662,-0.58575 35.32912,-1.27141 z m 161.07359,107.85867 c 2.2825,-23.84928 15.3772,-43.7883 35.1622,-53.54091 11.9146,-5.87308 29.9553,-9.47129 27.4903,-5.48297 -0.3489,0.56467 -4.9863,4.1066 -10.3053,7.87097 -17.1077,12.10765 -36.222,34.14639 -45.4491,52.40291 -2.1846,4.32241 -4.4445,7.1875 -5.6692,7.1875 -1.7606,0 -1.9271,-1.143 -1.2289,-8.4375 z m 2.5258,-38.59249 c -1.2163,-4.84636 0.3499,-25.01047 2.5929,-33.38131 1.0738,-4.00746 3.4159,-10.27511 5.2046,-13.92811 4.1053,-8.3841 13.663,-19.41059 16.8251,-19.41059 2.1884,0 2.403,0.98106 2.403,10.98737 0,6.04307 -0.8615,14.33994 -1.9145,18.4375 -3.9779,15.47974 -18.2966,40.57513 -23.151,40.57513 -0.6252,0 -1.5073,-1.47599 -1.9601,-3.27999 z"
         id="path4152"
         inkscape:connector-curvature="0" />
      <path
         sodipodi:nodetypes="ssssssssssscscssssscsssscccssscscsssscssscscssssscsscsssssssssssssssssscssscssscsccssssssssscsssssscsssscsssscssssscssssssssssscccscssscsssssssscsssscsssssssscccsssssssscsscsssssccsccsc"
         style="fill:#000000;fill-opacity:0.89019608"
         d="m 1175.2966,540.14253 c -7.059,-1.53418 -12.334,-3.97024 -17.071,-7.88353 -3.9341,-3.24998 -9.179,-11.54787 -9.179,-14.52186 0,-2.31668 0.4016,-2.18289 4.0625,1.35371 12.4325,12.01014 35.0879,12.23919 45.0037,0.45498 4.8368,-5.7482 7.721,-17.63695 4.7276,-19.48699 -0.6634,-0.41001 -3.5415,0.79993 -6.3957,2.68876 -9.785,6.47538 -26.1037,5.35846 -36.395,-2.49104 -20.8018,-15.86602 -15.1147,-54.19859 9.1081,-61.39201 3.6259,-1.07677 8.6403,-1.95777 11.143,-1.95777 5.9937,0 15.436,3.2833 18.1882,6.32445 2.9202,3.22681 5.2925,3.06809 5.7832,-0.38695 0.3635,-2.55979 1.0733,-2.8125 7.8994,-2.8125 l 7.5,0 0,37.5 c 0,41.86384 -0.034,42.06284 -8.8558,51.82747 -5.3959,5.9727 -11.5659,9.48294 -18.7023,10.64019 -2.718,0.44075 -6.0669,0.98945 -7.4419,1.21933 -1.375,0.22987 -5.5937,-0.25444 -9.375,-1.07624 z m 20.1277,-51.07316 c 6.1896,-4.13498 8.8538,-10.0604 8.3153,-18.49434 -0.7977,-12.49513 -8.9417,-19.45478 -21.5425,-18.40981 -11.3528,0.94146 -18.3588,8.75737 -18.3588,20.48115 0,6.69725 3.1939,12.59951 8.8983,16.44366 5.8503,3.94256 16.77,3.93262 22.6877,-0.0206 z m 51.9312,48.13487 c -0.3625,-0.5864 2.1198,-7.15072 5.5161,-14.5874 3.3962,-7.43667 6.175,-14.36462 6.175,-15.39545 0,-1.03082 -5.9169,-15.84887 -13.1487,-32.929 -7.2318,-17.08012 -13.4895,-31.94277 -13.906,-33.0281 -0.6548,-1.7064 0.4807,-1.92322 8.3943,-1.60292 l 9.1514,0.37041 8.6384,21.5625 c 4.7511,11.85937 9.3108,21.5625 10.1326,21.5625 0.8218,0 2.5367,-2.95313 3.8109,-6.5625 1.2742,-3.60938 4.8205,-13.45313 7.8806,-21.875 l 5.5638,-15.3125 7.9914,0 c 5.5907,0 7.9739,0.46938 7.9332,1.5625 -0.032,0.85937 -8.6367,22.9375 -19.1217,49.0625 l -19.0636,47.5 -7.6444,0.36932 c -4.2044,0.20313 -7.9409,-0.1105 -8.3033,-0.69686 z M 812.17161,507.65826 c -8.27734,-2.61779 -12.57796,-5.37139 -17.98766,-11.51713 -15.80744,-17.9582 -9.34714,-47.01561 12.63837,-56.8454 9.14176,-4.08731 24.28451,-4.1992 31.75455,-0.23463 10.68171,5.6691 16.93704,16.90652 17.18666,30.87505 l 0.15808,8.84563 -25.3125,0.33839 c -27.54484,0.36821 -27.73484,0.42761 -23.25187,7.26948 2.91025,4.44162 8.09252,6.76789 15.06479,6.76245 5.61823,-0.005 8.03508,-1.00825 15.6057,-6.48207 2.44778,-1.76983 6.01107,-0.28277 11.48505,4.79299 4.01543,3.72331 3.20576,5.92536 -4.01987,10.93272 -9.47468,6.56596 -22.63024,8.64364 -33.3213,5.26252 z m 24.375,-45.73176 c 0,-1.36416 -1.58029,-4.24892 -3.51174,-6.4106 -6.70999,-7.50977 -21.37725,-6.03411 -25.8421,2.59997 -1.04289,2.01671 -1.89616,4.2572 -1.89616,4.97883 0,0.84613 5.54885,1.31208 15.625,1.31208 14.75025,0 15.625,-0.13885 15.625,-2.48028 z m 55.41556,45.24778 c -17.71539,-6.34505 -27.5646,-23.07073 -24.22635,-41.14061 3.49793,-18.93428 20.71529,-31.79823 40.19523,-30.03184 8.30688,0.75324 20.22538,6.51376 20.90936,10.10605 0.47744,2.50752 -7.9174,12.0489 -10.60104,12.0489 -0.85242,0 -3.57631,-1.19564 -6.05309,-2.65698 -11.57515,-6.82949 -25.63032,2.5105 -25.63032,17.03198 0,15.27457 14.52284,24.01313 27.64824,16.63624 l 4.87297,-2.73877 4.98472,4.86745 c 2.7416,2.67709 4.98472,5.7911 4.98472,6.92003 0,8.10582 -23.5682,13.7986 -37.08444,8.95755 z m 70.20944,0.5594 c -11.32393,-3.75213 -19.63069,-10.86621 -23.9211,-20.48655 -2.87077,-6.43712 -2.85749,-23.0221 0.0236,-29.48723 3.20019,-7.18113 11.28717,-15.2154 18.61366,-18.49233 9.19578,-4.11303 23.86501,-4.1162 33.05101,-0.007 28.50552,12.751 28.50552,54.13168 0,66.44196 -7.90124,3.4122 -20.76056,4.35291 -27.7672,2.0313 z m 20.54305,-18.28509 c 12.92037,-6.59148 12.8103,-27.24106 -0.18075,-33.91077 -6.27817,-3.22327 -13.37322,-3.0578 -18.50001,0.43146 -6.91839,4.70861 -9.273,8.91417 -9.273,16.5625 0,14.89782 14.59647,23.73119 27.95376,16.91681 z m 103.58594,17.03639 c -17.2183,-4.86243 -27.4712,-20.00102 -25.6298,-37.8429 1.7881,-17.32472 14.9568,-29.73226 33.3239,-31.39774 14.7057,-1.33347 28.426,5.77417 35.5425,18.41244 3.453,6.13235 3.8656,7.95523 3.8188,16.875 -0.043,8.31613 -0.6109,11.07763 -3.3694,16.39968 -5.8233,11.23493 -16.0939,17.62195 -29.9696,18.63737 -4.5525,0.33314 -10.3096,-0.12175 -13.7164,-1.08385 z m 22.5669,-16.95067 c 5.4176,-3.85765 8.1494,-9.5572 8.1494,-17.00253 0,-11.72124 -7.0324,-19.44707 -18.4807,-20.30299 -18.1201,-1.35471 -28.3315,19.35019 -16.7836,34.0309 1.4888,1.89278 4.4422,4.22809 6.563,5.18959 5.5174,2.50138 15.6795,1.55449 20.5519,-1.91497 z m -404.79302,16.33081 c -0.84189,-0.27451 -1.27787,-17.2584 -1.27787,-49.77964 l 0,-49.36298 25.3125,0.40464 c 24.76643,0.39591 25.45171,0.47805 31.76529,3.8076 10.36834,5.46789 15.05222,14.58438 13.78775,26.83589 -1.04264,10.10227 -5.60379,16.96265 -14.01308,21.07694 -3.79548,1.85695 -7.14405,3.76974 -7.44126,4.25064 -0.29721,0.48088 4.77619,9.73087 11.27421,20.55552 6.49803,10.82464 11.81459,20.16913 11.81459,20.76551 0,1.54714 -10.47602,2.91284 -15.30416,1.99513 -3.70936,-0.70507 -4.84111,-2.18828 -12.74515,-16.70318 -14.61606,-26.84077 -13.48316,-25.49352 -21.06889,-25.0553 l -6.5068,0.37589 -0.34339,20.29644 c -0.33574,19.84437 -0.40534,20.30946 -3.125,20.88101 -2.85074,0.59911 -9.84454,0.40069 -12.12874,-0.34411 z m 44.78625,-59.48721 c 4.81798,-2.49148 6.43588,-5.43783 6.43588,-11.72038 0,-7.00785 -3.55969,-10.9847 -11.32265,-12.64955 -8.43135,-1.8082 -21.5537,-1.72485 -23.42735,0.1488 -2.08129,2.08129 -2.02909,23.6978 0.0625,25.88076 2.17388,2.26885 23.02324,1.04406 28.25162,-1.65963 z m 280.48447,59.48987 c -1.2362,-0.78474 -1.5059,-12.31377 -1.25,-53.41836 l 0.3264,-52.41764 7.5,0 7.5,0 0.3265,51.73005 c 0.2345,37.149 -0.073,52.21133 -1.0905,53.4375 -1.5311,1.84481 -10.7315,2.3068 -13.3124,0.66845 z M 872.14617,350.36828 c -0.32471,-0.87257 -0.45182,-69.649 -0.28247,-152.8365 l 0.30791,-151.250001 63.125,0.01646 c 65.89669,0.01719 73.55829,0.487992 94.37499,5.799292 5.5,1.403304 15.1793,5.069494 21.5094,8.14709 20.5804,10.005736 33.9856,25.376324 41.2408,47.287159 2.9871,9.02101 3.3194,11.89679 3.3943,29.375 0.094,21.89294 -1.3266,29.0623 -8.9154,45 -6.5146,13.68165 -20.9341,27.84282 -35.3541,34.72066 -5.8437,2.78728 -14.7194,6.03913 -19.7236,7.22634 -5.0042,1.18721 -9.3816,2.61651 -9.7275,3.17622 -0.9246,1.49594 15.9384,32.33192 25.3953,46.43851 14.7534,22.00712 26.7681,30.24377 44.0558,30.20242 16.3005,-0.039 28.6682,-8.30469 36.0811,-24.11414 2.8539,-6.08656 3.3495,-8.97946 3.7098,-21.65551 0.3407,-11.98384 -0.078,-16.50635 -2.3149,-25 -4.2596,-16.17539 -4.2361,-15.9945 -2.0804,-15.9945 5.1043,0 16.9289,20.09004 20.3788,34.62394 2.689,11.32803 2.6301,29.94381 -0.1298,41.00106 -5.3945,21.61241 -21.5009,42.7689 -39.3683,51.7118 -32.6177,16.32565 -77.9733,5.06675 -100.5437,-24.95854 -3.0139,-4.00932 -14.32548,-24.6065 -25.13685,-45.77147 -10.81138,-21.16499 -20.21838,-39.18492 -20.90445,-40.04429 -0.877,-1.09854 -5.83798,-1.5625 -16.70723,-1.5625 l -15.45982,0 -0.32462,59.6875 -0.32462,59.6875 -27.84253,0.3365 c -21.60171,0.26106 -27.97485,-0.0191 -28.43291,-1.25 z M 1002.1716,178.89909 c 16.3627,-4.58036 26.2076,-12.34752 30.629,-24.16492 3.1143,-8.32355 3.3891,-24.76103 0.5532,-33.08398 -3.9453,-11.57868 -14.5274,-19.99616 -30.226,-24.043037 -15.42542,-3.976452 -70.60026,-6.181299 -73.83119,-2.950374 -1.68083,1.680819 -2.10801,48.375091 -0.67079,73.319391 l 0.81785,14.19438 32.61398,-0.58599 c 25.3318,-0.45516 34.28858,-1.05478 40.11395,-2.68547 z m 151.227,115.47048 c -2.0426,-3.30497 2.5563,-23.91139 7.5245,-33.71578 3.948,-7.79092 13.6157,-18.2933 21.4567,-23.30914 10.7979,-6.90728 32.9168,-13.14572 32.9168,-9.28387 0,0.63471 -3.9874,3.80484 -8.8609,7.04474 -16.0724,10.68492 -34.4995,31.3974 -45.6128,51.26985 -4.8296,8.63606 -6.1493,10.05711 -7.4243,7.9942 z m 2.4572,-49.3407 c -1.1809,-7.87517 1.3653,-26.42285 5.0032,-36.4452 4.989,-13.7446 16.7966,-28.45668 20.8354,-25.96058 0.9711,0.60019 1.2194,4.83888 0.7916,13.51654 -0.7755,15.73426 -5.7849,30.376 -15.1858,44.3861 -7.7981,11.62147 -10.2332,12.57966 -11.4444,4.50314 z"
         id="path4150"
         inkscape:connector-curvature="0" />
      <path
         style="fill:#000000;fill-opacity:0.89019608"
         d="m 1175.2966,540.14253 c -7.059,-1.53418 -12.334,-3.97024 -17.071,-7.88353 -3.9341,-3.24998 -9.179,-11.54787 -9.179,-14.52186 0,-2.31668 0.4016,-2.18289 4.0625,1.35371 12.4325,12.01014 35.0879,12.23919 45.0037,0.45498 4.8368,-5.7482 7.721,-17.63695 4.7276,-19.48699 -0.6634,-0.41001 -3.5415,0.79993 -6.3957,2.68876 -9.785,6.47538 -26.1037,5.35846 -36.395,-2.49104 -20.8018,-15.86602 -15.1147,-54.19859 9.1081,-61.39201 3.6259,-1.07677 8.6403,-1.95777 11.143,-1.95777 5.9937,0 15.436,3.2833 18.1882,6.32445 2.9202,3.22681 5.2925,3.06809 5.7832,-0.38695 0.3635,-2.55979 1.0733,-2.8125 7.8994,-2.8125 l 7.5,0 0,37.5 c 0,41.86384 -0.034,42.06284 -8.8558,51.82747 -5.3959,5.9727 -11.5659,9.48294 -18.7023,10.64019 -2.718,0.44075 -6.0669,0.98945 -7.4419,1.21933 -1.375,0.22987 -5.5937,-0.25444 -9.375,-1.07624 z m 20.1277,-51.07316 c 6.1896,-4.13498 8.8538,-10.0604 8.3153,-18.49434 -0.7977,-12.49513 -8.9417,-19.45478 -21.5425,-18.40981 -11.3528,0.94146 -18.3588,8.75737 -18.3588,20.48115 0,6.69725 3.1939,12.59951 8.8983,16.44366 5.8503,3.94256 16.77,3.93262 22.6877,-0.0206 z m 51.9312,48.13487 c -0.3625,-0.5864 2.1198,-7.15072 5.5161,-14.5874 3.3962,-7.43667 6.175,-14.36462 6.175,-15.39545 0,-1.03082 -5.9169,-15.84887 -13.1487,-32.929 -7.2318,-17.08012 -13.4895,-31.94277 -13.906,-33.0281 -0.6548,-1.7064 0.4807,-1.92322 8.3943,-1.60292 l 9.1514,0.37041 8.6384,21.5625 c 4.7511,11.85937 9.3108,21.5625 10.1326,21.5625 0.8218,0 2.5367,-2.95313 3.8109,-6.5625 1.2742,-3.60938 4.8205,-13.45313 7.8806,-21.875 l 5.5638,-15.3125 7.9914,0 c 5.5907,0 7.9739,0.46938 7.9332,1.5625 -0.032,0.85937 -8.6367,22.9375 -19.1217,49.0625 l -19.0636,47.5 -7.6444,0.36932 c -4.2044,0.20313 -7.9409,-0.1105 -8.3033,-0.69686 z M 813.12853,506.29889 c -13.05354,-3.65274 -21.65181,-12.18086 -24.89787,-24.69475 -2.0983,-8.08915 -2.0983,-10.05557 0,-18.14472 3.36686,-12.97958 12.02313,-21.24223 26.00749,-24.82485 21.6797,-5.55408 39.23317,7.99089 40.1253,30.96228 l 0.30816,7.93493 -25.3125,0.33839 -25.3125,0.33837 0,3.05563 c 0,4.47643 6.8486,11.62085 12.6327,13.17835 6.53666,1.76014 12.53941,0.47336 18.73777,-4.0167 l 5.10834,-3.70048 4.8856,3.38573 c 5.63633,3.90597 5.96491,5.34595 2.05752,9.01676 -7.55522,7.09776 -23.04357,10.33211 -34.34001,7.17106 z m 23.92239,-41.0243 c 2.06724,-1.5116 2.09045,-1.97131 0.31414,-6.22262 -2.88085,-6.89484 -8.5316,-9.89002 -17.5621,-9.30875 -6.61003,0.42546 -7.80043,0.94544 -11.5625,5.05057 -4.24745,4.63477 -5.52579,10.1172 -2.63135,11.28514 3.61259,1.45771 29.24504,0.80199 31.44181,-0.80434 z m 59.16378,41.57433 c -16.96758,-4.18569 -27.09827,-17.00089 -27.12843,-34.31714 -0.0358,-20.49706 14.5605,-34.80501 35.59665,-34.89364 6.87319,-0.029 10.09034,0.62906 14.92832,3.05336 8.95873,4.48922 9.68997,6.41892 4.47226,11.80222 -4.98105,5.13914 -6.36546,5.35397 -11.24649,1.74527 -4.6307,-3.42362 -14.12395,-2.7951 -19.89956,1.3175 -10.93846,7.78888 -10.89658,26.02647 0.0785,34.20667 5.03471,3.75258 14.79354,4.29083 20.8223,1.14847 l 4.89804,-2.553 4.53013,4.63928 c 2.49158,2.5516 4.53014,5.27732 4.53014,6.05713 0,2.37598 -12.70117,7.66582 -20,8.32969 -3.78125,0.34393 -8.99311,0.10275 -11.58191,-0.53581 z m 66.91383,-0.5547 c -21.68459,-6.05245 -31.93507,-27.96132 -22.8667,-48.87418 4.39264,-10.13001 13.60404,-16.80552 26.86423,-19.46855 5.71534,-1.1478 8.44457,-1.02785 15.34211,0.67429 10.52101,2.59631 16.94271,6.79754 21.58903,14.12402 12.0148,18.94537 4.6924,43.70784 -15.40814,52.10639 -7.00231,2.92575 -17.97511,3.54405 -25.52053,1.43803 z m 20.93079,-15.94994 c 7.2657,-4.94499 9.36229,-8.93391 9.36229,-17.8125 0,-8.91034 -2.07995,-12.83862 -9.48994,-17.92313 -3.55626,-2.4402 -5.45029,-2.83983 -11.46436,-2.41902 -4.56718,0.31957 -8.45644,1.41637 -10.625,2.9963 -4.27651,3.11573 -9.0457,12.26101 -9.0457,17.34585 0,5.58566 4.96708,14.5426 9.87235,17.80241 5.84657,3.88535 15.68959,3.89 21.39036,0.01 z m 102.24128,16.1407 c -17.2183,-4.86243 -27.4712,-20.00103 -25.6298,-37.8429 1.7881,-17.32473 14.9568,-29.73226 33.3239,-31.39774 14.7057,-1.33347 28.426,5.77416 35.5425,18.41244 3.453,6.13235 3.8656,7.95522 3.8188,16.875 -0.043,8.31612 -0.6109,11.07762 -3.3694,16.39967 -5.8233,11.23494 -16.0939,17.62195 -29.9696,18.63738 -4.5525,0.33314 -10.3096,-0.12175 -13.7164,-1.08385 z m 22.5669,-16.95068 c 5.4176,-3.85765 8.1494,-9.5572 8.1494,-17.00252 0,-11.72124 -7.0324,-19.44707 -18.4807,-20.30299 -18.1201,-1.35471 -28.3315,19.35019 -16.7836,34.0309 1.4888,1.89278 4.4422,4.22809 6.563,5.18959 5.5174,2.50138 15.6795,1.55449 20.5519,-1.91497 z m -404.79302,16.33082 c -0.84189,-0.27451 -1.27787,-17.2584 -1.27787,-49.77964 l 0,-49.36298 25.3125,0.40464 c 24.76643,0.39591 25.45171,0.47805 31.76529,3.8076 10.36834,5.46789 15.05222,14.58438 13.78775,26.83589 -1.04264,10.10227 -5.60379,16.96265 -14.01308,21.07694 -3.79548,1.85695 -7.14405,3.76974 -7.44126,4.25064 -0.29721,0.48088 4.77619,9.73087 11.27421,20.55552 6.49803,10.82464 11.81459,20.16913 11.81459,20.76551 0,1.54714 -10.47602,2.91284 -15.30416,1.99513 -3.70936,-0.70507 -4.84111,-2.18828 -12.74515,-16.70318 -14.61606,-26.84077 -13.48316,-25.49352 -21.06889,-25.0553 l -6.5068,0.37589 -0.34339,20.29644 c -0.33574,19.84437 -0.40534,20.30946 -3.125,20.88101 -2.85074,0.59911 -9.84454,0.40069 -12.12874,-0.34411 z m 44.78625,-59.48721 c 4.81798,-2.49148 6.43588,-5.43783 6.43588,-11.72038 0,-7.00785 -3.55969,-10.9847 -11.32265,-12.64955 -8.43135,-1.8082 -21.5537,-1.72485 -23.42735,0.1488 -2.08129,2.08129 -2.02909,23.6978 0.0625,25.88076 2.17388,2.26885 23.02324,1.04406 28.25162,-1.65964 z m 280.48447,59.48987 c -1.2362,-0.78474 -1.5059,-12.31377 -1.25,-53.41836 l 0.3264,-52.41764 7.5,0 7.5,0 0.3265,51.73005 c 0.2345,37.149 -0.073,52.21133 -1.0905,53.4375 -1.5311,1.84481 -10.7315,2.3068 -13.3124,0.66845 z M 874.53963,349.7143 c -0.99197,-0.66935 -1.52112,-43.61727 -1.875,-152.18252 l -0.49302,-151.250001 51.875,-0.381051 c 30.53837,-0.224322 59.2743,0.193534 69.86465,1.01592 41.00904,3.184526 69.12774,15.484564 85.17644,37.258941 11.6379,15.790082 17.1146,36.478991 15.7786,59.606191 -1.925,33.32367 -16.8692,57.87486 -43.2741,71.09323 -6.5852,3.29656 -15.4894,6.56093 -21.3047,7.81058 -7.0657,1.51835 -9.9909,2.69313 -9.9909,4.0124 0,2.98956 15.7934,32.20744 24.7749,45.83379 10.2611,15.56783 18.674,24.10478 28.3501,28.76828 6.4192,3.09378 9.0312,3.62188 18.125,3.66461 9.2532,0.0435 11.4778,-0.39829 17.2302,-3.42168 14.0726,-7.39632 22.0741,-19.58754 24.2267,-36.91205 1.2909,-10.38945 -0.1008,-25.35901 -3.3544,-36.08282 -2.7282,-8.99168 -2.3872,-10.12137 1.8341,-6.07708 4.9611,4.75298 12.0002,19.3364 14.5097,30.06074 2.835,12.11546 1.9145,34.36175 -1.8879,45.625 -6.4019,18.9633 -21.3768,37.24826 -36.672,44.77807 -32.5703,16.03429 -77.9932,4.35092 -100.035,-25.73031 -2.3869,-3.25752 -12.91194,-22.79776 -23.38899,-43.42276 -10.47705,-20.625 -19.84071,-38.78179 -20.80814,-40.34841 -1.70626,-2.76308 -2.25362,-2.83799 -18.26911,-2.5 l -16.51015,0.34841 -0.625,59.375 -0.625,59.375 -25.625,0.30752 c -14.09375,0.16914 -26.24689,-0.11212 -27.00698,-0.625 z M 1000.9216,180.59945 c 21.5822,-5.23307 32.8372,-16.51196 35.543,-35.61835 2.6518,-18.72479 -3.924,-34.24115 -18.0096,-42.49586 -10.8256,-6.344234 -22.30205,-8.185836 -55.9312,-8.975199 -24.02224,-0.563862 -31.32388,-0.371645 -32.8125,0.863799 -1.65132,1.370464 -1.91469,7.47154 -1.91469,44.35266 0,23.51999 0.42187,43.19679 0.9375,43.72624 1.4641,1.50334 65.07985,-0.12989 72.18749,-1.85329 z m 154.4307,106.25746 c -0.031,-2.43369 0.7834,-7.64627 1.8089,-11.58351 6.1714,-23.69363 23.578,-40.20977 48.2107,-45.74436 2.7086,-0.60858 4.9247,-0.65318 4.9247,-0.0991 0,0.55407 -3.5156,3.5187 -7.8125,6.58807 -11.21,8.0076 -26.6429,24.63064 -35.6403,38.38878 -11.9275,18.23869 -11.4255,17.69482 -11.4915,12.45012 z m 2.4964,-49.24527 c -0.059,-14.16861 2.3056,-25.4297 7.4984,-35.70486 4.054,-8.02178 11.8651,-17.5 14.4219,-17.5 2.404,0 2.3526,12.70592 -0.098,24.2742 -2.2299,10.52605 -11.2981,29.53929 -17.3372,36.3508 l -4.433,5 -0.052,-12.42014 z"
         id="path4148"
         inkscape:connector-curvature="0" />
      <path
         style="fill:#000000;fill-opacity:1"
         d="m 1175.2966,540.14253 c -7.059,-1.53418 -12.334,-3.97024 -17.071,-7.88353 -3.9341,-3.24998 -9.179,-11.54787 -9.179,-14.52186 0,-2.31668 0.4016,-2.18289 4.0625,1.35371 12.4325,12.01014 35.0879,12.23919 45.0037,0.45498 4.8368,-5.7482 7.721,-17.63695 4.7276,-19.48699 -0.6634,-0.41001 -3.5415,0.79993 -6.3957,2.68876 -9.785,6.47538 -26.1037,5.35846 -36.395,-2.49104 -20.8018,-15.86602 -15.1147,-54.19859 9.1081,-61.39201 3.6259,-1.07677 8.6403,-1.95777 11.143,-1.95777 5.9937,0 15.436,3.2833 18.1882,6.32445 2.9202,3.22681 5.2925,3.06809 5.7832,-0.38695 0.3635,-2.55979 1.0733,-2.8125 7.8994,-2.8125 l 7.5,0 0,37.5 c 0,41.86384 -0.034,42.06284 -8.8558,51.82747 -5.3959,5.9727 -11.5659,9.48294 -18.7023,10.64019 -2.718,0.44075 -6.0669,0.98945 -7.4419,1.21933 -1.375,0.22987 -5.5937,-0.25444 -9.375,-1.07624 z m 20.1277,-51.07316 c 6.1896,-4.13498 8.8538,-10.0604 8.3153,-18.49434 -0.7977,-12.49513 -8.9417,-19.45478 -21.5425,-18.40981 -11.3528,0.94146 -18.3588,8.75737 -18.3588,20.48115 0,6.69725 3.1939,12.59951 8.8983,16.44366 5.8503,3.94256 16.77,3.93262 22.6877,-0.0206 z m 51.9312,48.13487 c -0.3625,-0.5864 2.1198,-7.15072 5.5161,-14.5874 3.3962,-7.43667 6.175,-14.36462 6.175,-15.39545 0,-1.03082 -5.9169,-15.84887 -13.1487,-32.929 -7.2318,-17.08012 -13.4895,-31.94277 -13.906,-33.0281 -0.6548,-1.7064 0.4807,-1.92322 8.3943,-1.60292 l 9.1514,0.37041 8.6384,21.5625 c 4.7511,11.85937 9.3108,21.5625 10.1326,21.5625 0.8218,0 2.5367,-2.95313 3.8109,-6.5625 1.2742,-3.60938 4.8205,-13.45313 7.8806,-21.875 l 5.5638,-15.3125 7.9914,0 c 5.5907,0 7.9739,0.46938 7.9332,1.5625 -0.032,0.85937 -8.6367,22.9375 -19.1217,49.0625 l -19.0636,47.5 -7.6444,0.36932 c -4.2044,0.20313 -7.9409,-0.1105 -8.3033,-0.69686 z m -161.0549,-30.71926 c -17.2183,-4.86243 -27.4712,-20.00103 -25.6298,-37.8429 1.7881,-17.32473 14.9568,-29.73226 33.3239,-31.39774 14.7057,-1.33347 28.426,5.77416 35.5425,18.41244 3.453,6.13235 3.8656,7.95522 3.8188,16.875 -0.043,8.31612 -0.6109,11.07762 -3.3694,16.39967 -5.8233,11.23494 -16.0939,17.62195 -29.9696,18.63738 -4.5525,0.33314 -10.3096,-0.12175 -13.7164,-1.08385 z m 22.5669,-16.95068 c 5.4176,-3.85765 8.1494,-9.5572 8.1494,-17.00252 0,-11.72124 -7.0324,-19.44707 -18.4807,-20.30299 -18.1201,-1.35471 -28.3315,19.35019 -16.7836,34.0309 1.4888,1.89278 4.4422,4.22809 6.563,5.18959 5.5174,2.50138 15.6795,1.55449 20.5519,-1.91497 z m -404.79302,16.33082 c -0.84189,-0.27451 -1.27787,-17.2584 -1.27787,-49.77964 l 0,-49.36298 25.3125,0.40464 c 24.76643,0.39591 25.45171,0.47805 31.76529,3.8076 10.36834,5.46789 15.05222,14.58438 13.78775,26.83589 -1.04264,10.10227 -5.60379,16.96265 -14.01308,21.07694 -3.79548,1.85695 -7.14405,3.76974 -7.44126,4.25064 -0.29721,0.48088 4.77619,9.73087 11.27421,20.55552 6.49803,10.82464 11.81459,20.16913 11.81459,20.76551 0,1.54714 -10.47602,2.91284 -15.30416,1.99513 -3.70936,-0.70507 -4.84111,-2.18828 -12.74515,-16.70318 -14.61606,-26.84077 -13.48316,-25.49352 -21.06889,-25.0553 l -6.5068,0.37589 -0.34339,20.29644 c -0.33574,19.84437 -0.40534,20.30946 -3.125,20.88101 -2.85074,0.59911 -9.84454,0.40069 -12.12874,-0.34411 z m 44.78625,-59.48721 c 4.81798,-2.49148 6.43588,-5.43783 6.43588,-11.72038 0,-7.00785 -3.55969,-10.9847 -11.32265,-12.64955 -8.43135,-1.8082 -21.5537,-1.72485 -23.42735,0.1488 -2.08129,2.08129 -2.02909,23.6978 0.0625,25.88076 2.17388,2.26885 23.02324,1.04406 28.25162,-1.65964 z m 67.58644,59.27914 C 799.8391,502.8078 788.4818,489.35497 788.4818,472.53178 c 0,-19.06641 14.55742,-33.38459 34.12458,-33.56376 16.76092,-0.15348 27.21756,9.06474 30.17556,26.60175 0.81056,4.80559 1.11226,9.32234 0.67045,10.03722 -0.51238,0.82903 -9.78274,1.29979 -25.59582,1.29979 -27.53682,0 -27.86571,0.10688 -24.57402,7.985 3.22296,7.71363 13.76626,13.13702 22.39276,11.51868 2.40342,-0.45088 6.42016,-2.21117 8.92609,-3.91173 5.55995,-3.77309 6.92399,-3.8267 11.22792,-0.44121 l 3.36987,2.65072 -2.88879,3.14406 c -5.88024,6.39987 -18.62977,9.73195 -29.86323,7.80475 z m 21.43161,-38.79424 c 3.02382,-1.6183 3.06174,-4.41939 0.13374,-9.87895 -3.01356,-5.61913 -9.22325,-8.82825 -17.07141,-8.8224 -8.1778,0.006 -13.63463,3.36439 -17.11851,10.53528 -4.21014,8.66574 -2.85965,9.46004 16.08425,9.46004 8.55476,0 16.64213,-0.58229 17.97193,-1.29398 z m 59.57112,38.74212 c -7.43563,-1.246 -16.08742,-6.21752 -20.19725,-11.6058 -5.05533,-6.62786 -6.95604,-12.61456 -6.95604,-21.90946 0,-10.7947 4.3409,-19.99788 12.29349,-26.06352 10.37638,-7.91433 26.00222,-9.42538 37.45475,-3.62194 3.57597,1.81207 6.50176,3.73737 6.50176,4.27842 0,0.54105 -1.89355,2.81904 -4.2079,5.06219 l -4.2079,4.07846 -4.2296,-2.57858 c -18.35863,-11.19233 -39.1819,13.20159 -26.86763,31.47473 6.23457,9.25147 17.61539,12.34007 27.71827,7.52235 l 4.54005,-2.165 3.69822,4.13904 c 4.47414,5.00743 3.57765,6.69938 -4.97721,9.39351 -8.31073,2.61725 -13.72036,3.14224 -20.56301,1.9956 z m 131.8953,0.26285 c -1.2362,-0.78474 -1.5059,-12.31377 -1.25,-53.41836 l 0.3264,-52.41764 7.5,0 7.5,0 0.3265,51.73005 c 0.2345,37.149 -0.073,52.21133 -1.0905,53.4375 -1.5311,1.84481 -10.7315,2.3068 -13.3124,0.66845 z m -72.17359,-3.19011 c -11.72983,-5.54529 -18.56957,-16.66261 -18.54676,-30.14589 0.0334,-19.75048 14.27862,-33.48765 34.79676,-33.55579 14.8329,-0.0492 27.42739,7.72203 32.82819,20.25634 2.3998,5.56937 2.5974,19.04416 0.3761,25.65034 -2.2616,6.72626 -9.52491,14.36603 -16.95429,17.83305 -8.88362,4.14565 -23.68695,4.12832 -32.5,-0.038 z m 27.5,-11.1091 c 9.45919,-5.29163 13.15141,-18.35289 8.24321,-29.16045 -3.27798,-7.21793 -8.93772,-10.88143 -17.80117,-11.52255 -6.09403,-0.4408 -8.08838,-0.0143 -12.77419,2.73176 -10.18696,5.96996 -13.60376,18.81791 -7.88657,29.65535 5.58962,10.59563 19.35336,14.37415 30.21872,8.29589 z M 874.1072,349.40678 c -0.52225,-0.34375 -1.1714,-68.6875 -1.44257,-151.875 l -0.49302,-151.250001 51.875,-0.381051 c 78.39989,-0.575893 102.02439,2.260593 127.08509,15.258517 13.7249,7.118486 21.3331,13.587806 29.2681,24.886794 9.0956,12.951721 12.6068,24.824361 13.3593,45.172861 0.9482,25.63902 -3.1203,42.12123 -14.5174,58.81288 -12.0419,17.63575 -28.0781,27.14127 -56.7576,33.6433 -1.8906,0.42864 -3.4375,1.59005 -3.4375,2.58092 0,2.92242 18.2547,36.51617 26.9395,49.57629 9.1589,13.77298 17.594,21.94085 27.8202,26.93875 6.1186,2.99034 8.6037,3.47115 17.7403,3.43234 12.6438,-0.0538 19.385,-2.62379 28.2038,-10.75266 11.9302,-10.99692 16.9881,-28.75618 14.3154,-50.26427 -0.7176,-5.77546 -2.0855,-13.09483 -3.0397,-16.26526 -0.9541,-3.17042 -1.286,-5.76441 -0.7375,-5.76441 1.9381,0 9.0334,12.57665 12.1533,21.54222 4.3008,12.35887 5.2837,31.78632 2.2893,45.2458 -3.2546,14.62863 -10.6778,28.23458 -21.2876,39.01793 -10.2785,10.44654 -19.7354,15.57414 -34.5146,18.71404 -21.5746,4.58363 -49.4686,-2.60519 -67.5547,-17.41019 -10.3044,-8.43491 -17.1686,-18.37116 -29.80519,-43.14378 -6.19778,-12.15006 -15.35075,-29.68477 -20.33995,-38.96602 l -9.07128,-16.875 -16.58088,-0.34896 c -12.61779,-0.26555 -16.69974,0.0333 -17.07819,1.25 -0.27354,0.87944 -0.80095,27.40336 -1.17205,58.94208 -0.3711,31.53872 -0.83908,57.49798 -1.03994,57.68723 -0.68539,0.64579 -51.22687,1.22176 -52.17962,0.59465 z m 126.8144,-168.80733 c 21.5822,-5.23307 32.8372,-16.51196 35.543,-35.61835 2.6518,-18.72479 -3.924,-34.24115 -18.0096,-42.49586 -10.8256,-6.344234 -22.30205,-8.185836 -55.9312,-8.975199 -24.02224,-0.563862 -31.32388,-0.371645 -32.8125,0.863799 -1.65132,1.370464 -1.91469,7.47154 -1.91469,44.35266 0,23.51999 0.42187,43.19679 0.9375,43.72624 1.4641,1.50334 65.07985,-0.12989 72.18749,-1.85329 z m 156.2968,101.37685 c 2.2435,-14.16298 9.0607,-27.29795 18.8524,-36.32357 5.5856,-5.14864 20.1294,-12.8447 27.3508,-14.47311 4.3647,-0.98422 4.447,-1.07568 -8.0222,8.91957 -11.2311,9.00286 -21.8523,21.12526 -31.7019,36.18259 l -7.3591,11.25 0.88,-5.55548 z m 1.8282,-45.96651 c 0,-18.48946 6.4569,-36.51237 16.5385,-46.1631 l 5.0299,-4.81491 -0.7154,10.82461 c -0.858,12.98355 -5.2745,27.08474 -12.1059,38.65236 -7.7742,13.16406 -8.7471,13.33099 -8.7471,1.50104 z"
         id="path4146"
         inkscape:connector-curvature="0" />
      <path
         style="fill:#000000;fill-opacity:0.89019608"
         d="m 1175.7263,539.355 c -2.8574,-0.56531 -7.3958,-2.15045 -10.0853,-3.52251 -4.8983,-2.49896 -14.0944,-11.58728 -14.0944,-13.92931 0,-1.67494 2.1422,-1.58664 3.2044,0.13207 2.137,3.45774 13.746,7.34722 21.9654,7.35932 16.1877,0.0239 27.3326,-9.48392 27.7685,-23.68943 0.2217,-7.22472 -0.8403,-8.69544 -4.5576,-6.31146 -7.8513,5.0352 -11.7037,6.2631 -19.6496,6.2631 -17.2737,0 -29.1504,-10.77209 -31.8533,-28.891 -1.0243,-6.86613 1.9341,-19.84284 5.8154,-25.5088 9.2733,-13.53708 30.2523,-17.08886 43.084,-7.29421 5.8108,4.4355 7.3591,4.40122 8.1757,-0.18099 0.3679,-2.06419 1.5875,-2.56586 6.9963,-2.87783 l 6.5508,-0.37782 0,33.7538 c 0,19.29494 -0.574,36.4303 -1.34,40.00203 -2.5989,12.11817 -12.4217,21.48507 -25.8428,24.64331 -7.9807,1.87801 -8.718,1.89765 -16.1375,0.42974 z m 20.4474,-49.48143 c 6.7459,-5.03655 8.4979,-8.74079 8.4979,-17.96679 0,-6.67161 -0.5692,-9.34737 -2.5732,-12.09584 -3.3339,-4.57252 -12.3688,-9.15416 -18.0518,-9.15416 -5.5948,0 -14.7037,4.56079 -17.9138,8.96939 -2.5957,3.56467 -4.1497,13.86927 -2.8641,18.99148 1.083,4.31498 6.7961,10.78807 11.3409,12.84958 5.4004,2.44957 17.3294,1.56797 21.5641,-1.59366 z m 52.8729,45.31441 c 0,-0.94535 2.5313,-7.17254 5.625,-13.83821 3.0938,-6.66568 5.625,-12.95471 5.625,-13.97564 0,-1.02093 -5.9062,-15.85624 -13.125,-32.96735 -7.2187,-17.11111 -13.125,-31.70488 -13.125,-32.43056 0,-0.77471 3.0022,-1.31944 7.272,-1.31944 l 7.2721,0 8.4391,21.1685 c 8.5058,21.33547 10.8344,25.39311 12.843,22.37919 0.5769,-0.86554 4.4589,-10.87723 8.6268,-22.2482 l 7.578,-20.67449 7.1095,-0.37487 c 3.9103,-0.20619 7.1095,-0.0664 7.1095,0.31084 0,1.39563 -36.679,92.62076 -37.8456,94.12653 -1.7226,2.2235 -13.4044,2.08729 -13.4044,-0.1563 z M 816.44717,505.65705 C 799.8391,502.8078 788.4818,489.35497 788.4818,472.53178 c 0,-19.06641 14.55742,-33.38459 34.12458,-33.56376 16.76092,-0.15348 27.21756,9.06474 30.17556,26.60175 0.81056,4.80559 1.11226,9.32234 0.67045,10.03722 -0.51238,0.82903 -9.78274,1.29979 -25.59582,1.29979 -27.53682,0 -27.86571,0.10688 -24.57402,7.985 3.22296,7.71363 13.76626,13.13702 22.39276,11.51868 2.40342,-0.45088 6.42016,-2.21117 8.92609,-3.91173 5.55995,-3.77309 6.92399,-3.8267 11.22792,-0.44121 l 3.36987,2.65072 -2.88879,3.14406 c -5.88024,6.39987 -18.62977,9.73195 -29.86323,7.80475 z m 21.43161,-38.79424 c 3.02382,-1.6183 3.06174,-4.41939 0.13374,-9.87895 -3.01356,-5.61913 -9.22325,-8.82825 -17.07141,-8.8224 -8.1778,0.006 -13.63463,3.36439 -17.11851,10.53528 -4.21014,8.66574 -2.85965,9.46004 16.08425,9.46004 8.55476,0 16.64213,-0.58229 17.97193,-1.29398 z m 59.57112,38.74212 c -7.43563,-1.246 -16.08742,-6.21752 -20.19725,-11.6058 -5.05533,-6.62786 -6.95604,-12.61456 -6.95604,-21.90946 0,-10.7947 4.3409,-19.99788 12.29349,-26.06352 10.37638,-7.91433 26.00222,-9.42538 37.45475,-3.62194 3.57597,1.81207 6.50176,3.73737 6.50176,4.27842 0,0.54105 -1.89355,2.81904 -4.2079,5.06219 l -4.2079,4.07846 -4.2296,-2.57858 c -18.35863,-11.19233 -39.1819,13.20159 -26.86763,31.47473 6.23457,9.25147 17.61539,12.34007 27.71827,7.52235 l 4.54005,-2.165 3.69822,4.13904 c 4.47414,5.00743 3.57765,6.69938 -4.97721,9.39351 -8.31073,2.61725 -13.72036,3.14224 -20.56301,1.9956 z m 189.0349,-0.40062 c -21.5625,-5.81547 -31.2914,-29.60008 -20.3439,-49.73576 12.5765,-23.13189 49.5172,-22.87266 62.3321,0.43744 3.1677,5.76205 3.6425,7.92938 3.6425,16.62579 0,8.69641 -0.4748,10.86374 -3.6425,16.62579 -7.8274,14.23782 -24.7357,20.69976 -41.9882,16.04673 z m 19.2228,-12.50257 c 15.0017,-6.2681 17.1388,-27.70582 3.7778,-37.89672 -3.8608,-2.94481 -5.7716,-3.48424 -12.4053,-3.50211 -8.7601,-0.0236 -12.7875,2.09268 -17.6906,9.296 -5.6037,8.23275 -4.9026,18.43271 1.8159,26.41722 5.8914,7.00151 15.8322,9.30821 24.5022,5.68561 z m -400.87222,12.07714 c -0.43382,-0.43382 -0.78877,-22.39349 -0.78877,-48.79926 l 0,-48.01049 24.6875,0.40632 c 22.91733,0.37719 25.07233,0.61182 30.05456,3.27207 9.25563,4.94203 13.72833,12.06133 13.90587,22.13426 0.21264,12.06423 -5.06244,20.4269 -15.91159,25.22491 -5.10635,2.25826 -6.53879,3.46043 -5.95038,4.99379 0.42623,1.11074 5.83016,10.41865 12.00874,20.68425 6.17857,10.26559 10.91292,19.18386 10.52076,19.81839 -1.06118,1.71702 -13.52656,1.39545 -15.84787,-0.40884 -1.10563,-0.85938 -6.84188,-10.35725 -12.74724,-21.10639 -7.29482,-13.27831 -11.55474,-19.75772 -13.28773,-20.21092 -2.78999,-0.72959 -11.27438,0.0575 -12.37153,1.14771 -0.37735,0.37496 -0.96734,9.77745 -1.31109,20.89442 l -0.625,20.21268 -5.77373,0.26794 c -3.17555,0.14736 -6.12867,-0.087 -6.5625,-0.52084 z m 44.13227,-57.20627 c 5.21762,-2.69813 7.57896,-6.66221 7.57896,-12.72306 0,-10.50041 -8.20454,-15.44277 -25.6357,-15.44277 -12.90321,0 -13.1143,0.25121 -13.1143,15.60686 0,11.04403 0.33183,13.22662 2.1875,14.38812 3.0712,1.92233 24.32251,0.58116 28.98354,-1.82915 z m 208.20396,55.10506 c -11.72983,-5.54529 -18.56957,-16.66261 -18.54676,-30.14589 0.0334,-19.75048 14.27862,-33.48765 34.79676,-33.55579 14.8329,-0.0492 27.42739,7.72203 32.82819,20.25634 2.3998,5.56937 2.5974,19.04416 0.3761,25.65034 -2.2616,6.72626 -9.52491,14.36603 -16.95429,17.83305 -8.88362,4.14565 -23.68695,4.12832 -32.5,-0.038 z m 27.5,-11.1091 c 9.45919,-5.29163 13.15141,-18.35289 8.24321,-29.16045 -3.27798,-7.21793 -8.93772,-10.88143 -17.80117,-11.52255 -6.09403,-0.4408 -8.08838,-0.0143 -12.77419,2.73176 -10.18696,5.96996 -13.60376,18.81791 -7.88657,29.65535 5.58962,10.59563 19.35336,14.37415 30.21872,8.29589 z m 45.26599,13.3125 c -0.4901,-0.49003 -0.891,-24.17035 -0.891,-52.62295 l 0,-51.73199 6.5625,0.37783 6.5625,0.37782 0,51.875 0,51.875 -5.6715,0.37013 c -3.1194,0.20357 -6.0725,-0.0308 -6.5625,-0.52084 z M 874.04468,349.61512 c -0.81781,-0.27303 -1.15788,-29.57594 -0.98646,-85 0.14389,-46.52084 0.4455,-79.09896 0.67026,-72.39584 0.39583,11.80486 1.72755,15.45286 3.32203,9.09999 0.4262,-1.69813 3.07207,-5.495 5.87971,-8.4375 2.80764,-2.94249 5.90935,-6.89687 6.89269,-8.78749 0.98335,-1.89063 2.33595,-3.4375 3.0058,-3.4375 0.66985,0 1.07727,-0.47148 0.9054,-1.04772 -0.17188,-0.57626 1.5168,-2.96688 3.7526,-5.3125 2.2358,-2.34563 6.03268,-6.33638 8.4375,-8.86834 2.40482,-2.53195 4.3724,-5.10338 4.3724,-5.71426 0,-0.61089 3.16001,-4.39947 7.02224,-8.41906 6.59937,-6.86823 7.08617,-7.80377 8.0841,-15.53572 0.58402,-4.52507 1.209,-13.8524 1.38881,-20.7274 0.17982,-6.875 0.62011,5.5 0.9784,27.5 l 0.65145,40 31.875,-0.0491 c 33.7153,-0.052 41.34449,-0.93791 53.18999,-6.17657 13.2745,-5.87059 20.8324,-16.17396 22.978,-31.32495 1.9685,-13.89975 -1.0826,-26.11904 -8.6831,-34.77551 -10.0403,-11.435391 -24.0614,-15.479369 -58.10989,-16.760136 -20.91591,-0.786776 -22.41828,-0.974276 -12.58993,-1.571275 8.25128,-0.501205 11.31908,-1.155466 11.77012,-2.510176 0.33552,-1.007756 4.87598,-6.218524 10.08992,-11.579483 5.21394,-5.360961 10.40586,-11.54905 11.5376,-13.751309 1.13174,-2.202258 3.24111,-5.075075 4.6875,-6.384034 1.44639,-1.308959 2.62979,-3.136496 2.62979,-4.061192 0,-0.924695 0.84375,-1.681265 1.875,-1.681265 1.03129,0 1.87499,-0.498649 1.87499,-1.10811 0,-0.60946 -3.23437,-1.708928 -7.18749,-2.443261 -6.73139,-1.250422 -6.41703,-1.297694 4.95364,-0.744919 24.77815,1.204568 53.85405,11.528511 68.88575,24.459175 9.0259,7.764236 17.8442,21.139005 21.6688,32.865175 2.6388,8.09049 3.4122,13.31362 3.8918,26.28406 0.9482,25.63902 -3.1203,42.12123 -14.5174,58.81288 -12.0419,17.63575 -28.0781,27.14127 -56.7576,33.6433 -1.8906,0.42864 -3.4375,1.59005 -3.4375,2.58092 0,2.92242 18.2547,36.51617 26.9395,49.57629 9.1589,13.77298 17.594,21.94085 27.8203,26.93875 6.1185,2.99034 8.6036,3.47115 17.7402,3.43234 12.6438,-0.0538 19.385,-2.62379 28.2038,-10.75266 11.9302,-10.99692 16.9881,-28.75618 14.3154,-50.26427 -0.7176,-5.77546 -2.0855,-13.09483 -3.0397,-16.26526 -0.9541,-3.17042 -1.286,-5.76441 -0.7375,-5.76441 1.9381,0 9.0334,12.57665 12.1533,21.54222 4.3008,12.35887 5.2837,31.78632 2.2893,45.2458 -3.2546,14.62863 -10.6778,28.23458 -21.2876,39.01793 -10.2785,10.44654 -19.7354,15.57414 -34.5146,18.71404 -21.5746,4.58363 -49.4686,-2.60519 -67.5547,-17.41019 -10.3043,-8.43491 -17.1686,-18.37116 -29.80519,-43.14378 -6.19778,-12.15006 -15.35075,-29.68477 -20.33995,-38.96602 l -9.07128,-16.875 -16.58088,-0.34896 c -12.61779,-0.26555 -16.69974,0.0333 -17.07819,1.25 -0.27354,0.87944 -0.80095,27.40336 -1.17205,58.94208 -0.3711,31.53872 -0.83908,57.49798 -1.03994,57.68723 -0.54579,0.51425 -50.79361,1.28658 -52.24214,0.80299 z M 1157.2184,281.9763 c 2.2435,-14.16298 9.0607,-27.29794 18.8524,-36.32357 5.5856,-5.14864 20.1294,-12.8447 27.3508,-14.47311 4.3647,-0.98422 4.447,-1.07568 -8.0222,8.91957 -11.2311,9.00286 -21.8523,21.12526 -31.7019,36.18259 l -7.3591,11.25 0.88,-5.55548 z m 1.8282,-45.96651 c 0,-18.48946 6.4569,-36.51237 16.5385,-46.1631 l 5.0299,-4.81491 -0.7154,10.82461 c -0.858,12.98355 -5.2745,27.08474 -12.1059,38.65236 -7.7742,13.16406 -8.7471,13.33099 -8.7471,1.50104 z M 871.6453,166.17762 c 0.06,-1.45619 0.35617,-1.75238 0.7552,-0.75522 0.36108,0.90234 0.31669,1.98047 -0.0986,2.39584 -0.41537,0.41536 -0.7108,-0.32292 -0.65652,-1.64062 z m 0.3014,-23.02084 c 0,-4.46875 0.22687,-6.29687 0.50416,-4.0625 0.27728,2.23437 0.27728,5.89062 0,8.125 -0.27729,2.23437 -0.50416,0.40625 -0.50416,-4.0625 z m -0.3014,-11.97917 c 0.06,-1.45617 0.35617,-1.75237 0.7552,-0.7552 0.36108,0.90234 0.31669,1.98046 -0.0986,2.39583 -0.41537,0.41536 -0.7108,-0.32292 -0.65652,-1.64063 z m 2.04115,-67.708331 c -0.40242,-8.078125 -0.25265,-15.173983 0.33282,-15.768571 0.58546,-0.59459 7.15925,-0.685194 14.60841,-0.201342 l 13.54393,0.879731 -9.6875,10.034998 c -5.32813,5.51925 -9.6875,10.488569 -9.6875,11.042935 0,1.382779 -6.24514,8.699749 -7.42536,8.699749 -0.52423,0 -1.28238,-6.609375 -1.6848,-14.6875 z M 965.0331,45.980012 c 4.32381,-0.244788 11.07381,-0.242767 15,0.0045 3.92617,0.24726 0.38851,0.44754 -7.86149,0.445069 -8.25,-0.0025 -11.46234,-0.204775 -7.13851,-0.449562 z"
         id="path4144"
         inkscape:connector-curvature="0" />
      <path
         style="fill:#000000;fill-opacity:0.89019608"
         d="m 1175.7263,539.355 c -2.8574,-0.56531 -7.3958,-2.15045 -10.0853,-3.52251 -4.8983,-2.49896 -14.0944,-11.58728 -14.0944,-13.92931 0,-1.67494 2.1422,-1.58664 3.2044,0.13207 2.137,3.45774 13.746,7.34722 21.9654,7.35932 16.1877,0.0239 27.3326,-9.48392 27.7685,-23.68943 0.2217,-7.22472 -0.8403,-8.69544 -4.5576,-6.31146 -7.8513,5.0352 -11.7037,6.2631 -19.6496,6.2631 -17.2737,0 -29.1504,-10.77209 -31.8533,-28.891 -1.0243,-6.86613 1.9341,-19.84284 5.8154,-25.5088 9.2733,-13.53708 30.2523,-17.08886 43.084,-7.29421 5.8108,4.4355 7.3591,4.40122 8.1757,-0.18099 0.3679,-2.06419 1.5875,-2.56586 6.9963,-2.87783 l 6.5508,-0.37782 0,33.7538 c 0,19.29494 -0.574,36.4303 -1.34,40.00203 -2.5989,12.11817 -12.4217,21.48507 -25.8428,24.64331 -7.9807,1.87801 -8.718,1.89765 -16.1375,0.42974 z m 20.4474,-49.48143 c 6.7459,-5.03655 8.4979,-8.74079 8.4979,-17.96679 0,-6.67161 -0.5692,-9.34737 -2.5732,-12.09584 -3.3339,-4.57252 -12.3688,-9.15416 -18.0518,-9.15416 -5.5948,0 -14.7037,4.56079 -17.9138,8.96939 -2.5957,3.56467 -4.1497,13.86927 -2.8641,18.99148 1.083,4.31498 6.7961,10.78807 11.3409,12.84958 5.4004,2.44957 17.3294,1.56797 21.5641,-1.59366 z m 52.8729,45.31441 c 0,-0.94535 2.5313,-7.17254 5.625,-13.83821 3.0938,-6.66568 5.625,-12.95471 5.625,-13.97564 0,-1.02093 -5.9062,-15.85624 -13.125,-32.96735 -7.2187,-17.11111 -13.125,-31.70488 -13.125,-32.43056 0,-0.77471 3.0022,-1.31944 7.272,-1.31944 l 7.2721,0 8.4391,21.1685 c 8.5058,21.33547 10.8344,25.39311 12.843,22.37919 0.5769,-0.86554 4.4589,-10.87723 8.6268,-22.2482 l 7.578,-20.67449 7.1095,-0.37487 c 3.9103,-0.20619 7.1095,-0.0664 7.1095,0.31084 0,1.39563 -36.679,92.62076 -37.8456,94.12653 -1.7226,2.2235 -13.4044,2.08729 -13.4044,-0.1563 z M 816.44717,505.65705 C 799.8391,502.8078 788.4818,489.35497 788.4818,472.53178 c 0,-19.06641 14.55742,-33.38459 34.12458,-33.56376 16.76092,-0.15348 27.21756,9.06474 30.17556,26.60175 0.81056,4.80559 1.11226,9.32234 0.67045,10.03722 -0.51238,0.82903 -9.78274,1.29979 -25.59582,1.29979 -27.53682,0 -27.86571,0.10688 -24.57402,7.985 3.22296,7.71363 13.76626,13.13702 22.39276,11.51868 2.40342,-0.45088 6.42016,-2.21117 8.92609,-3.91173 5.55995,-3.77309 6.92399,-3.8267 11.22792,-0.44121 l 3.36987,2.65072 -2.88879,3.14406 c -5.88024,6.39987 -18.62977,9.73195 -29.86323,7.80475 z m 21.43161,-38.79424 c 3.02382,-1.6183 3.06174,-4.41939 0.13374,-9.87895 -3.01356,-5.61913 -9.22325,-8.82825 -17.07141,-8.8224 -8.1778,0.006 -13.63463,3.36439 -17.11851,10.53528 -4.21014,8.66574 -2.85965,9.46004 16.08425,9.46004 8.55476,0 16.64213,-0.58229 17.97193,-1.29398 z m 59.57112,38.74212 c -7.43563,-1.246 -16.08742,-6.21752 -20.19725,-11.6058 -5.05533,-6.62786 -6.95604,-12.61456 -6.95604,-21.90946 0,-10.7947 4.3409,-19.99788 12.29349,-26.06352 10.37638,-7.91433 26.00222,-9.42538 37.45475,-3.62194 3.57597,1.81207 6.50176,3.73737 6.50176,4.27842 0,0.54105 -1.89355,2.81904 -4.2079,5.06219 l -4.2079,4.07846 -4.2296,-2.57858 c -18.35863,-11.19233 -39.1819,13.20159 -26.86763,31.47473 6.23457,9.25147 17.61539,12.34007 27.71827,7.52235 l 4.54005,-2.165 3.69822,4.13904 c 4.47414,5.00743 3.57765,6.69938 -4.97721,9.39351 -8.31073,2.61725 -13.72036,3.14224 -20.56301,1.9956 z m 189.0349,-0.40062 c -21.5625,-5.81547 -31.2914,-29.60008 -20.3439,-49.73576 12.5765,-23.13189 49.5172,-22.87266 62.3321,0.43744 3.1677,5.76205 3.6425,7.92938 3.6425,16.62579 0,8.69641 -0.4748,10.86374 -3.6425,16.62579 -7.8274,14.23782 -24.7357,20.69976 -41.9882,16.04673 z m 19.2228,-12.50257 c 15.0017,-6.2681 17.1388,-27.70582 3.7778,-37.89672 -3.8608,-2.94481 -5.7716,-3.48424 -12.4053,-3.50211 -8.7601,-0.0236 -12.7875,2.09268 -17.6906,9.296 -5.6037,8.23275 -4.9026,18.43271 1.8159,26.41722 5.8914,7.00151 15.8322,9.30821 24.5022,5.68561 z m -400.87222,12.07714 c -0.43382,-0.43382 -0.78877,-22.39349 -0.78877,-48.79926 l 0,-48.01049 24.6875,0.40632 c 22.91733,0.37719 25.07233,0.61182 30.05456,3.27207 9.25563,4.94203 13.72833,12.06133 13.90587,22.13426 0.21264,12.06423 -5.06244,20.4269 -15.91159,25.22491 -5.10635,2.25826 -6.53879,3.46043 -5.95038,4.99379 0.42623,1.11074 5.83016,10.41865 12.00874,20.68425 6.17857,10.26559 10.91292,19.18386 10.52076,19.81839 -1.06118,1.71702 -13.52656,1.39545 -15.84787,-0.40884 -1.10563,-0.85938 -6.84188,-10.35725 -12.74724,-21.10639 -7.29482,-13.27831 -11.55474,-19.75772 -13.28773,-20.21092 -2.78999,-0.72959 -11.27438,0.0575 -12.37153,1.14771 -0.37735,0.37496 -0.96734,9.77745 -1.31109,20.89442 l -0.625,20.21268 -5.77373,0.26794 c -3.17555,0.14736 -6.12867,-0.087 -6.5625,-0.52084 z m 44.13227,-57.20627 c 5.21762,-2.69813 7.57896,-6.66221 7.57896,-12.72306 0,-10.50041 -8.20454,-15.44277 -25.6357,-15.44277 -12.90321,0 -13.1143,0.25121 -13.1143,15.60686 0,11.04403 0.33183,13.22662 2.1875,14.38812 3.0712,1.92233 24.32251,0.58116 28.98354,-1.82915 z m 208.20396,55.10506 c -11.72983,-5.54529 -18.56957,-16.66261 -18.54676,-30.14589 0.0334,-19.75048 14.27862,-33.48765 34.79676,-33.55579 14.8329,-0.0492 27.42739,7.72203 32.82819,20.25634 2.3998,5.56937 2.5974,19.04416 0.3761,25.65034 -2.2616,6.72626 -9.52491,14.36603 -16.95429,17.83305 -8.88362,4.14565 -23.68695,4.12832 -32.5,-0.038 z m 27.5,-11.1091 c 9.45919,-5.29163 13.15141,-18.35289 8.24321,-29.16045 -3.27798,-7.21793 -8.93772,-10.88143 -17.80117,-11.52255 -6.09403,-0.4408 -8.08838,-0.0143 -12.77419,2.73176 -10.18696,5.96996 -13.60376,18.81791 -7.88657,29.65535 5.58962,10.59563 19.35336,14.37415 30.21872,8.29589 z m 45.26599,13.3125 c -0.4901,-0.49003 -0.891,-24.17035 -0.891,-52.62295 l 0,-51.73199 6.5625,0.37783 6.5625,0.37782 0,51.875 0,51.875 -5.6715,0.37013 c -3.1194,0.20357 -6.0725,-0.0308 -6.5625,-0.52084 z M 896.85911,348.52462 c -1.54688,-0.29795 -2.8125,-0.97868 -2.8125,-1.51273 0,-2.53182 4.04447,-8.60267 7.36842,-11.06017 2.03495,-1.50452 3.88141,-4.01448 4.10324,-5.5777 0.26138,-1.84182 1.39815,-2.98348 3.22963,-3.24349 1.55446,-0.22069 3.62367,-1.90819 4.59826,-3.75 0.97457,-1.84181 3.44404,-5.15072 5.48767,-7.35315 2.04364,-2.20241 3.94512,-4.69262 4.22552,-5.53381 0.28039,-0.84118 1.17974,-1.11538 1.99853,-0.60933 1.04764,0.64748 1.48873,6.63879 1.48873,20.22131 l 0,19.30123 -13.4375,-0.17023 c -7.39063,-0.0936 -14.70313,-0.414 -16.25,-0.71193 z m 162.81249,-0.98972 c -17.3178,-3.25822 -30.9899,-10.08013 -42.4635,-21.18778 -9.82,-9.50689 -13.5677,-15.43607 -28.87934,-45.69034 -13.05881,-25.80284 -14.24099,-30.08529 -10.0646,-36.45928 1.12694,-1.71991 3.37976,-3.83933 5.0063,-4.70982 1.62653,-0.8705 4.29469,-3.84143 5.92924,-6.60206 1.63455,-2.76064 3.95009,-6.50085 5.14565,-8.31159 1.19555,-1.81074 2.51235,-3.97193 2.92622,-4.80263 0.41388,-0.83071 3.23253,-2.96378 6.26373,-4.74018 5.3758,-3.1504 6.8811,-5.88033 4.1673,-7.55754 -1.5056,-0.93054 3.3647,-6.8169 5.6403,-6.8169 2.2796,0 16.9132,-15.02026 19.4192,-19.93225 1.2935,-2.5355 3.2367,-5.34436 4.3182,-6.24193 1.0815,-0.89756 1.9663,-2.64976 1.9663,-3.89376 0,-1.244 1.5671,-3.37766 3.4823,-4.74146 1.9153,-1.36379 4.2271,-3.87121 5.1374,-5.57204 0.9102,-1.70083 2.9276,-3.67225 4.4829,-4.38092 1.5554,-0.70868 4.0935,-3.90265 5.6402,-7.0977 1.5467,-3.19507 3.8686,-6.46893 5.1597,-7.27525 1.2911,-0.80633 2.3475,-2.18522 2.3475,-3.06419 0,-1.0694 1.0077,-1.34522 3.0457,-0.83371 2.6998,0.67761 3.1927,0.21837 4.3404,-4.04376 0.7121,-2.6445 2.2947,-5.7099 3.5168,-6.81201 1.2222,-1.10212 3.15,-3.14963 4.284,-4.55003 1.1341,-1.4004 2.8555,-3.02764 3.8255,-3.61609 0.9699,-0.58844 2.6725,-2.40157 3.7836,-4.02917 l 2.02,-2.95927 1.967,6.62365 c 2.501,8.42186 2.5892,29.30345 0.1721,40.77566 -5.4666,25.94682 -20.117,45.21752 -42.5801,56.00874 -7.667,3.68323 -13.6178,5.57738 -27.1875,8.65379 -1.8906,0.42864 -3.4375,1.59005 -3.4375,2.58092 0,2.92242 18.2547,36.51617 26.9395,49.57629 9.1589,13.77298 17.594,21.94085 27.8203,26.93875 6.1185,2.99034 8.6036,3.47115 17.7402,3.43234 12.6438,-0.0538 19.385,-2.62379 28.2038,-10.75266 11.9302,-10.99692 16.9881,-28.75618 14.3154,-50.26427 -0.7176,-5.77546 -2.0855,-13.09483 -3.0397,-16.26526 -0.9541,-3.17042 -1.286,-5.76441 -0.7375,-5.76441 1.9381,0 9.0334,12.57665 12.1533,21.54222 4.3008,12.35887 5.2837,31.78632 2.2893,45.2458 -4.892,21.98849 -21.0336,43.82709 -38.4012,51.95437 -15.0877,7.06041 -29.7031,8.82575 -46.6584,5.63574 z m 97.5468,-65.5586 c 2.2435,-14.16298 9.0607,-27.29794 18.8524,-36.32357 5.5856,-5.14864 20.1294,-12.8447 27.3508,-14.47311 4.3647,-0.98422 4.447,-1.07568 -8.0222,8.91957 -11.2311,9.00286 -21.8523,21.12526 -31.7019,36.18259 l -7.3591,11.25 0.88,-5.55548 z m 1.8282,-45.96651 c 0,-18.48946 6.4569,-36.51237 16.5385,-46.1631 l 5.0299,-4.81491 -0.7154,10.82461 c -0.858,12.98355 -5.2745,27.08474 -12.1059,38.65236 -7.7742,13.16406 -8.7471,13.33099 -8.7471,1.50104 z M 873.68645,63.469279 c -0.40242,-8.078125 -0.25265,-15.173983 0.33282,-15.768571 0.58546,-0.59459 7.15925,-0.685194 14.60841,-0.201342 l 13.54393,0.879731 -9.6875,10.034998 c -5.32813,5.51925 -9.6875,10.488569 -9.6875,11.042935 0,1.382779 -6.24514,8.699749 -7.42536,8.699749 -0.52423,0 -1.28238,-6.609375 -1.6848,-14.6875 z"
         id="path4142"
         inkscape:connector-curvature="0" />
      <path
         style="fill:#000000;fill-opacity:0.89019608"
         d="M 816.44717,505.65705 C 799.8391,502.8078 788.4818,489.35497 788.4818,472.53178 c 0,-19.06641 14.55742,-33.38459 34.12458,-33.56376 16.76092,-0.15348 27.21756,9.06474 30.17556,26.60175 0.81056,4.80559 1.11226,9.32234 0.67045,10.03722 -0.51238,0.82903 -9.78274,1.29979 -25.59582,1.29979 -27.53682,0 -27.86571,0.10688 -24.57402,7.985 3.22296,7.71363 13.76626,13.13702 22.39276,11.51868 2.40342,-0.45088 6.42016,-2.21117 8.92609,-3.91173 5.55995,-3.77309 6.92399,-3.8267 11.22792,-0.44121 l 3.36987,2.65072 -2.88879,3.14406 c -5.88024,6.39987 -18.62977,9.73195 -29.86323,7.80475 z m 21.43161,-38.79424 c 3.02382,-1.6183 3.06174,-4.41939 0.13374,-9.87895 -3.01356,-5.61913 -9.22325,-8.82825 -17.07141,-8.8224 -8.1778,0.006 -13.63463,3.36439 -17.11851,10.53528 -4.21014,8.66574 -2.85965,9.46004 16.08425,9.46004 8.55476,0 16.64213,-0.58229 17.97193,-1.29398 z m 59.57112,38.74212 c -7.43563,-1.246 -16.08742,-6.21752 -20.19725,-11.6058 -5.05533,-6.62786 -6.95604,-12.61456 -6.95604,-21.90946 0,-10.7947 4.3409,-19.99788 12.29349,-26.06352 10.37638,-7.91433 26.00222,-9.42538 37.45475,-3.62194 3.57597,1.81207 6.50176,3.73737 6.50176,4.27842 0,0.54105 -1.89355,2.81904 -4.2079,5.06219 l -4.2079,4.07846 -4.2296,-2.57858 c -18.35863,-11.19233 -39.1819,13.20159 -26.86763,31.47473 6.23457,9.25147 17.61539,12.34007 27.71827,7.52235 l 4.54005,-2.165 3.69822,4.13904 c 4.47414,5.00743 3.57765,6.69938 -4.97721,9.39351 -8.31073,2.61725 -13.72036,3.14224 -20.56301,1.9956 z m 59.72171,-2.92726 c -11.72983,-5.54529 -18.56957,-16.66261 -18.54676,-30.14589 0.0334,-19.75048 14.27862,-33.48765 34.79676,-33.55579 14.8329,-0.0492 27.42739,7.72203 32.82819,20.25634 2.3998,5.56937 2.5974,19.04416 0.3761,25.65034 -2.2616,6.72626 -9.52491,14.36603 -16.95429,17.83305 -8.88362,4.14565 -23.68695,4.12832 -32.5,-0.038 z m 27.5,-11.1091 c 9.45919,-5.29163 13.15141,-18.35289 8.24321,-29.16045 -3.27798,-7.21793 -8.93772,-10.88143 -17.80117,-11.52255 -6.09403,-0.4408 -8.08838,-0.0143 -12.77419,2.73176 -10.18696,5.96996 -13.60376,18.81791 -7.88657,29.65535 5.58962,10.59563 19.35336,14.37415 30.21872,8.29589 z m -87.8125,-143.04395 c -1.54688,-0.29795 -2.8125,-0.97868 -2.8125,-1.51273 0,-2.53182 4.04447,-8.60267 7.36842,-11.06017 2.03495,-1.50452 3.88141,-4.01448 4.10324,-5.5777 0.26138,-1.84182 1.39815,-2.98348 3.22963,-3.24349 1.55446,-0.22069 3.62367,-1.90819 4.59826,-3.75 0.97457,-1.84181 3.44404,-5.15072 5.48767,-7.35315 2.04364,-2.20241 3.94512,-4.69262 4.22552,-5.53381 0.28039,-0.84118 1.17974,-1.11538 1.99853,-0.60933 1.04764,0.64748 1.48873,6.63879 1.48873,20.22131 l 0,19.30123 -13.4375,-0.17023 c -7.39063,-0.0936 -14.70313,-0.414 -16.25,-0.71193 z m 162.81249,-0.98972 c -17.3178,-3.25822 -30.9899,-10.08013 -42.4635,-21.18778 -9.82,-9.50689 -13.5677,-15.43607 -28.87934,-45.69034 -13.05881,-25.80284 -14.24099,-30.08529 -10.0646,-36.45928 1.12694,-1.71991 3.37976,-3.83933 5.0063,-4.70982 1.62653,-0.8705 4.29469,-3.84143 5.92924,-6.60206 1.63455,-2.76064 3.95009,-6.50085 5.14565,-8.31159 1.19555,-1.81074 2.51235,-3.97193 2.92622,-4.80263 0.41388,-0.83071 3.23253,-2.96378 6.26373,-4.74018 5.3758,-3.1504 6.8811,-5.88033 4.1673,-7.55754 -1.5056,-0.93054 3.3647,-6.8169 5.6403,-6.8169 2.2796,0 16.9132,-15.02026 19.4192,-19.93225 1.2935,-2.5355 3.2367,-5.34436 4.3182,-6.24193 1.0815,-0.89756 1.9663,-2.64976 1.9663,-3.89376 0,-1.244 1.5671,-3.37766 3.4823,-4.74146 1.9153,-1.36379 4.2271,-3.87121 5.1374,-5.57204 0.9102,-1.70083 2.9276,-3.67225 4.4829,-4.38092 1.5554,-0.70868 4.0935,-3.90265 5.6402,-7.0977 1.5467,-3.19507 3.8686,-6.46893 5.1597,-7.27525 1.2911,-0.80633 2.3475,-2.18522 2.3475,-3.06419 0,-1.0694 1.0077,-1.34522 3.0457,-0.83371 2.6998,0.67761 3.1927,0.21837 4.3404,-4.04376 0.7121,-2.6445 2.2947,-5.7099 3.5168,-6.81201 1.2222,-1.10212 3.15,-3.14963 4.284,-4.55003 1.1341,-1.4004 2.8555,-3.02764 3.8255,-3.61609 0.9699,-0.58844 2.6725,-2.40157 3.7836,-4.02917 l 2.02,-2.95927 1.967,6.62365 c 2.501,8.42186 2.5892,29.30345 0.1721,40.77566 -5.4666,25.94682 -20.117,45.21752 -42.5801,56.00874 -7.667,3.68323 -13.6178,5.57738 -27.1875,8.65379 -1.8906,0.42864 -3.4375,1.59005 -3.4375,2.58092 0,2.92242 18.2547,36.51617 26.9395,49.57629 9.1589,13.77298 17.594,21.94085 27.8203,26.93875 6.1185,2.99034 8.6036,3.47115 17.7402,3.43234 12.6438,-0.0538 19.385,-2.62379 28.2038,-10.75266 11.9302,-10.99692 16.9881,-28.75618 14.3154,-50.26427 -0.7176,-5.77546 -2.0855,-13.09483 -3.0397,-16.26526 -0.9541,-3.17042 -1.286,-5.76441 -0.7375,-5.76441 1.9381,0 9.0334,12.57665 12.1533,21.54222 4.3008,12.35887 5.2837,31.78632 2.2893,45.2458 -4.892,21.98849 -21.0336,43.82709 -38.4012,51.95437 -15.0877,7.06041 -29.7031,8.82575 -46.6584,5.63574 z m 97.5468,-65.5586 c 2.2435,-14.16298 9.0607,-27.29794 18.8524,-36.32357 5.5856,-5.14864 20.1294,-12.8447 27.3508,-14.47311 4.3647,-0.98422 4.447,-1.07568 -8.0222,8.91957 -11.2311,9.00286 -21.8523,21.12526 -31.7019,36.18259 l -7.3591,11.25 0.88,-5.55548 z m 1.8282,-45.96651 c 0,-18.48946 6.4569,-36.51237 16.5385,-46.1631 l 5.0299,-4.81491 -0.7154,10.82461 c -0.858,12.98355 -5.2745,27.08474 -12.1059,38.65236 -7.7742,13.16406 -8.7471,13.33099 -8.7471,1.50104 z"
         id="path4140"
         inkscape:connector-curvature="0" />
      <text
         sodipodi:linespacing="125%"
         id="text4156"
         y="348.93747"
         x="1145.748"
         style="font-style:normal;font-weight:normal;font-size:30.41102409px;line-height:125%;font-family:sans-serif;letter-spacing:0px;word-spacing:0px;fill:#000000;fill-opacity:1;stroke:none;stroke-width:1px;stroke-linecap:butt;stroke-linejoin:miter;stroke-opacity:1"
         xml:space="preserve"><tspan
           y="348.93747"
           x="1145.748"
           id="tspan4158"
           sodipodi:role="line"
           style="-inkscape-font-specification:'Times New Roman,  Bold';font-family:'Times New Roman';font-weight:bold;font-style:normal;font-stretch:normal;font-variant:normal"></tspan></text>
      <text
         sodipodi:linespacing="125%"
         id="text4156-3"
         y="506.1748"
         x="1293.3507"
         style="font-style:normal;font-weight:normal;font-size:26.26767159px;line-height:125%;font-family:sans-serif;letter-spacing:0px;word-spacing:0px;fill:#000000;fill-opacity:1;stroke:none;stroke-width:1px;stroke-linecap:butt;stroke-linejoin:miter;stroke-opacity:1"
         xml:space="preserve"><tspan
           y="506.1748"
           x="1293.3507"
           id="tspan4158-5"
           sodipodi:role="line"
           style="-inkscape-font-specification:'Times New Roman,  Bold';font-family:'Times New Roman';font-weight:bold;font-style:normal;font-stretch:normal;font-variant:normal"></tspan></text>
    </g>
  </g>
  <g
     inkscape:groupmode="layer"
     id="layer2"
     inkscape:label="Layer 2" />
</svg>
