<?xml version="1.0" encoding="UTF-8" standalone="no"?>
<!-- Created with Inkscape (http://www.inkscape.org/) -->

<svg
   xmlns:dc="http://purl.org/dc/elements/1.1/"
   xmlns:cc="http://creativecommons.org/ns#"
   xmlns:rdf="http://www.w3.org/1999/02/22-rdf-syntax-ns#"
   xmlns:svg="http://www.w3.org/2000/svg"
   xmlns="http://www.w3.org/2000/svg"
   xmlns:sodipodi="http://sodipodi.sourceforge.net/DTD/sodipodi-0.dtd"
   xmlns:inkscape="http://www.inkscape.org/namespaces/inkscape"
   id="svg2"
   version="1.1"
   inkscape:version="0.91 r13725"
   width="518.40002"
   height="518.40002"
   viewBox="0 0 518.40002 518.40002"
   sodipodi:docname="chucks-donuts.svg">
  <metadata
     id="metadata8">
    <rdf:RDF>
      <cc:Work
         rdf:about="">
        <dc:format>image/svg+xml</dc:format>
        <dc:type
           rdf:resource="http://purl.org/dc/dcmitype/StillImage" />
        <dc:title></dc:title>
      </cc:Work>
    </rdf:RDF>
  </metadata>
  <defs
     id="defs6" />
  <sodipodi:namedview
     pagecolor="#ffffff"
     bordercolor="#666666"
     borderopacity="1"
     objecttolerance="10"
     gridtolerance="10"
     guidetolerance="10"
     inkscape:pageopacity="0"
     inkscape:pageshadow="2"
     inkscape:window-width="1536"
     inkscape:window-height="897"
     id="namedview4"
     showgrid="false"
     inkscape:zoom="1.8209876"
     inkscape:cx="357.70374"
     inkscape:cy="314.94852"
     inkscape:window-x="-8"
     inkscape:window-y="-8"
     inkscape:window-maximized="1"
     inkscape:current-layer="svg2" />
  <path
     inkscape:connector-curvature="0"
     id="path4148"
     d="m 227.53984,259.48785 c -0.495,-0.16399 -1.98254,-0.53599 -3.30564,-0.82665 -5.86051,-1.28741 -11.69437,-9.41374 -11.69437,-16.2898 0,-11.80413 13.45352,-19.17569 24.5367,-13.44435 5.64043,2.91678 9.68049,10.88358 8.55676,16.87353 -0.66964,3.5695 -4.93329,9.36633 -8.4965,11.55179 -2.3992,1.47153 -7.90393,2.69642 -9.59695,2.13548 z m 7.29301,-3.20066 c 5.24015,-2.53671 6.28196,-3.93691 5.0086,-6.73162 -1.28556,-2.82151 -2.29356,-2.81402 -3.58786,0.0266 -1.03232,2.26572 -4.05469,3.06361 -5.11375,1.35 -0.95712,-1.54864 -3.88878,-0.98446 -5.29157,1.01832 -1.7302,2.47019 -3.94742,1.6556 -5.18916,-1.90645 -0.96752,-2.77543 -2.08308,-3.27748 -4.24242,-1.90931 -0.95061,0.60231 -0.47569,1.60232 2.13138,4.48805 4.99419,5.52797 10.07391,6.67099 16.28478,3.66436 z m -2.52301,-9.13497 c 1.19317,-1.19317 1.42503,-5.12585 0.39122,-6.63565 -2.16424,-3.16066 -8.31122,-1.31867 -8.31122,2.49053 0,4.07479 5.24515,6.81997 7.92,4.14512 z m 10.61163,-4.08838 c -0.62415,-0.62414 -2.33163,0.644 -2.33163,1.73169 0,0.59679 0.5164,0.52851 1.37175,-0.18136 0.75446,-0.62615 1.18641,-1.3238 0.95988,-1.55033 z m -23.44463,-0.17174 c -0.32628,-0.52793 -1.02393,-0.95988 -1.55032,-0.95988 -0.59679,0 -0.5285,0.5164 0.18137,1.37175 1.23439,1.48734 2.3376,1.15542 1.36895,-0.41187 z m 18.90001,-3.6 c -0.32629,-0.52793 -1.02393,-0.95988 -1.55033,-0.95988 -0.59679,0 -0.5285,0.5164 0.18137,1.37175 1.23439,1.48734 2.3376,1.15542 1.36896,-0.41187 z m -18.48701,-2.40617 c 0,-0.19454 -0.6075,-0.35371 -1.35,-0.35371 -0.7425,0 -1.35,0.39229 -1.35,0.87176 0,0.47945 0.6075,0.63863 1.35,0.35371 0.7425,-0.28493 1.35,-0.67722 1.35,-0.87176 z m 7.2,-2.3602 c 0,-0.52678 -0.57187,-0.43931 -1.35,0.20649 -0.7425,0.61622 -1.35,1.2606 -1.35,1.43195 0,0.17135 0.6075,0.0784 1.35,-0.20648 0.7425,-0.28493 1.35,-0.92931 1.35,-1.43196 z m 8.58701,-0.75339 c 0.96864,-1.56729 -0.13457,-1.89921 -1.36896,-0.41187 -0.70987,0.85535 -0.77816,1.37175 -0.18137,1.37175 0.5264,0 1.22404,-0.43195 1.55033,-0.95988 z m -6.78701,-3.54012 c -1.76254,-1.13904 -2.95396,-1.13904 -2.25,0 0.30593,0.495 1.24108,0.8938 2.07812,0.88622 1.31154,-0.0119 1.3353,-0.13436 0.17188,-0.88622 z m 145.575,27.67837 c -3.65495,-1.10528 -6.075,-2.32894 -6.075,-3.07176 0,-1.02269 4.36462,-1.19361 25.425,-0.99562 16.19066,0.1522 25.425,0.56589 25.425,1.13901 0,0.495 -2.6325,1.78164 -5.85,2.8592 -8.27685,2.77197 -29.86043,2.81032 -38.925,0.0691 z m -196.33393,-0.53101 c -0.29075,-0.47044 0.42184,-1.0939 1.58352,-1.38546 1.87699,-0.4711 2.17619,-1.20826 2.68738,-6.62101 1.2241,-12.96154 0.438,-18.55024 -2.73586,-19.45043 -0.89437,-0.25366 3.50955,-0.38904 9.78648,-0.30083 12.40558,0.17432 14.0417,0.74479 18.2318,6.35698 2.71089,3.63095 2.58725,11.6776 -0.24035,15.64197 -3.48246,4.8825 -6.54515,5.93626 -18.29419,6.29439 -6.03169,0.18385 -10.71483,-0.0438 -11.01878,-0.53561 z m 21.42893,-4.71642 c 1.93753,-2.30263 2.33,-3.67451 2.33,-8.14469 0,-8.46629 -3.54684,-13.38625 -9.65026,-13.38625 l -2.94974,0 -0.08,6.975 c -0.10785,9.40582 0.1464,15.80436 0.66107,16.63712 0.23382,0.37833 1.98522,0.68788 3.89201,0.68788 2.76644,0 3.93763,-0.55946 5.79689,-2.76906 z m 89.75545,4.60889 c -5.38252,-1.34042 -5.92798,-2.56545 -6.42545,-14.43054 -0.39266,-9.36541 -0.67766,-10.89932 -2.23686,-12.03894 -1.63112,-1.19221 -1.21244,-1.3328 4.80382,-1.61319 3.62487,-0.16894 6.75513,-0.14098 6.95614,0.0621 0.20099,0.20309 -0.44197,0.93481 -1.42882,1.62603 -1.5976,1.11902 -1.79428,2.28703 -1.79428,10.65574 0,11.09424 1.05502,12.99897 7.2,12.99897 5.60921,0 7.17923,-2.17899 7.29536,-10.125 0.15072,-10.31146 -0.0814,-11.82395 -2.07518,-13.5225 -1.03135,-0.87863 -1.71655,-1.71324 -1.52267,-1.85468 0.19387,-0.14145 2.51083,-0.0901 5.1488,0.11417 4.79369,0.37115 4.79529,0.3723 2.925,2.11474 -1.6216,1.51076 -1.87131,2.80164 -1.87131,9.67403 0,9.46127 -1.1277,13.20536 -4.5031,14.95084 -3.32133,1.71753 -8.73109,2.31971 -12.47145,1.38823 z m 61.52455,-0.10293 c -1.485,-0.44461 -3.36868,-0.59772 -4.18595,-0.34025 -1.2241,0.38563 -1.5413,-0.34386 -1.8,-4.13971 -0.17273,-2.5343 -0.15892,-4.76276 0.0307,-4.95212 0.18961,-0.18936 1.51939,1.27725 2.95506,3.25914 1.43568,1.9819 3.6093,3.98326 4.83026,4.44747 4.55954,1.73354 8.91616,-2.20777 6.80363,-6.15505 -0.50381,-0.94139 -3.37699,-2.63195 -6.38485,-3.75681 -6.23065,-2.33011 -8.09884,-4.41608 -8.09884,-9.04294 0,-5.56788 6.87569,-9.5041 12.72009,-7.28206 1.62236,0.61682 2.65667,0.58867 3.33613,-0.0908 1.08157,-1.08157 1.49378,-0.3204 2.20009,4.0627 0.52765,3.27435 -0.60837,3.87383 -2.33814,1.23386 -0.75831,-1.15731 -2.62272,-2.61948 -4.14314,-3.24926 -2.35439,-0.97523 -3.09892,-0.92588 -5.01972,0.33268 -4.20842,2.75747 -2.23789,5.58503 5.69139,8.16676 4.9015,1.59589 8.24233,5.17533 8.24994,8.83917 0.006,3.06507 -2.81274,7.07067 -5.87751,8.35121 -3.42845,1.4325 -5.04929,1.4896 -8.96913,0.316 z m -102.6,-1.01235 c 2.87432,-1.62992 3.12168,-2.51649 3.13622,-11.24096 0.0154,-9.22431 -0.94403,-12.83187 -3.59706,-13.52565 -3.31467,-0.86681 -1.82326,-2.05851 2.48584,-1.98629 4.23808,0.071 4.34,0.14487 11.80052,8.55 4.13904,4.66309 7.78404,8.4793 8.1,8.48047 0.31596,9e-4 0.4417,-3.26086 0.27941,-7.24892 -0.27991,-6.87848 -0.41863,-7.30418 -2.7,-8.28547 l -2.40493,-1.03445 2.90493,-0.32217 c 1.59771,-0.17719 4.43271,-0.18065 6.3,-0.008 l 3.39507,0.31445 -2.475,1.0688 -2.475,1.06879 0,12.62228 c 0,10.12145 -0.24567,12.62267 -1.23978,12.62267 -0.68188,0 -5.03563,-4.3142 -9.675,-9.58712 l -8.43522,-9.58713 -0.27082,6.1933 c -0.34871,7.97453 0.19546,9.93798 3.20726,11.57216 2.37752,1.29004 2.24353,1.33702 -3.83644,1.34539 -5.15202,0.007 -5.97201,-0.17733 -4.5,-1.01205 z m 71.1,0.17545 c 0.30593,-0.495 1.12558,-0.9 1.82145,-0.9 2.96205,0 3.83813,-6.44707 2.55034,-18.76798 -0.56314,-5.38788 -0.64702,-5.53202 -3.21923,-5.53202 -1.73446,0 -3.56782,0.9268 -5.34102,2.7 -1.485,1.485 -2.87135,2.7 -3.08077,2.7 -0.7212,0 -0.37964,-6.19447 0.367,-6.65592 0.41128,-0.25418 7.19503,-0.52186 15.07501,-0.59484 l 14.32722,-0.1327 0.27928,4.26337 0.27928,4.26336 -3.08555,-3.27164 c -2.28368,-2.4214 -3.82487,-3.27163 -5.9304,-3.27163 l -2.84485,0 0.25111,11.91389 c 0.23407,11.10425 0.37346,11.93587 2.05113,12.23736 0.99,0.1779 2.18475,0.68916 2.655,1.1361 0.51177,0.48643 -2.67088,0.81265 -7.92812,0.81265 -5.62622,0 -8.58319,-0.32349 -8.22688,-0.9 z m 56.83985,-10.10602 c -0.30903,-3.59919 -0.83167,-11.91848 -1.16142,-18.48729 l -0.59955,-11.94329 19.26057,0.24329 19.26055,0.2433 0.27544,2.8367 c 0.20764,2.13841 0.90578,3.0978 2.8361,3.89737 10.85133,4.49476 9.67793,20.4534 -1.68743,22.94965 -2.18971,0.48094 -2.71885,1.10072 -2.94655,3.45125 l -0.27756,2.86503 -17.19914,0.24399 -17.19914,0.244 z m 6.23034,-4.06899 c -0.26884,-3.34125 -0.73473,-9.61875 -1.03529,-13.95 -0.41732,-6.01378 -0.85378,-7.875 -1.84669,-7.875 -1.01596,0 -1.19921,0.93459 -0.83825,4.275 0.25408,2.35125 0.712,8.62875 1.01761,13.95 0.43891,7.64226 0.83254,9.675 1.87354,9.675 1.0753,0 1.22791,-1.11824 0.82908,-6.075 z m 34.00844,-2.09032 c 3.24975,-2.55625 3.32929,-8.05858 0.16228,-11.22559 -3.28618,-3.28618 -4.09091,-2.76915 -4.09091,2.62841 0,2.66062 -0.25312,6.10312 -0.5625,7.65 -0.68349,3.41749 0.92057,3.75578 4.49113,0.94718 z m -227.62784,-26.8977 c -3.4239,-1.38667 -7.44555,-6.93725 -8.07693,-11.14758 -0.70139,-4.67715 1.50313,-10.52589 5.27451,-13.9937 2.86697,-2.63618 10.03598,-3.57975 14.17433,-1.86559 2.32265,0.96208 2.92299,0.94768 3.56149,-0.0854 1.09181,-1.76661 1.4424,-1.02508 2.0473,4.33032 0.59659,5.2818 -0.41342,6.1209 -2.50324,2.07963 -4.26272,-8.24319 -13.175,-6.669 -14.87496,2.62738 -2.23289,12.21073 7.15848,20.89468 14.57555,13.4776 2.80433,-2.80433 4.56512,-2.89157 2.85488,-0.14145 -1.98306,3.18884 -6.76931,5.58364 -11.04182,5.52479 -2.27805,-0.0314 -4.97404,-0.39406 -5.99111,-0.80597 z m 19.39921,0.068 c 0,-0.43727 0.81,-1.00685 1.8,-1.26575 1.53364,-0.40105 1.80687,-1.24895 1.84648,-5.72996 0.0256,-2.89259 0.14641,-7.5592 0.26855,-10.37024 0.25911,-5.96377 -0.58311,-8.83902 -2.58914,-8.83902 -0.78768,0 -1.18182,-0.405 -0.87589,-0.9 0.30592,-0.495 3.36733,-0.9 6.80311,-0.9 3.56459,0 6.24689,0.38644 6.24689,0.9 0,0.495 -0.6075,0.9 -1.35,0.9 -0.84042,0 -1.4003,0.93423 -1.48326,2.475 -0.0733,1.36125 -0.18371,3.285 -0.24537,4.275 -0.24914,3.9994 1.09469,5.05729 6.05943,4.7701 l 4.6692,-0.2701 0.27206,-5.24696 c 0.24135,-4.65472 0.0636,-5.30146 -1.575,-5.72996 -4.09339,-1.07045 -1.43673,-2.05356 5.35294,-1.98088 3.96,0.0424 7.2,0.44398 7.2,0.89243 0,0.44846 -0.76277,0.81537 -1.69504,0.81537 -2.32572,0 -2.77829,2.3108 -2.79268,14.25926 -0.0113,9.45775 0.12022,10.2439 1.78772,10.67996 3.92796,1.02719 1.44526,2.06078 -4.95,2.06078 -3.9,0 -6.75,-0.38 -6.75,-0.9 0,-0.495 0.56417,-0.9 1.25371,-0.9 1.69899,0 2.34629,-2.00667 2.34629,-7.27361 l 0,-4.42639 -5.85,0 -5.85,0 0,4.42639 c 0,5.26694 0.64729,7.27361 2.34629,7.27361 0.68953,0 1.25371,0.405 1.25371,0.9 0,0.52 -2.85001,0.9 -6.75,0.9 -3.7125,0 -6.75,-0.35777 -6.75,-0.79503 z m 41.74591,-0.44645 c -3.77588,-1.71007 -4.84591,-5.2172 -4.84591,-15.88305 0,-8.06167 -0.16056,-8.86792 -2.025,-10.16849 -1.90969,-1.33214 -1.5894,-1.41412 5.625,-1.43976 7.6356,-0.0272 7.6459,-0.024 5.47306,1.64627 -2.04687,1.57348 -2.17816,2.21926 -2.19729,10.8077 -0.0243,10.91188 1.14615,12.92427 7.51708,12.92427 5.71249,0 6.70037,-1.55101 7.07273,-11.10442 0.35845,-9.1962 -0.21038,-12.54104 -2.13273,-12.54104 -0.73306,0 -1.33285,-0.405 -1.33285,-0.9 0,-0.495 2.2275,-0.9 4.95,-0.9 2.7225,0 4.95,0.405 4.95,0.9 0,0.495 -0.56417,0.9 -1.25371,0.9 -1.87026,0 -2.33701,2.04031 -2.436,10.64861 -0.11082,9.6363 -0.65161,11.65269 -3.74462,13.96195 -3.10653,2.31937 -11.64728,2.94706 -15.61976,1.14796 z m 33.01806,-0.28368 c -4.65823,-2.45263 -6.64644,-5.76965 -7.03558,-11.73775 -0.40167,-6.16038 1.49941,-10.39147 6.07115,-13.51209 3.23546,-2.20849 8.93546,-2.68952 13.10135,-1.10565 1.63316,0.62093 2.77457,0.62346 3.5164,0.008 0.60408,-0.50135 1.36481,-0.64505 1.69052,-0.31935 0.95501,0.95471 0.67883,9.2919 -0.30781,9.2919 -0.495,0 -0.9,-0.39091 -0.9,-0.86868 0,-0.47778 -1.25696,-2.30028 -2.79323,-4.05 -6.83782,-7.78786 -14.83008,-0.50977 -12.98097,11.821 1.31657,8.77958 8.77854,12.06966 14.59287,6.43419 1.6249,-1.57491 3.24393,-2.57391 3.59785,-2.21999 0.35391,0.35392 -0.82605,2.113 -2.62213,3.9091 -2.77476,2.77474 -3.98553,3.31885 -8.055,3.61983 -3.42451,0.25328 -5.66884,-0.10882 -7.87542,-1.27061 z m 20.63603,0.62815 c 0,-0.49665 0.56417,-0.90299 1.25371,-0.90299 1.98179,0 2.34629,-2.12177 2.34629,-13.65787 0,-10.05375 -0.12603,-10.84361 -1.8,-11.28136 -3.82974,-1.0015 -1.51666,-2.06077 4.5,-2.06077 5.88904,0 8.05983,0.93211 4.95,2.12547 -0.98799,0.37912 -1.3448,1.91331 -1.33059,5.72129 l 0.0194,5.20324 4.48059,-4.65809 c 4.62137,-4.80448 5.47025,-6.59191 3.13056,-6.59191 -0.7425,0 -1.35,-0.405 -1.35,-0.9 0,-0.50769 2.55,-0.9 5.85,-0.9 5.80921,0 7.77787,1.121 3.74585,2.13297 -1.15729,0.29046 -4.07953,2.36767 -6.49388,4.61601 l -4.38973,4.08791 3.10834,1.55656 c 2.60219,1.30309 3.47966,2.58102 5.38864,7.84803 1.47308,4.06434 2.83083,6.3975 3.83554,6.59099 3.461,0.66653 1.24016,1.96753 -3.35863,1.96753 l -4.91388,0 -0.93612,-3.6 -1.87226,-7.2 c -0.91627,-3.52365 -1.93716,-4.16773 -4.84026,-3.05371 -1.07878,0.41396 -1.42361,1.85137 -1.42361,5.93426 0,4.63106 0.25286,5.45409 1.8,5.85867 3.76694,0.98508 1.54394,1.86768 -4.95,1.96529 -3.9823,0.0599 -6.75,-0.26879 -6.75,-0.80152 z m 40.39738,-1.57799 c -0.0564,-1.36125 -0.23467,-3.58875 -0.39608,-4.95 -0.40106,-3.38259 0.84859,-3.10603 3.08386,0.68248 3.26985,5.54196 9.82868,6.51108 11.98825,1.77134 1.35,-2.96294 -0.72447,-5.26933 -6.44999,-7.17105 -5.60739,-1.86246 -8.48342,-4.96415 -8.48342,-9.14901 0,-2.43455 0.62753,-3.78181 2.51952,-5.40923 2.24743,-1.93315 3.23887,-2.13959 9.18001,-1.91145 l 6.66047,0.25575 0,3.89217 0,3.89216 -3.08931,-3.27563 c -2.51483,-2.6665 -3.62766,-3.22234 -5.98424,-2.98908 -3.45282,0.34177 -5.32678,2.70803 -3.91595,4.94467 0.52321,0.82946 3.15365,2.25652 5.8454,3.17123 6.32219,2.14842 9.1241,4.92668 9.1241,9.04711 0,4.11156 -1.41505,6.63517 -4.66198,8.31422 -3.08119,1.59335 -6.99104,1.74324 -10.51571,0.40317 -1.77504,-0.67488 -2.60863,-0.67488 -2.83359,0 -0.6298,1.8894 -1.9708,0.90608 -2.07134,-1.51885 z m 50.17784,-1.575 c 0.44618,-4.07549 0.22158,-4.83962 -2.38079,-8.1 -3.49232,-4.37537 -6.29443,-9.69167 -6.29443,-11.94213 0,-0.91511 0.60035,-2.45 1.33411,-3.41085 1.25568,-1.64431 1.30631,-1.5883 0.86139,0.95298 -0.37268,2.12861 0.48776,4.3185 4.06589,10.34793 4.8319,8.14214 5.18749,9.69769 3.1893,13.95207 -1.24306,2.64665 -1.25839,2.61108 -0.77547,-1.8 z m 3.5131,1.46567 c 2.07182,-4.27374 1.12833,-7.8048 -3.63802,-13.6153 -6.2587,-7.62981 -5.56762,-7.51282 3.77719,0.63938 4.0869,3.5653 4.36118,8.96016 0.6767,13.31025 l -2.28686,2.7 z m -6.6986,-0.73378 c -0.0493,-1.08247 -1.97428,-4.72081 -4.27764,-8.08521 -4.20545,-6.14269 -5.32131,-10.94744 -3.0662,-13.20256 0.58502,-0.58502 0.71705,0.16941 0.38631,2.20753 -0.43237,2.66443 0.008,3.71384 3.15611,7.52368 4.25303,5.14675 5.45854,8.13678 4.54568,11.27467 -0.60228,2.07031 -0.66172,2.09283 -0.74426,0.28189 z m -56.78972,-16.18603 c 0,-0.33227 0.67027,-1.34477 1.48949,-2.25 1.38598,-1.53149 1.38598,-1.76023 0,-3.29173 -1.91415,-2.11511 -1.87535,-2.58429 0.31051,-3.75413 2.30242,-1.23222 5.4,0.28126 5.4,2.63843 0,0.9213 -1.43159,2.93206 -3.18132,4.46834 -3.23611,2.84134 -4.01868,3.26763 -4.01868,2.18909 z"
     style="fill:#000000;fill-opacity:1"
     sodipodi:nodetypes="csssssccscsssssccsssssssssssscsscssscsssscscsscsscscssssccssssssssscsscsssccsssscssssscssssscsscsssssssssssscscccsssscsscsccccssscsscccsssssssscccsscsccsssscccsssscccssssssssssssscssscssssssccsccsscsssscscssssssssssscccssssssssscssssssssssscsssccsssssssscccsssssscsssssscssssccssssccccssssssscccsssssssscsssssssssssscscssscscsssssss" />
  <g
     id="g4138"
     transform="translate(40.637286,-122.46102)">
    <path
       style="fill-opacity:1"
       d="m 336.37501,279.37004 c -4.48417,-1.44361 -6.975,-2.71414 -6.975,-3.55778 0,-1.11908 3.78594,-1.31227 25.71599,-1.31227 23.37146,0 25.68947,0.13481 25.425,1.47869 -0.1954,0.99296 -2.6561,2.16849 -7.49099,3.57859 -10.51755,3.06747 -26.82388,2.98423 -36.675,-0.18723 z m -152.15958,0.12602 c -4.54822,-1.6221 -6.65077,-3.64051 -9.36222,-8.98753 -2.74501,-5.41322 -2.35798,-10.74945 1.16585,-16.07431 5.20126,-7.85964 18.48846,-9.20626 25.90011,-2.6249 4.44827,3.94993 6.26104,12.72387 3.83065,18.5406 -3.50272,8.3832 -12.70945,12.2935 -21.53439,9.14614 z m 11.36874,-2.40853 c 1.08121,-0.55686 2.84849,-1.81559 3.92727,-2.79717 1.65024,-1.50155 1.80497,-2.1281 0.97524,-3.94915 l -0.98618,-2.16446 -2.36363,2.83124 -2.36361,2.83124 -2.97772,-1.53984 c -2.88265,-1.49068 -3.01952,-1.48013 -4.28765,0.33038 -2.02465,2.8906 -4.58152,2.35416 -6.09988,-1.27978 -1.31074,-3.13703 -2.61016,-3.94545 -3.64651,-2.2686 -0.88192,1.42697 1.13954,4.3185 4.71991,6.75143 3.64747,2.47853 9.61671,3.05013 13.10276,1.25471 z m -2.59845,-9.40183 c 4.21377,-4.21377 -1.51877,-10.09724 -5.93985,-6.09622 -2.12251,1.92085 -2.08054,3.47583 0.15414,5.71051 2.16695,2.16695 3.88964,2.2818 5.78571,0.38571 z m -54.38571,9.96429 c 0,-0.7425 0.76667,-1.35 1.7037,-1.35 2.46165,0 2.7963,-1.62236 2.7963,-13.55647 0,-10.66468 -0.009,-10.71158 -2.24379,-11.27239 -4.73699,-1.18891 -1.01774,-1.86738 8.99646,-1.64114 15.53638,0.35101 20.21819,3.43391 20.96855,13.80754 0.48921,6.76325 -1.88493,11.15097 -7.38531,13.64897 -4.94892,2.24755 -24.83591,2.53861 -24.83591,0.36349 z m 20.21432,-2.75938 c 1.18305,-0.77517 2.58629,-2.65811 3.11834,-4.18431 3.09036,-8.86502 -1.80049,-18.70631 -9.29653,-18.70631 l -2.33613,0 0,10.72639 c 0,5.89952 0.24582,11.36702 0.54629,12.15 0.70867,1.84677 5.15909,1.85472 7.96803,0.0142 z m 48.54696,3.06583 c -0.25828,-0.4179 0.51204,-1.13304 1.71181,-1.58919 2.86845,-1.09059 3.3368,-2.55818 3.27611,-10.26587 -0.0646,-8.21111 -1.46984,-12.38116 -4.69176,-13.92336 -3.51115,-1.68064 -2.23287,-2.87803 3.07247,-2.87803 4.11155,0 4.78318,0.30528 7.37189,3.35077 1.56651,1.84293 5.18233,5.79168 8.03517,8.775 l 5.18697,5.42423 -0.23697,-6.72678 c -0.21179,-6.01197 -0.45817,-6.8367 -2.31867,-7.76126 -3.30562,-1.6427 -1.95827,-2.51303 4.1067,-2.65277 5.85385,-0.13486 7.43157,1.07139 3.6,2.75239 -1.94558,0.85357 -2.03479,1.39146 -2.27471,13.71342 -0.18341,9.41972 -0.5439,12.825 -1.35769,12.825 -0.60939,0 -3.12953,-2.26139 -5.6003,-5.02531 -2.47077,-2.76393 -6.20259,-6.91518 -8.29295,-9.225 l -3.80065,-4.19969 -0.0105,6.75 c -0.0114,7.26784 0.42075,8.61102 2.9344,9.12089 0.8924,0.18101 1.60256,0.73411 1.57814,1.22911 -0.0538,1.09186 -11.62565,1.38042 -12.2894,0.30645 z m 41.20016,0.0202 c -4.29339,-1.23695 -5.56144,-4.91514 -5.56144,-16.13196 0,-8.35627 -0.1495,-9.15226 -1.8,-9.58388 -0.99,-0.25889 -1.8,-1.03097 -1.8,-1.71574 0,-0.96239 1.73665,-1.24503 7.65,-1.24503 4.93659,0 7.65,0.34911 7.65,0.98426 0,0.54134 -0.77256,1.18628 -1.7168,1.4332 -2.23335,0.58404 -2.75598,2.76965 -2.77092,11.58784 -0.0134,7.90318 1.31648,10.59036 5.79768,11.71507 5.97333,1.49921 8.59606,-2.56831 8.57626,-13.30068 -0.0145,-7.85999 -0.35875,-9.04034 -2.91122,-9.98209 -3.42866,-1.26503 -1.37222,-2.4376 4.275,-2.4376 6.16032,0 7.13441,0.72763 3.87303,2.89311 -1.77147,1.17621 -2.01115,2.24009 -2.3058,10.23478 -0.18085,4.90716 -0.74578,10.00672 -1.25539,11.33235 -1.66801,4.33894 -10.21138,6.37405 -17.7004,4.21639 z m 30.81494,0.004 c -0.22632,-0.36621 0.71015,-1.20274 2.08106,-1.85896 l 2.49256,-1.19313 0.25189,-11.4644 c 0.23047,-10.48992 0.11572,-11.46335 -1.35,-11.45211 -3.29107,0.0253 -5.30954,1.06993 -7.03061,3.63877 -0.9742,1.45407 -2.07503,2.64493 -2.44628,2.64635 -0.37125,0.002 -0.675,-1.97849 -0.675,-4.3998 l 0,-4.4024 15.39098,0.1274 15.39098,0.12739 0.28452,3.81793 c 0.34235,4.59383 -0.63975,5.48987 -2.88651,2.63358 -2.01466,-2.56145 -4.91176,-4.20173 -7.4208,-4.20173 -1.77812,0 -1.85917,0.48257 -1.85917,11.07 0,11.48083 0.50968,13.23 3.855,13.23 0.93225,0 1.55658,0.41529 1.38738,0.92287 -0.35305,1.05915 -16.83773,1.77457 -17.466,0.75802 z m 26.62362,-0.2055 c 0,-0.6734 -0.25755,-3.1034 -0.57233,-5.4 -0.47961,-3.49908 -0.33379,-4.17561 0.9,-4.17561 0.80978,0 1.47233,0.55944 1.47233,1.24321 0,0.68376 1.29189,2.50626 2.87086,4.05 3.4664,3.38905 7.18642,3.72146 9.21621,0.82353 2.05075,-2.92786 0.11062,-5.2165 -6.59176,-7.77581 -4.02307,-1.53622 -5.90268,-2.81807 -6.86724,-4.68335 -1.90702,-3.68776 -1.64264,-6.69141 0.84345,-9.5824 1.94098,-2.25709 2.78617,-2.5343 7.96089,-2.61109 3.18415,-0.0472 6.22898,-0.3576 6.76629,-0.68968 0.53731,-0.33208 1.16797,-0.29341 1.40148,0.0859 0.84303,1.36948 1.68708,9.23968 0.99092,9.23968 -0.39231,0 -2.0381,-1.44636 -3.6573,-3.21412 -3.26308,-3.56244 -6.98154,-3.98723 -8.79302,-1.0045 -0.80445,1.32458 -0.59392,1.95709 1.11942,3.36326 1.16061,0.95252 3.63764,2.14316 5.50452,2.64585 1.86688,0.50271 4.50321,2.02289 5.85852,3.37819 2.15676,2.15677 2.41318,2.99504 2.05532,6.7193 -0.29497,3.06979 -1.01051,4.75617 -2.56871,6.05385 -2.87164,2.39153 -7.60558,3.23794 -11.8193,2.11324 -1.90353,-0.50809 -3.64686,-0.56846 -3.9144,-0.13557 -0.7485,1.21105 -2.17615,0.91983 -2.17615,-0.44393 z m 31.06817,-8.90061 c -0.30874,-2.59875 -0.84413,-10.87382 -1.18976,-18.38904 l -0.62841,-13.66404 9.525,-0.61703 c 6.09465,-0.3948 9.53686,-0.98399 9.55793,-1.63596 0.0181,-0.56041 0.31962,-2.46538 0.67002,-4.23326 0.55439,-2.79708 0.22678,-3.75188 -2.52375,-7.35527 -6.22696,-8.15775 -7.72091,-14.1252 -4.30921,-17.21274 1.61038,-1.45738 1.65479,-1.3419 1.24443,3.23551 -0.32472,3.62222 -0.17419,4.50982 0.6354,3.74644 0.78872,-0.74369 1.69834,-0.3973 3.54509,1.35 1.36628,1.29272 3.8726,3.40668 5.56961,4.69771 2.77359,2.11004 3.08548,2.79235 3.08548,6.75 0,3.16286 -0.58751,5.22638 -2.08628,7.32768 l -2.08629,2.925 6.13629,0.0122 c 8.86514,0.0177 10.18442,0.5247 10.19544,3.91768 0.008,2.42862 0.50242,3.02717 3.56296,4.31238 6.33552,2.66047 8.82519,9.59259 5.93205,16.51685 -1.406,3.36501 -6.04328,6.73207 -9.27917,6.73744 -1.71364,0.003 -2.025,0.48769 -2.025,3.15337 l 0,3.15 -17.48523,0 -17.48525,0 -0.56135,-4.725 z m 5.45372,-13.05 c -0.35127,-7.30125 -1.06414,-13.68 -1.58414,-14.175 -0.9479,-0.90231 -0.29771,22.39342 0.72217,25.875 1.18715,4.05253 1.4489,0.49954 0.86197,-11.7 z m 35.88196,3.16778 c 1.92634,-2.75024 1.74684,-6.27696 -0.43891,-8.62308 -3.52093,-3.77927 -4.46494,-2.66675 -4.46494,5.26196 0,6.88934 0.083,7.18724 1.75385,6.29305 0.96461,-0.51625 2.38211,-1.83562 3.15,-2.93193 z m -20.23183,-26.70798 c 1.69795,-5.14484 0.61018,-8.94157 -4.02941,-14.06406 l -4.04928,-4.47074 3.18168,4.95 c 4.38831,6.82727 4.97824,10.21188 2.70599,15.525 -0.37047,0.86625 -0.29007,1.575 0.17866,1.575 0.46873,0 1.37429,-1.58184 2.01236,-3.5152 z m -209.22202,1.75657 c -4.65523,-1.92552 -7.65,-7.54903 -7.65,-14.36493 0,-3.34647 0.59554,-5.12849 2.67175,-7.99462 1.46947,-2.02855 3.40067,-4.07836 4.29157,-4.55516 3.27285,-1.75158 7.93411,-2.0565 11.68454,-0.76437 2.4398,0.84058 4.04736,0.98249 4.62183,0.40801 1.66523,-1.66523 3.32299,1.16627 2.97486,5.08108 -0.41641,4.68244 -1.47466,5.83929 -2.85432,3.12024 -0.59208,-1.16689 -2.33129,-3.25877 -3.8649,-4.64863 -5.49905,-4.98358 -11.42533,-0.17162 -11.42533,9.27701 0,4.41256 1.00124,7.00712 3.90724,10.125 3.1478,3.37731 6.11301,3.17476 10.41455,-0.71142 2.247,-2.03003 3.74972,-2.82599 4.14075,-2.19328 0.6255,1.01208 -1.2301,3.68826 -4.49633,6.48468 -1.96141,1.6793 -11.01815,2.14193 -14.41621,0.73639 z m 19.95533,0.26396 c -0.32706,-0.32707 0.31419,-1.04708 1.425,-1.60003 1.9138,-0.95266 2.0329,-1.6096 2.27213,-12.53241 0.23952,-10.93617 0.15879,-11.55154 -1.575,-12.00493 -4.04557,-1.05795 -1.42155,-2.06796 5.37254,-2.06796 6.77513,0 9.42026,1.00945 5.4,2.06077 -1.52937,0.39995 -1.8,1.22761 -1.8,5.50497 l 0,5.03426 5.44703,0 5.44704,0 -0.27204,-4.725 c -0.22427,-3.89543 -0.62756,-4.88098 -2.29703,-5.61342 -3.69722,-1.62205 -2.10659,-2.26158 5.625,-2.26158 7.05479,0 9.96751,0.98402 5.99087,2.02394 -1.30246,0.34059 -1.78616,1.64917 -2.25,6.08698 -1.30928,12.52649 -0.43659,18.88908 2.59079,18.88908 0.72508,0 1.31834,0.405 1.31834,0.9 0,0.52942 -3.15,0.9 -7.65,0.9 -4.5,0 -7.65,-0.37058 -7.65,-0.9 0,-0.495 0.59325,-0.9 1.31834,-0.9 1.94769,0 3.18166,-2.94402 3.18166,-7.59084 l 0,-4.10916 -5.4,0 -5.4,0 0,5.33935 c 0,4.54892 0.26647,5.42393 1.8,5.91065 0.99,0.31422 1.8,0.949 1.8,1.41065 0,0.94288 -13.76724,1.17212 -14.69467,0.24468 z m 40.62964,-0.95134 c -3.11081,-1.92974 -3.40791,-3.22857 -3.42269,-14.96325 -0.0113,-8.99693 -0.15289,-9.79602 -1.81228,-10.22997 -4.13161,-1.08044 -1.28619,-2.06077 5.98142,-2.06077 l 7.78142,0 -2.38142,2.20702 c -2.24838,2.08374 -2.38142,2.67758 -2.38142,10.6303 0,9.90311 1.35738,12.36268 6.82269,12.36268 5.46687,0 6.96256,-2.337 7.40393,-11.56852 0.39397,-8.2402 -0.51915,-11.83148 -3.00828,-11.83148 -0.72509,0 -1.31834,-0.405 -1.31834,-0.9 0,-0.50769 2.55,-0.9 5.85,-0.9 3.3,0 5.85,0.39231 5.85,0.9 0,0.495 -0.59325,0.9 -1.31834,0.9 -2.23167,0 -3.18166,3.17345 -3.18166,10.62833 0,10.19653 -0.66286,12.65308 -3.9561,14.66125 -3.66093,2.2324 -13.42224,2.32731 -16.90893,0.16441 z m 33.32232,0.17435 c -3.83522,-2.08309 -6.41443,-7.10388 -6.41443,-12.48653 0,-10.44041 7.87788,-17.16701 17.56319,-14.99648 2.16218,0.48455 4.82284,0.64784 5.91259,0.36286 1.88524,-0.49299 1.98136,-0.24611 1.98136,5.08914 l 0,5.60727 -4.32086,-4.60231 c -2.37648,-2.53126 -4.9864,-4.60229 -5.79982,-4.60229 -2.5726,0 -6.14025,3.90347 -6.99187,7.65 -1.23364,5.42723 -0.15512,10.04405 3.16999,13.56969 3.75254,3.97886 6.39531,3.96839 10.38589,-0.0411 3.56002,-3.57692 4.45667,-3.87304 4.45667,-1.4718 0,0.93872 -1.43159,2.96372 -3.18132,4.5 -2.84316,2.49633 -3.77588,2.7894 -8.775,2.75719 -3.10278,-0.02 -6.65917,-0.61475 -7.98639,-1.33562 z m 20.84271,0.57663 c 0,-0.43727 0.77826,-0.99855 1.72945,-1.2473 2.20107,-0.57559 3.08821,-5.95976 2.63312,-15.98084 -0.29563,-6.51002 -0.57199,-7.4787 -2.57189,-9.01526 l -2.24068,-1.72155 7.425,-0.02 c 4.36334,-0.0118 7.425,0.35109 7.425,0.87998 0,0.49501 -0.56417,0.90001 -1.25371,0.90001 -1.68575,0 -2.34997,2.01127 -2.32778,7.04861 l 0.0185,4.20139 3.99692,-4.5 c 3.8874,-4.3767 5.00058,-6.75 3.16607,-6.75 -0.495,0 -0.9,-0.405 -0.9,-0.90001 0,-0.51428 2.7,-0.9 6.3,-0.9 6.84859,0 7.96695,0.83563 3.35184,2.50447 -1.62148,0.58634 -4.74331,2.8952 -6.93738,5.1308 -3.29536,3.35772 -3.67348,4.06474 -2.17387,4.06474 3.16614,0 5.15458,2.31426 7.05891,8.21552 1.29799,4.02232 2.45511,5.99973 3.8755,6.62289 3.41052,1.49628 2.27916,2.26159 -3.34334,2.26159 -6.0935,0 -6.61809,-0.5039 -7.60355,-7.30348 -0.83526,-5.76323 -2.31719,-7.64737 -4.91946,-6.25467 -1.73283,0.92737 -1.96291,1.68825 -1.72875,5.71708 0.21898,3.7678 0.65233,4.837 2.28976,5.64953 1.11082,0.55121 1.75207,1.2698 1.42501,1.59687 -0.90045,0.90038 -14.69471,0.71229 -14.69471,-0.20039 z m 41.01015,-1.45497 c -0.79978,-2.96478 -0.57269,-8.55 0.34762,-8.55 0.47178,0 1.50561,1.36521 2.29742,3.03381 0.7918,1.66859 2.79766,3.76516 4.45749,4.65903 2.85097,1.53535 3.14696,1.54063 5.35259,0.0954 4.43476,-2.90576 1.87895,-6.98078 -5.97619,-9.52851 -6.14558,-1.99324 -8.92276,-8.59854 -5.60613,-13.3337 1.83947,-2.62619 7.63246,-4.15492 11.59681,-3.06032 2.04077,0.56348 3.36813,0.52636 4.00654,-0.11205 1.08806,-1.08806 1.45842,-0.29934 2.33436,4.9713 0.66252,3.9864 -1.19291,4.72702 -3.06746,1.22441 -1.13304,-2.11713 -4.41752,-4.14941 -6.70606,-4.14941 -0.64248,0 -1.9012,0.81 -2.79714,1.8 -1.51297,1.67181 -1.52382,1.91619 -0.15244,3.43155 0.8121,0.89737 3.69243,2.33006 6.40074,3.18378 7.89546,2.48883 10.67774,8.04249 7.08019,14.13266 -2.09129,3.54027 -5.05751,4.53897 -12.62108,4.24939 -5.58609,-0.21386 -6.52749,-0.49129 -6.94726,-2.04738 z m 47.26091,-0.15512 c -0.0391,-1.07531 -2.09323,-4.92281 -4.56477,-8.55 -4.27982,-6.28097 -5.25641,-9.44288 -3.96,-12.82127 0.89949,-2.34403 2.40094,-1.63118 1.7795,0.84486 -0.67268,2.68019 0.45201,5.07139 4.53126,9.63384 3.54628,3.96634 4.45486,6.89881 3.20188,10.33407 -0.79086,2.16829 -0.92658,2.24501 -0.98787,0.5585 z m -58.11869,-17.39106 c -0.30462,-0.49289 0.48426,-1.36917 1.75308,-1.94728 2.13593,-0.9732 2.20056,-1.16867 0.87186,-2.63687 -1.93145,-2.13422 -1.28227,-4.80227 1.25643,-5.16376 5.03983,-0.71763 6.2626,4.64085 1.8972,8.31409 -2.91081,2.44929 -4.85313,2.93123 -5.77857,1.43382 z"
       id="path4144"
       inkscape:connector-curvature="0"
       sodipodi:nodetypes="ssssssssssssssscccssssssssssssscsssscsscsccccsssssscssssssssccsccccsssssssssssssscccscscscscccscsssccccsssssssscscsssssssssccccscscssssssssscscsscscccccssssssscssscsssssssssssssssssssssssssscccssssssssssscccsssssssscsssssssssssscsssscsssssssscccsssccssscssssssssssssssccccssscsssssssssssscccssssscssssss" />
    <path
       style="fill-opacity:1"
       d="m 186.75001,279.96183 c -5.9603,-1.43322 -10.01243,-5.31109 -12.5829,-12.04177 -2.02508,-5.30261 -0.66761,-10.53131 3.92701,-15.12593 8.26154,-8.26153 21.68746,-6.07977 26.79216,4.35383 2.85904,5.84367 2.54366,10.38621 -1.08458,15.62177 -4.09074,5.90294 -10.74354,8.70898 -17.05169,7.1921 z m 11.475,-4.1851 c 3.59882,-2.34829 3.9109,-3.0937 2.44334,-5.83588 -1.24764,-2.33122 -2.1735,-2.19276 -3.40459,0.50917 -1.03232,2.26572 -4.05469,3.06361 -5.11375,1.35 -0.95712,-1.54864 -3.88878,-0.98446 -5.29157,1.01831 -1.7302,2.4702 -3.94742,1.65561 -5.18916,-1.90644 -0.96752,-2.77543 -2.08308,-3.27748 -4.24242,-1.90931 -0.95061,0.6023 -0.47569,1.60232 2.13138,4.48805 5.36718,5.94081 11.84924,6.73467 18.66677,2.2861 z m -4.905,-7.75671 c 1.25457,-1.25457 1.40464,-5.11398 0.26858,-6.9075 -0.97808,-1.5441 -5.03158,-1.61218 -6.83581,-0.1148 -1.78106,1.47816 -1.71907,4.40581 0.13672,6.45643 1.70151,1.88016 4.84004,2.15634 6.43051,0.56587 z m 10.61163,-4.08838 c -0.62415,-0.62414 -2.33163,0.644 -2.33163,1.73169 0,0.59679 0.5164,0.52851 1.37175,-0.18136 0.75446,-0.62615 1.18641,-1.3238 0.95988,-1.55033 z M 180.165,263.50501 c -0.6458,-0.64581 -1.06499,-0.69894 -1.06499,-0.135 0,1.2013 1.06435,2.26565 1.665,1.665 0.25575,-0.25575 -0.0142,-0.94425 -0.60001,-1.53 z m 19.18501,-3.405 c -0.30593,-0.495 -0.96123,-0.9 -1.45623,-0.9 -0.495,0 -0.6497,0.405 -0.34377,0.9 0.30593,0.495 0.96122,0.9 1.45622,0.9 0.495,0 0.64971,-0.405 0.34378,-0.9 z m -18.45,-2.34629 c 0,-0.19454 -0.6075,-0.35371 -1.35,-0.35371 -0.7425,0 -1.35,0.39229 -1.35,0.87176 0,0.47945 0.6075,0.63863 1.35,0.35371 0.7425,-0.28493 1.35,-0.67722 1.35,-0.87176 z m 7.2,-2.3602 c 0,-0.52678 -0.57187,-0.43931 -1.35,0.20649 -0.7425,0.61622 -1.35,1.2606 -1.35,1.43195 0,0.17135 0.6075,0.0784 1.35,-0.20648 0.7425,-0.28493 1.35,-0.92931 1.35,-1.43196 z m 9,-1.69974 c 0,-0.495 -0.405,-0.6497 -0.9,-0.34377 -0.495,0.30593 -0.9,0.96123 -0.9,1.45623 0,0.495 0.405,0.6497 0.9,0.34377 0.495,-0.30593 0.9,-0.96123 0.9,-1.45623 z m -7.2,-2.59377 c -1.76254,-1.13904 -2.95396,-1.13904 -2.25,0 0.30593,0.495 1.24108,0.8938 2.07812,0.88622 1.31154,-0.0119 1.3353,-0.13436 0.17188,-0.88622 z m 145.575,27.67837 c -3.65495,-1.10528 -6.075,-2.32894 -6.075,-3.07176 0,-1.02269 4.36462,-1.19361 25.425,-0.99562 16.19066,0.1522 25.425,0.56589 25.425,1.13901 0,0.495 -2.6325,1.78164 -5.85,2.8592 -8.27685,2.77197 -29.86043,2.81032 -38.925,0.0691 z m -196.30908,-0.49081 c -0.30442,-0.49255 0.4171,-1.13915 1.60337,-1.43689 2.04721,-0.51381 2.18918,-1.0156 2.79276,-9.87093 0.74782,-10.97139 0.12889,-14.79372 -2.57183,-15.88305 -2.45569,-0.99051 -2.10134,-1.02508 9.30978,-0.90824 12.03182,0.12319 16.04851,1.77116 18.956,7.77724 3.51413,7.25923 1.30111,14.74913 -5.55008,18.78406 -2.46976,1.45453 -5.06329,1.86051 -13.52122,2.11656 -6.32634,0.19151 -10.6842,-0.0373 -11.01878,-0.57875 z m 21.40408,-4.75662 c 1.93753,-2.30263 2.33,-3.67451 2.33,-8.14469 0,-8.46629 -3.54684,-13.38625 -9.65026,-13.38625 l -2.94974,0 0,11.55 c 0,6.3525 0.27,11.82 0.6,12.15 0.32999,0.33 2.11649,0.6 3.96999,0.6 2.65825,0 3.8621,-0.58483 5.70001,-2.76906 z m 89.75545,4.60889 c -5.39173,-1.34271 -5.92802,-2.55564 -6.42545,-14.53232 -0.39924,-9.61253 -0.65305,-10.95443 -2.25,-11.89611 -1.52756,-0.90075 -0.77836,-1.13602 4.95,-1.55443 3.7125,-0.27116 6.885,-0.40616 7.05,-0.3 0.165,0.10617 -0.54375,1.03678 -1.575,2.06803 -1.65,1.65 -1.875,2.955 -1.875,10.875 0,10.6551 1.11136,12.6 7.2,12.6 6.15093,0 7.2,-1.90032 7.2,-13.04238 0,-8.46767 -0.1858,-9.5584 -1.8,-10.56648 -2.74139,-1.71203 -2.23348,-2.04114 3.15,-2.04114 2.7225,0 4.95,0.21374 4.95,0.47498 0,0.26125 -0.81,1.16853 -1.8,2.01619 -1.54861,1.32596 -1.8,2.65495 -1.8,9.51572 0,9.50431 -1.12408,13.24735 -4.5031,14.99471 -3.32133,1.71753 -8.73109,2.31971 -12.47145,1.38823 z m 56.31841,0.27384 c -0.42762,-0.6919 -0.94447,-7.56625 -0.72732,-9.67371 0.0459,-0.44551 1.31199,0.8859 2.81352,2.95871 1.50153,2.07281 3.72904,4.14855 4.95,4.61276 4.55954,1.73354 8.91616,-2.20777 6.80363,-6.15505 -0.50381,-0.94139 -3.37699,-2.63195 -6.38485,-3.75681 -6.23065,-2.33011 -8.09884,-4.41608 -8.09884,-9.04294 0,-5.56788 6.87569,-9.5041 12.72009,-7.28206 1.57155,0.5975 2.65405,0.5913 3.26406,-0.0187 1.15786,-1.15786 1.78807,-0.13121 2.02211,3.29414 0.30013,4.39267 0.0914,4.61515 -2.03236,2.16641 -4.12896,-4.76078 -8.59014,-5.42308 -10.64659,-1.58059 -1.34035,2.50447 0.82871,4.73795 6.01017,6.18867 7.99794,2.23929 11.12119,7.46402 8.03239,13.43708 -2.18472,4.22478 -6.8398,5.93918 -12.54854,4.62145 -3.29833,-0.76135 -4.60086,-0.76335 -5.06782,-0.008 -0.34568,0.55932 -0.84502,0.66661 -1.10965,0.23843 z m -97.86927,-1.31555 c 3.29207,-1.31378 3.59655,-2.26767 3.61163,-11.31453 0.0161,-9.68025 -0.84365,-12.51717 -4.24508,-14.00696 -2.40847,-1.05488 -2.3369,-1.10063 2.15631,-1.37821 4.58604,-0.28332 4.70498,-0.22441 9,4.45742 2.39391,2.60949 6.06441,6.5782 8.15669,8.81935 l 3.80413,4.07481 0.0209,-7.44727 c 0.0203,-7.27347 -0.0369,-7.47223 -2.45413,-8.51608 l -2.475,-1.06879 3.39507,-0.31445 c 1.86729,-0.17295 4.70229,-0.16949 6.3,0.008 l 2.90493,0.32216 -2.475,1.06109 -2.475,1.06109 0,12.62227 c -2e-5,10.13953 -0.2446,12.62188 -1.24364,12.62188 -0.68399,0 -3.82274,-2.92361 -6.975,-6.49691 -3.15226,-3.57331 -7.03667,-7.92706 -8.63203,-9.675 l -2.90064,-3.17809 -0.0244,7.25298 c -0.025,7.44658 0.60942,9.18923 4.02564,11.05776 1.4326,0.78357 0.42224,0.97847 -4.95,0.95485 -5.36158,-0.0236 -6.29242,-0.21229 -4.5254,-0.91747 z m 71.57541,0.10188 c 0.30593,-0.495 1.14985,-0.9 1.87539,-0.9 2.80512,0 3.73072,-6.95866 2.4964,-18.76798 -0.56582,-5.41341 -0.6359,-5.53202 -3.26873,-5.53202 -1.91922,0 -3.5595,0.92138 -5.72179,3.21408 l -3.03127,3.21408 0,-3.61096 c 0,-1.98603 0.32327,-3.81076 0.71839,-4.05496 0.39511,-0.24419 7.17886,-0.53056 15.075,-0.63638 l 14.35661,-0.1924 0.27928,4.30491 0.27928,4.3049 -3.08555,-3.27164 c -2.28368,-2.4214 -3.82487,-3.27163 -5.9304,-3.27163 l -2.84485,0 0.25111,11.91389 c 0.23407,11.10425 0.37346,11.93587 2.05113,12.23736 0.99,0.1779 2.18475,0.68916 2.655,1.1361 0.51177,0.48643 -2.67088,0.81265 -7.92812,0.81265 -5.62622,0 -8.58319,-0.32349 -8.22688,-0.9 z m 56.85542,-9.65603 c -0.30613,-3.35168 -0.83211,-11.67096 -1.16884,-18.48727 l -0.61224,-12.3933 19.26283,0.2433 19.26283,0.2433 0.27878,2.88142 c 0.18472,1.90929 0.86954,3.06892 2.02985,3.43719 3.08196,0.97818 6.99025,4.89643 8.03176,8.05227 2.08161,6.30734 -2.31824,13.86367 -8.91628,15.31284 -2.18971,0.48094 -2.71885,1.10072 -2.94655,3.45125 l -0.27756,2.86503 -17.19399,0.24397 -17.194,0.24398 z m 6.21477,-4.51897 c -0.26884,-3.34125 -0.73648,-9.6398 -1.03919,-13.99677 -0.37568,-5.40736 -0.88058,-7.80759 -1.59069,-7.56206 -1.08062,0.37366 -1.08442,1.13914 -0.0895,17.95883 0.45164,7.63466 0.85027,9.675 1.89023,9.675 1.0753,0 1.22791,-1.11824 0.82908,-6.075 z m 34.00844,-2.09032 c 3.30483,-2.59958 3.32978,-8.05809 0.0518,-11.33604 -1.27575,-1.27575 -2.64248,-1.9661 -3.03718,-1.5341 -0.3947,0.432 -0.93968,3.92421 -1.21105,7.76046 -0.54694,7.73158 0.006,8.40546 4.1964,5.10968 z M 148.95001,233.51986 c -5.59744,-2.77624 -8.61471,-10.40977 -6.74881,-17.07412 1.61008,-5.75066 6.00771,-9.59551 11.5884,-10.13174 2.47026,-0.23737 5.80751,0.0273 7.41612,0.588 2.25341,0.78555 3.08215,0.76485 3.61058,-0.0901 1.00056,-1.61895 1.36957,-0.81275 2.04278,4.46316 0.70916,5.55762 -0.2845,6.06435 -3.06611,1.56361 -3.55658,-5.75466 -8.32471,-6.61223 -12.06296,-2.16955 -1.92639,2.28938 -2.33,3.68234 -2.33,8.04141 0,6.14583 0.91085,8.99104 3.71457,11.6031 3.0554,2.84655 7.51425,2.49607 10.86427,-0.85395 2.80433,-2.80434 4.56512,-2.89158 2.85488,-0.14146 -3.14211,5.05262 -11.98112,7.1293 -17.88372,4.20169 z m 20.25,0.58512 c 0,-0.43727 0.78212,-0.99956 1.73807,-1.24955 1.55172,-0.40579 1.76882,-1.45429 2.025,-9.77997 0.3675,-11.94423 0.0262,-14.39449 -2.08216,-14.94582 -3.81922,-0.99875 -1.24456,-2.02963 5.06909,-2.02963 3.89999,0 6.75,0.38 6.75,0.9 0,0.495 -0.6075,0.9 -1.35,0.9 -1.383,0 -1.82886,2.43909 -1.39841,7.65 0.26409,3.19692 1.31129,4.01766 5.1498,4.03622 5.0944,0.0247 5.69861,-0.61331 5.69861,-6.01677 0,-4.18107 -0.27591,-5.01012 -1.8,-5.40868 -4.02027,-1.05132 -1.37513,-2.06077 5.4,-2.06077 4.2,0 7.2,0.375 7.2,0.9 0,0.495 -0.59326,0.9 -1.31834,0.9 -2.41137,0 -3.18166,3.38342 -3.18166,13.97509 0,9.73652 0.12983,10.52737 1.8,10.96413 3.92796,1.02719 1.44526,2.06078 -4.95,2.06078 -3.9,0 -6.75,-0.38 -6.75,-0.9 0,-0.495 0.56417,-0.9 1.25371,-0.9 1.70237,0 2.34629,-2.00796 2.34629,-7.31655 l 0,-4.46934 -5.625,0.26794 -5.625,0.26795 -0.28763,3.51421 c -0.38028,4.64621 0.46034,7.73579 2.10477,7.73579 0.73307,0 1.33286,0.405 1.33286,0.9 0,0.52 -2.85001,0.9 -6.75,0.9 -3.7125,0 -6.75,-0.35777 -6.75,-0.79503 z m 41.74591,-0.44645 c -3.77588,-1.71007 -4.84591,-5.2172 -4.84591,-15.88305 0,-8.06167 -0.16056,-8.86792 -2.025,-10.16849 -1.90969,-1.33214 -1.5894,-1.41412 5.625,-1.43976 7.56786,-0.0269 7.62719,-0.01 5.52619,1.60619 -1.97575,1.51952 -2.12902,2.2729 -2.19849,10.8065 -0.0839,10.29855 0.96279,12.49444 6.1223,12.84493 7.00567,0.4759 8.55,-1.90107 8.55,-13.15982 0,-8.28813 -0.47014,-10.36502 -2.34629,-10.36502 -0.68954,0 -1.25371,-0.405 -1.25371,-0.9 0,-0.495 2.2275,-0.9 4.95,-0.9 2.7225,0 4.95,0.405 4.95,0.9 0,0.495 -0.56417,0.9 -1.25371,0.9 -1.87026,0 -2.33701,2.04031 -2.436,10.64861 -0.11082,9.6363 -0.65161,11.65269 -3.74462,13.96195 -3.10653,2.31937 -11.64728,2.94706 -15.61976,1.14796 z m 33.01806,-0.28368 c -4.65823,-2.45263 -6.64644,-5.76965 -7.03558,-11.73775 -0.40167,-6.16038 1.49941,-10.39147 6.07115,-13.51209 3.23546,-2.20849 8.93546,-2.68952 13.10135,-1.10565 1.63316,0.62093 2.77457,0.62346 3.5164,0.008 0.60408,-0.50135 1.36481,-0.64505 1.69052,-0.31935 0.95501,0.95471 0.67883,9.2919 -0.30781,9.2919 -0.495,0 -0.9,-0.39091 -0.9,-0.86868 0,-0.47778 -1.25696,-2.30028 -2.79323,-4.05 -6.77784,-7.71954 -14.83144,-0.51883 -13.00937,11.63163 1.32739,8.85164 8.82036,12.24603 14.62127,6.62356 1.6249,-1.57491 3.24393,-2.57391 3.59785,-2.21999 0.35391,0.35392 -0.82605,2.113 -2.62213,3.9091 -2.77476,2.77474 -3.98553,3.31885 -8.055,3.61983 -3.42451,0.25328 -5.66884,-0.10882 -7.87542,-1.27061 z m 20.63603,0.62516 c 0,-0.495 0.56417,-0.9 1.25371,-0.9 1.95348,0 2.34629,-2.10948 2.34629,-12.6 0,-10.49053 -0.39281,-12.6 -2.34629,-12.6 -0.68954,0 -1.25371,-0.405 -1.25371,-0.9 0,-0.51429 2.7,-0.9 6.3,-0.9 5.88904,0 8.05983,0.93211 4.95,2.12547 -0.98799,0.37912 -1.3448,1.91331 -1.33059,5.72129 l 0.0194,5.20324 4.65142,-4.83717 c 4.17937,-4.34626 4.49707,-4.95002 3.13059,-5.94921 -2.54307,-1.85952 -1.77022,-2.26362 4.32914,-2.26362 5.80921,0 7.77787,1.121 3.74585,2.13297 -1.15729,0.29046 -4.09354,2.38878 -6.525,4.66295 l -4.42085,4.13482 2.85413,1.21139 c 3.20926,1.36211 4.3399,3.09577 6.28031,9.62981 0.89596,3.01705 1.92505,4.68211 3.0805,4.98427 3.42606,0.89593 1.64075,2.04379 -3.17881,2.04379 l -4.91388,0 -0.93612,-3.6 -1.87226,-7.2 c -0.91627,-3.52365 -1.93716,-4.16773 -4.84026,-3.05371 -1.07878,0.41396 -1.42361,1.85137 -1.42361,5.93426 0,4.63106 0.25286,5.45409 1.8,5.85867 3.92796,1.02719 1.44527,2.06078 -4.95,2.06078 -3.9,0 -6.75,-0.38 -6.75,-0.9 z m 40.49009,-0.675 c -0.005,-0.86625 -0.26093,-3.09375 -0.56775,-4.95 -0.71127,-4.30321 0.69514,-4.39993 3.16282,-0.21752 3.14732,5.33431 9.53395,6.5044 11.85283,2.17154 1.50063,-2.80395 -0.94887,-5.78904 -6.17466,-7.52477 -5.74048,-1.90669 -8.62333,-4.98082 -8.62333,-9.19549 0,-2.42775 0.62729,-3.7816 2.49752,-5.39031 2.19948,-1.8919 3.29496,-2.12768 9.18,-1.97575 l 6.68248,0.17252 0,3.95648 0,3.95646 -3.03127,-3.21408 c -3.28677,-3.48499 -7.52048,-4.33207 -9.53285,-1.90732 -2.08338,2.51032 -0.61542,4.46944 5.08561,6.78721 9.03265,3.67226 11.37894,7.09081 8.91466,12.98867 -2.12664,5.08976 -8.55952,7.27065 -14.63384,4.96121 -1.77504,-0.67488 -2.60863,-0.67488 -2.83359,0 -0.51597,1.54792 -1.96785,1.09381 -1.97863,-0.61885 z m 50.04208,-2.475 c 0.48849,-4.10338 0.28244,-4.8173 -2.33774,-8.1 -3.49232,-4.37537 -6.29443,-9.69167 -6.29443,-11.94213 0,-0.91511 0.60035,-2.45 1.33411,-3.41085 1.25568,-1.64431 1.30631,-1.5883 0.86139,0.95298 -0.37268,2.12861 0.48776,4.3185 4.06589,10.34793 4.75482,8.01226 5.33899,10.67893 3.15495,14.40207 -1.25227,2.13476 -1.29243,2.01952 -0.78417,-2.25 z m 3.5934,1.20387 c 1.97424,-3.81775 0.62303,-8.31729 -4.15573,-13.83873 -4.12705,-4.76843 -4.68867,-6.56216 -1.09484,-3.49674 1.36125,1.1611 3.82878,3.2518 5.48341,4.646 2.34206,1.97344 3.02903,3.26266 3.10153,5.82061 0.0907,3.20145 -2.64991,9.71499 -4.08771,9.71499 -0.39515,0 -0.0562,-1.28075 0.75334,-2.84613 z m -7.10152,-1.45867 c -0.28241,-1.41201 -2.15835,-4.75642 -4.16876,-7.43203 -2.0104,-2.6756 -3.70012,-5.48313 -3.75491,-6.23895 -0.20359,-2.80837 0.27844,-5.89921 1.04435,-6.69654 0.45599,-0.4747 0.57784,0.48458 0.28825,2.26914 -0.43892,2.70468 0.0268,3.73347 3.72268,8.22275 3.29703,4.00488 4.22434,5.84133 4.22434,8.36585 0,4.09113 -0.68675,4.8558 -1.35595,1.50978 z m -56.42405,-15.16767 c 0,-0.34969 0.67027,-1.37644 1.48949,-2.28167 1.38598,-1.53149 1.38598,-1.76023 0,-3.29173 -1.91415,-2.11511 -1.87535,-2.58429 0.31051,-3.75413 2.32623,-1.24496 5.4,0.28999 5.4,2.69661 0,1.74222 -2.69436,4.81193 -5.625,6.40862 -0.86625,0.47196 -1.575,0.57199 -1.575,0.2223 z"
       id="path4142"
       inkscape:connector-curvature="0"
       sodipodi:nodetypes="sssssssssssssssssssssssscsscsssssssscsssscsssssssscscsssscccssssssscssscscsssssscsssssssssssccsssssssssssssccccsssssccscsccccsssscsssccssssscssscccsscsccsssscccssssscccscscsscccssscccssccsssssssccsssssssscssssssssssscccssssssssscssssssssssscsssccsssssssscccssssssscssssscssssccssssscccssssssscccsssssscsssssssscssscscsssssssssssssss" />
    <path
       style="fill-opacity:1"
       d="m 336.60001,278.86779 c -5.39731,-1.68941 -8.80936,-3.45764 -6.705,-3.47474 12.2876,-0.0998 47.96226,-0.16942 48.78,-0.0952 2.85643,0.25932 0.54272,1.71284 -5.60602,3.52183 -9.30467,2.73748 -27.79903,2.76187 -36.46898,0.0481 z m -154.2927,-1.00759 c -4.47163,-2.5373 -8.44134,-8.88537 -8.53656,-13.65105 -0.0916,-4.58574 2.75217,-10.38776 6.45169,-13.163 2.49648,-1.87276 3.92153,-2.19615 9.67757,-2.19615 6.00847,0 7.11183,0.27681 10.04372,2.51983 4.20156,3.21436 6.15628,7.36468 6.15628,13.07122 0,3.71365 -0.52562,5.21317 -2.94934,8.41398 -5.35431,7.07104 -13.67937,9.07015 -20.84336,5.00517 z m 13.24661,-0.0859 c 4.2435,-1.79609 6.37745,-4.53144 5.68561,-7.28796 -0.72986,-2.90801 -2.61518,-2.92318 -4.50676,-0.0363 -1.69778,2.59113 -2.25476,2.71357 -4.58685,1.0083 -1.62818,-1.19055 -1.58969,-1.33496 0.93467,-3.50631 2.30602,-1.98356 2.52336,-2.57186 1.7511,-4.74009 -1.14803,-3.22327 -3.17044,-4.42319 -6.18134,-3.66751 -4.34691,1.09101 -4.80406,7.08982 -0.69954,9.17957 1.89711,0.96589 1.89134,0.99472 -0.69578,3.47332 -3.02794,2.90095 -4.0294,2.57242 -5.47066,-1.79467 -0.88103,-2.66954 -1.35501,-3.07774 -2.99066,-2.57565 -2.77872,0.85297 -2.78562,0.88569 -0.87616,4.15514 3.41989,5.85567 11.34041,8.45691 17.63637,5.79212 z m 8.57734,-13.11797 c 0.225,-0.675 -0.1125,-1.0125 -0.7875,-0.7875 -0.64969,0.21656 -1.35844,0.92531 -1.575,1.575 -0.225,0.675 0.1125,1.0125 0.7875,0.7875 0.64968,-0.21657 1.35843,-0.92532 1.575,-1.575 z m -24.015,-2.1 c -1.49838,-1.49838 -2.34701,-0.01 -0.9524,1.67069 0.84346,1.01631 1.33127,1.13768 1.5795,0.39299 0.19753,-0.59258 -0.0847,-1.52125 -0.6271,-2.06368 z m 19.68375,-1.50316 c 0,-1.06188 -1.75532,-2.1978 -2.40001,-1.55312 -0.64467,0.64469 0.49125,2.4 1.55313,2.4 0.46578,0 0.84688,-0.3811 0.84688,-0.84688 z m -18.9,-3.20312 c 1.43601,-1.7303 -0.0291,-1.7485 -2.30299,-0.0286 -1.46768,1.1101 -1.5128,1.32595 -0.28221,1.35 0.80564,0.0158 1.96898,-0.57888 2.5852,-1.32138 z m 7.2,-1.8 c 0.91208,-1.099 0.86681,-1.35 -0.24352,-1.35 -0.75015,0 -1.59702,0.6075 -1.88195,1.35 -0.28492,0.7425 -0.17534,1.35 0.24351,1.35 0.41885,0 1.26574,-0.6075 1.88196,-1.35 z m 9,-1.8 c 0.62498,-0.75307 0.72245,-1.35 0.2204,-1.35 -0.495,0 -1.40418,0.6075 -2.0204,1.35 -0.62499,0.75307 -0.72245,1.35 -0.2204,1.35 0.495,0 1.40418,-0.6075 2.0204,-1.35 z m -6.75,-3.15 c -0.30593,-0.495 -1.16373,-0.9 -1.90623,-0.9 -0.7425,0 -1.0997,0.405 -0.79377,0.9 0.30593,0.495 1.16372,0.9 1.90622,0.9 0.7425,0 1.09971,-0.405 0.79378,-0.9 z m -49.95,26.41539 c 3.05136,-1.18088 3.60009,-3.28669 3.58622,-13.76241 -0.014,-10.58482 -0.29611,-11.94491 -2.68622,-12.9518 -0.7425,-0.31279 3.3075,-0.45796 9,-0.3226 11.68715,0.2779 15.09528,1.46647 18.03643,6.29011 1.97485,3.23886 2.39301,10.92533 0.77871,14.31397 -0.54167,1.13704 -2.24524,3.07984 -3.78572,4.31734 -2.63121,2.11371 -3.51194,2.26175 -14.54015,2.44392 -6.4566,0.10666 -11.13177,-0.0412 -10.38927,-0.32853 z m 18.62926,-2.07771 c 5.06911,-3.09082 6.11997,-12.96289 2.08598,-19.59626 -1.95219,-3.21012 -8.42562,-5.69105 -10.20544,-3.91122 -1.46688,1.46688 -1.99729,22.24799 -0.61051,23.91896 1.54534,1.86201 5.29085,1.68548 8.72997,-0.41148 z m 50.67074,1.49934 c 2.17405,-1.09808 2.2586,-1.47873 2.50484,-11.27612 l 0.25485,-10.13968 -2.66062,-2.6606 -2.66061,-2.66062 3.86339,0 c 3.75446,0 4.08874,0.25174 11.85577,8.92833 4.39581,4.91059 8.29613,8.96059 8.66738,9 1.04346,0.11079 0.79716,-12.41841 -0.28383,-14.43827 -0.52737,-0.98537 -1.84362,-2.14808 -2.925,-2.58378 -1.40989,-0.56805 -0.18374,-0.79219 4.33383,-0.79219 4.67693,0 5.77493,0.21095 4.26191,0.8188 -3.07165,1.23402 -3.81191,4.42045 -3.81191,16.40836 l 0,10.92406 -3.65808,-3.55765 c -2.01193,-1.95671 -5.94072,-6.29141 -8.73064,-9.63266 -2.78991,-3.34125 -5.39628,-6.075 -5.79192,-6.075 -0.91715,0 -0.92186,14.48807 -0.005,15.93017 0.37765,0.59409 1.6877,1.47966 2.91122,1.96795 1.79168,0.71502 0.9986,0.8963 -4.07541,0.93156 -5.64698,0.0392 -6.06678,-0.074 -4.05,-1.09266 z m 37.77526,-0.35986 c -3.43668,-2.35185 -3.54679,-2.7693 -3.56148,-13.50113 -0.0129,-9.38188 -0.1512,-10.17022 -2.01404,-11.475 -1.87979,-1.31666 -1.56816,-1.39759 5.175,-1.34398 5.03395,0.0401 6.59234,0.29203 5.22195,0.84447 -1.55335,0.6262 -2.08348,1.82939 -2.58911,5.87632 -0.86072,6.88896 0.1636,14.87948 2.16495,16.88852 1.94964,1.95711 8.34491,2.40351 10.36889,0.72376 1.99853,-1.65864 3.24766,-6.76739 3.25356,-13.30653 0.006,-6.52286 -1.05581,-9.86684 -3.31887,-10.45336 -0.89436,-0.23178 0.79276,-0.46841 3.74915,-0.52583 4.96522,-0.0964 5.23158,-0.004 3.49187,1.21477 -1.6714,1.17069 -1.93007,2.45258 -2.29827,11.38907 -0.41071,9.96826 -0.44383,10.09575 -3.28108,12.63083 -2.50338,2.23677 -3.57953,2.56093 -8.50172,2.56093 -3.81689,0 -6.35367,-0.49144 -7.8608,-1.52284 z m 34.67474,0.44739 c 0.99,-0.5614 2.09755,-1.46033 2.46122,-1.99764 1.1425,-1.68797 0.8191,-22.83347 -0.3552,-23.2249 -3.20765,-1.06922 -8.85599,1.68542 -9.99097,4.8725 -0.84527,2.37353 -1.66264,-0.0891 -1.07292,-3.23255 l 0.60819,-3.24196 14.20355,0 c 15.37895,0 15.29613,-0.0277 15.29613,5.11879 l 0,2.27157 -2.61109,-2.79518 c -2.09955,-2.24758 -3.33378,-2.79518 -6.3,-2.79518 l -3.68891,0 0,7.97439 c 0,12.64703 0.70357,16.09569 3.49242,17.1187 1.81985,0.66756 0.51007,0.87477 -5.74242,0.90849 -6.48132,0.0349 -7.7403,-0.16029 -6.3,-0.97703 z m 24.28845,0.0199 c -0.30712,-0.80033 -0.43015,-2.97441 -0.27342,-4.83131 l 0.28497,-3.37617 2.25,3.47791 c 2.83787,4.38659 6.96023,5.83896 10.32167,3.63646 2.67074,-1.74993 3.00263,-5.05751 0.70333,-7.00931 -0.86625,-0.73533 -3.49439,-2.04493 -5.84032,-2.91023 -7.26358,-2.67917 -9.86125,-8.25617 -6.11656,-13.13178 1.57068,-2.04504 2.37338,-2.25871 8.81167,-2.34565 l 7.08357,-0.0957 0.20142,3.41375 0.20143,3.41375 -3.09311,-3.0931 c -3.27687,-3.27687 -6.30029,-3.91848 -9.03655,-1.91767 -0.98651,0.72135 -1.48756,2.02241 -1.29702,3.36797 0.24665,1.74183 1.45348,2.65651 5.87079,4.44957 7.63051,3.09736 9.28968,4.79704 9.28968,9.51651 0,3.17248 -0.47568,4.23077 -2.76905,6.16052 -3.03251,2.55168 -9.21857,3.20273 -12.70458,1.33707 -1.41819,-0.75899 -2.02894,-0.71192 -2.59241,0.19979 -0.58651,0.949 -0.85122,0.89538 -1.29551,-0.26243 z m 32.54534,-4.58532 c -1.35061,-0.98758 -1.63458,-3.4691 -2.11346,-18.46908 l -0.55322,-17.3282 18.36645,0.24408 18.36644,0.24408 0.28587,2.97661 c 0.17484,1.82036 0.87403,3.16305 1.8,3.45661 5.80956,1.84172 9.16413,6.04868 9.16413,11.4927 0,6.12681 -3.90985,10.83436 -9.53087,11.47539 -2.31266,0.26374 -2.65181,0.69361 -2.89846,3.67369 l -0.27932,3.375 -15.52366,0 c -11.11363,0 -15.96689,-0.32411 -17.0839,-1.14088 z m 4.41576,-13.93411 c -0.77337,-15.25607 -1.24703,-18.225 -2.90761,-18.225 -1.15683,0 -1.26975,1.57654 -0.78966,11.025 0.80167,15.77758 1.2506,18.675 2.8935,18.675 1.20527,0 1.30981,-1.49249 0.80377,-11.475 z m 34.57756,2.4979 c 2.4226,-2.42261 3.13864,-5.84641 1.86549,-8.92005 -0.99213,-2.39524 -4.92979,-5.41565 -5.85462,-4.49083 -0.2281,0.22811 -0.69194,3.73871 -1.03075,7.80135 -0.59573,7.14333 -0.55247,7.38663 1.31337,7.38663 1.06117,0 2.7291,-0.7997 3.70651,-1.7771 z M 150.8783,233.97462 c -5.93231,-1.77775 -9.03634,-7.01562 -8.50562,-14.35277 0.65718,-9.08538 6.79674,-14.41138 15.0333,-13.04125 2.27922,0.37914 5.25778,0.68674 6.61903,0.68355 2.3812,-0.005 2.47396,0.16837 2.44763,4.59003 -0.023,3.8467 -0.18925,4.30242 -1.02047,2.79583 -3.74049,-6.77971 -9.63105,-8.75293 -13.77098,-4.61301 -2.70093,2.70093 -3.80803,9.32175 -2.36444,14.14002 2.588,8.63799 9.11248,10.96471 14.93143,5.32475 1.73351,-1.68017 3.15183,-2.57042 3.15183,-1.97831 0,1.63504 -3.39388,4.68227 -6.79998,6.10543 -3.3737,1.40963 -5.87475,1.49857 -9.72173,0.34573 z m 18.63189,-0.19961 c -0.22902,-0.37125 0.37025,-0.675 1.33173,-0.675 2.3612,0 2.8338,-2.25285 2.83201,-13.5 -0.002,-9.65754 -0.31213,-11.04495 -2.67392,-11.944 -0.7425,-0.28265 1.6875,-0.5202 5.4,-0.52791 4.90618,-0.0102 6.19685,0.20834 4.725,0.79995 -1.78861,0.71893 -2.025,1.45253 -2.025,6.28408 l 0,5.47012 6.075,-0.26612 c 5.96716,-0.2614 6.0803,-0.31258 6.37349,-2.88326 0.54517,-4.77984 -0.62658,-8.48398 -2.80326,-8.86173 -1.09738,-0.19044 1.14446,-0.52061 4.98186,-0.73369 6.63738,-0.36858 9.06499,0.20553 5.17291,1.22333 -1.68795,0.44141 -1.8,1.22761 -1.8,12.62997 0,8.8853 0.30291,12.28148 1.125,12.61321 0.61875,0.24967 -1.305,0.47972 -4.275,0.51122 -2.97,0.0315 -4.94246,-0.24028 -4.38324,-0.60395 0.55922,-0.36367 1.3031,-3.15257 1.65308,-6.19756 l 0.63632,-5.53634 -2.79764,-0.61447 c -1.5387,-0.33795 -4.40883,-0.34225 -6.37808,-0.01 l -3.58044,0.60491 0,5.27617 c 0,4.07545 0.35842,5.48493 1.575,6.19352 1.86869,1.08841 2.12972,1.02387 -5.0367,1.24547 -3.14143,0.0971 -5.89909,-0.12713 -6.12812,-0.49838 z m 43.97795,0.239 c -5.74156,-1.36033 -6.30812,-2.59337 -6.63942,-14.44995 -0.25252,-9.03717 -0.5491,-10.87319 -1.91783,-11.87241 -1.39032,-1.01498 -0.63019,-1.1907 5.37895,-1.24349 5.14986,-0.0453 6.48945,0.16549 5.07224,0.79787 -2.44339,1.09027 -2.95749,3.08133 -2.95749,11.45398 0,8.72335 0.55829,10.58978 3.64511,12.18604 3.64912,1.88702 6.6686,1.62476 9.51866,-0.82675 2.4095,-2.07257 2.48987,-2.43221 2.52518,-11.29934 0.0345,-8.66232 -0.0819,-9.248 -2.14699,-10.80769 l -2.18345,-1.64905 4.64261,0.07 c 4.36676,0.0659 4.55773,0.16383 3.21405,1.64858 -1.03614,1.1449 -1.5624,4.20081 -1.91575,11.12428 -0.55706,10.91469 -1.71431,13.28322 -7.23994,14.81787 -3.7503,1.04159 -4.78651,1.04735 -8.99593,0.05 z m 31.71725,-0.37994 c -8.37924,-3.64976 -11.08831,-15.15674 -5.21236,-22.13989 3.57703,-4.25107 7.0789,-5.70656 11.93112,-4.95896 2.26922,0.34963 5.20262,0.65723 6.51866,0.68357 2.13108,0.0427 2.45841,0.48531 2.99252,4.04703 0.32984,2.19954 0.41303,4.18585 0.18485,4.41401 -0.22817,0.22817 -1.30725,-1.02907 -2.39795,-2.79387 -2.30616,-3.73144 -4.29219,-4.98595 -7.89335,-4.98595 -5.39357,0 -8.18514,5.63142 -7.14502,14.41362 0.64476,5.44399 2.03364,7.69977 5.85815,9.51462 3.60099,1.70878 7.2249,0.61905 10.10111,-3.03746 0.98015,-1.24607 1.9846,-2.06307 2.2321,-1.81557 0.85326,0.85326 -3.13376,5.00002 -6.21175,6.46062 -3.69503,1.75341 -7.24041,1.81755 -10.95808,0.19823 z m 20.29462,0.23723 c 0,-0.31829 0.6075,-0.81183 1.35,-1.09676 1.10401,-0.42365 1.35,-2.64575 1.35,-12.19525 0,-10.5854 -0.16526,-11.79297 -1.76751,-12.91523 -1.57248,-1.1014 -1.16577,-1.21341 3.68592,-1.01511 2.9994,0.1226 5.68477,0.45424 5.96752,0.73698 0.28273,0.28274 0.0416,0.51408 -0.53593,0.51408 -0.70033,0 -1.03639,2.02308 -1.00915,6.075 l 0.0409,6.075 4.45914,-4.89641 c 4.85917,-5.33565 5.16102,-6.09193 3.04805,-7.63697 -1.11657,-0.81647 -0.27146,-1.02502 4.04897,-0.99923 3.00303,0.0179 5.46053,0.33636 5.4611,0.70761 5.6e-4,0.37125 -0.63071,0.675 -1.40284,0.675 -1.47714,0 -11.19613,8.70719 -11.19613,10.03055 0,0.4232 0.99672,0.76945 2.21494,0.76945 3.05653,0 5.3245,2.74053 6.69577,8.09097 0.67156,2.62025 1.96657,5.09147 3.07497,5.86783 1.80198,1.26215 1.64032,1.3412 -2.74312,1.3412 -4.61589,0 -4.66642,-0.0305 -5.59524,-3.375 -0.5155,-1.85625 -0.93954,-4.20884 -0.9423,-5.22798 -0.008,-2.93352 -2.08795,-5.10579 -4.55545,-4.75749 -2.05313,0.2898 -2.21729,0.71491 -2.46569,6.38547 -0.21879,4.99459 -0.0187,6.075 1.125,6.075 0.76512,0 1.39112,0.30375 1.39112,0.675 0,0.37125 -2.6325,0.675 -5.85,0.675 -3.2175,0 -5.85,-0.26042 -5.85,-0.57871 z m 39.60337,-4.0361 0.004,-5.28519 1.87497,3.15 c 2.50603,4.2102 4.19732,5.4 7.67603,5.4 4.81134,0 7.26832,-3.95448 4.61727,-7.43146 -0.61875,-0.81153 -3.45025,-2.33423 -6.29223,-3.38378 -5.81044,-2.14572 -7.88301,-4.43316 -7.88301,-8.69996 0,-5.20117 4.77862,-7.86989 13.05,-7.28804 3.68396,0.25914 4.64652,1.37692 4.86029,5.64404 0.0791,1.57957 -0.18609,1.49337 -2.24844,-0.73079 -3.36603,-3.63011 -6.39676,-4.59072 -9.03333,-2.86318 -4.21878,2.76425 -2.13051,6.16919 5.20934,8.4939 4.69359,1.48657 7.96214,4.80102 7.96214,8.07395 0,4.15722 -1.73918,7.05136 -5.23397,8.70976 -2.69614,1.27939 -3.86857,1.35329 -7.64414,0.48179 -3.32809,-0.76822 -4.77191,-0.77015 -5.69072,-0.007 -1.01784,0.84473 -1.23058,0.10599 -1.2278,-4.26343 z m 50.15524,0.28333 c 0.43105,-3.82431 0.16222,-4.52681 -3.69687,-9.66054 -3.47426,-4.62179 -4.14652,-6.15346 -4.06961,-9.27215 l 0.0921,-3.73583 0.69719,2.93953 c 0.38344,1.61675 2.36699,5.42629 4.40786,8.46566 3.76081,5.60074 4.86996,11.02084 2.89379,14.14118 -0.4857,0.76694 -0.61052,-0.34008 -0.32448,-2.87785 z m 2.94139,3.23485 c 0,-0.57593 0.405,-1.29744 0.9,-1.60337 2.57724,-1.59282 0.12015,-9.14623 -4.81949,-14.81576 -1.74241,-1.99985 -1.57974,-1.95958 1.66949,0.41339 5.28415,3.85908 5.94606,4.94781 5.54837,9.12609 -0.3142,3.30107 -3.29837,9.52537 -3.29837,6.87965 z m -6.47789,-3.40337 c -0.34457,-1.485 -2.26799,-4.86691 -4.27429,-7.51537 -2.85148,-3.76415 -3.61838,-5.53242 -3.51297,-8.1 0.12256,-2.98531 0.17054,-3.04329 0.52652,-0.63624 0.21541,1.45663 2.20835,4.96075 4.42874,7.78696 3.27125,4.16378 3.98219,5.71012 3.74778,8.1516 l -0.28931,3.01305 z m -54.83017,-16.98497 c 1.70319,-1.81297 1.79472,-2.21595 0.60689,-2.67176 -0.76936,-0.29523 -1.39883,-1.38639 -1.39883,-2.42481 0,-1.5287 0.47103,-1.83382 2.475,-1.60324 3.71878,0.42789 3.92573,4.39963 0.36147,6.93761 -3.54172,2.52192 -4.52925,2.40705 -2.04453,-0.2378 z"
       id="path4140"
       inkscape:connector-curvature="0"
       sodipodi:nodetypes="sscsssssssssscssssssssssscccssccccscscsscscccsscsssssssssssscssssssscssssscscccssccsssscssscssccssscssssccscssssssssscsscsscsssscscsssssscccssssssssccsscccscssscssssssssscssssssccssssssscscsssscsssssscssscsccssccccsscssssssccsssccssscscsssssssscsssscsscssscssssssscsssssccccssscsscssssssccccsscsscccsssssssssssscsssssss" />
  </g>
</svg>
