<?xml version="1.0" encoding="UTF-8" standalone="no"?>
<svg
   xmlns:dc="http://purl.org/dc/elements/1.1/"
   xmlns:cc="http://creativecommons.org/ns#"
   xmlns:rdf="http://www.w3.org/1999/02/22-rdf-syntax-ns#"
   xmlns:svg="http://www.w3.org/2000/svg"
   xmlns="http://www.w3.org/2000/svg"
   xmlns:sodipodi="http://sodipodi.sourceforge.net/DTD/sodipodi-0.dtd"
   xmlns:inkscape="http://www.inkscape.org/namespaces/inkscape"
   width="612pt"
   height="792pt"
   viewBox="0 0 612 792"
   version="1.1"
   id="svg2"
   inkscape:version="0.91 r13725"
   sodipodi:docname="Soln2Pro_logo_CMYK.eps.svg">
  <metadata
     id="metadata69">
    <rdf:RDF>
      <cc:Work
         rdf:about="">
        <dc:format>image/svg+xml</dc:format>
        <dc:type
           rdf:resource="http://purl.org/dc/dcmitype/StillImage" />
      </cc:Work>
    </rdf:RDF>
  </metadata>
  <defs
     id="defs67" />
  <sodipodi:namedview
     pagecolor="#ffffff"
     bordercolor="#666666"
     borderopacity="1"
     objecttolerance="10"
     gridtolerance="10"
     guidetolerance="10"
     inkscape:pageopacity="0"
     inkscape:pageshadow="2"
     inkscape:window-width="1536"
     inkscape:window-height="897"
     id="namedview65"
     showgrid="false"
     inkscape:zoom="0.67425131"
     inkscape:cx="-183.19344"
     inkscape:cy="635.86696"
     inkscape:window-x="-8"
     inkscape:window-y="-8"
     inkscape:window-maximized="1"
     inkscape:current-layer="svg2" />
  <g
     id="g3443"
     inkscape:export-xdpi="355.60071"
     inkscape:export-ydpi="355.60071">
    <path
       sodipodi:nodetypes="cccccccccccc"
       style="fill:#000000;fill-opacity:1;fill-rule:nonzero;stroke:none"
       d="m 99.136369,459.1441 -1.878906,-1.07813 c -0.296875,-0.17187 -0.675781,-0.0703 -0.847656,0.22266 l -3.492188,6.04687 c -0.167968,0.29688 -0.06641,0.67578 0.230469,0.84766 l 1.511719,0.87109 -9.875,17.09766 c -0.167969,0.29687 -0.06641,0.67969 0.226562,0.85156 30.601971,-8.2117 18.762721,4.1935 30.066411,-14.97656 0.17187,-0.29297 0.0703,-0.67578 -0.22657,-0.84766 l -15.527341,-8.96484 c -0.05859,-0.0312 -0.125,-0.0508 -0.1875,-0.0703"
       id="path5"
       inkscape:connector-curvature="0" />
    <path
       sodipodi:nodetypes="ccccccccccccccc"
       style="fill:none;stroke:#000000;stroke-width:1.66530001;stroke-linecap:butt;stroke-linejoin:miter;stroke-miterlimit:4;stroke-opacity:1"
       d="m 99.136369,459.1441 -1.878906,-1.07813 c -0.296875,-0.17187 -0.675781,-0.0703 -0.847656,0.22266 l -3.492188,6.04687 c -0.167968,0.29688 -0.06641,0.67579 0.230469,0.84766 l 1.511719,0.87109 -9.875,17.09766 c -0.167969,0.29688 -0.06641,0.67969 0.226562,0.85156 l 7.893149,4.58963 c -2.394947,-29.05922 15.050802,-7.12677 15.222682,-7.41974 l 6.95058,-12.14645 c 0.17187,-0.29297 0.0703,-0.67578 -0.22657,-0.84766 l -15.527341,-8.96484 c -0.05859,-0.0312 -0.125,-0.0508 -0.1875,-0.0703 z"
       id="path7"
       inkscape:connector-curvature="0" />
    <path
       sodipodi:nodetypes="cccccccccccccc"
       style="fill:#000000;fill-opacity:1;fill-rule:nonzero;stroke:none"
       d="m 64.464495,467.13238 -1.878907,1.08594 c -0.296875,0.16796 -0.398437,0.55468 -0.226562,0.84765 l 3.488281,6.04297 c 0.171875,0.29688 0.550781,0.39844 0.847656,0.22656 l 1.511719,-0.87109 9.871094,17.10156 c 0.171875,0.29297 0.554687,0.39453 0.847656,0.22656 l 13.376811,-8.07496 c 0.296875,-0.17187 0.322525,-2.22321 0.154557,-2.51618 L 80.991838,458.2691 c -0.171875,-0.29688 -0.550781,-0.39844 -0.847656,-0.23047 l -15.527344,8.96484 c -0.0625,0.0391 -0.109375,0.082 -0.152343,0.12891"
       id="path9"
       inkscape:connector-curvature="0" />
    <path
       sodipodi:nodetypes="cccccccccccccc"
       style="fill:none;stroke:#000000;stroke-width:1.66530001;stroke-linecap:butt;stroke-linejoin:miter;stroke-miterlimit:4;stroke-opacity:1"
       d="m 64.464494,467.13238 -1.878906,1.08594 c -0.296875,0.16797 -0.398437,0.55468 -0.226562,0.84765 l 3.488281,6.04297 c 0.171875,0.29688 0.550781,0.39844 0.847656,0.22656 l 1.511719,-0.87109 9.871094,17.10156 c 0.171875,0.29297 0.554687,0.39453 0.847656,0.22657 L 92.1328,484.108 c 0.296875,-0.17187 1.004769,-3.97368 0.8368,-4.26664 L 80.991838,458.2691 c -0.171875,-0.29688 -0.550781,-0.39844 -0.847656,-0.23047 l -15.527344,8.96484 c -0.0625,0.0391 -0.109375,0.082 -0.152344,0.12891 z"
       id="path11"
       inkscape:connector-curvature="0" />
    <path
       style="fill:#000000;fill-opacity:1;fill-rule:nonzero;stroke:none"
       d="m 55.765276,500.04644 0,2.17188 c 0,0.33593 0.28125,0.61718 0.621093,0.61718 l 6.980469,0 c 0.339844,0 0.621094,-0.27734 0.621094,-0.61718 l 0,-1.75 19.742187,0 c 0.34375,0.004 0.621094,-0.27735 0.621094,-0.61329 l 0,-17.93359 c 0,-0.33984 -0.277344,-0.62109 -0.621094,-0.62109 l -27.378906,0 c -0.339844,0 -0.621094,0.28125 -0.621094,0.62109 l 0,17.93359 c 0,0.0664 0.01563,0.13282 0.03516,0.19141"
       id="path13"
       inkscape:connector-curvature="0" />
    <path
       style="fill:none;stroke:#000000;stroke-width:1.66530001;stroke-linecap:butt;stroke-linejoin:miter;stroke-miterlimit:4;stroke-opacity:1"
       d="m 55.765276,500.04644 0,2.17188 c 0,0.33593 0.28125,0.61718 0.621093,0.61718 l 6.980469,0 c 0.339844,0 0.621094,-0.27734 0.621094,-0.61718 l 0,-1.75 19.742187,0 c 0.34375,0.004 0.621094,-0.27735 0.621094,-0.61328 l 0,-17.9336 c 0,-0.33984 -0.277344,-0.62109 -0.621094,-0.62109 l -27.378906,0 c -0.339844,0 -0.621094,0.28125 -0.621094,0.62109 l 0,17.9336 c 0,0.0664 0.01563,0.13281 0.03516,0.1914 z m 0,0"
       id="path15"
       inkscape:connector-curvature="0" />
    <path
       style="fill:#000000;fill-opacity:1;fill-rule:nonzero;stroke:none"
       d="m 78.265276,523.06597 1.878906,1.08985 c 0.296875,0.16796 0.675781,0.0664 0.847656,-0.23047 l 3.492188,-6.04297 c 0.167969,-0.29297 0.0625,-0.67969 -0.230469,-0.84766 l -1.511719,-0.87109 9.875,-17.10547 c 0.171875,-0.29297 0.06641,-0.67578 -0.230469,-0.84375 l -15.527343,-8.96875 c -0.292969,-0.16797 -0.675781,-0.0664 -0.847657,0.23047 l -13.6875,23.71094 c -0.171874,0.29687 -0.07031,0.67578 0.226563,0.84765 l 15.527344,8.96485 c 0.05859,0.0351 0.125,0.0547 0.1875,0.0664"
       id="path17"
       inkscape:connector-curvature="0" />
    <path
       style="fill:none;stroke:#000000;stroke-width:1.66530001;stroke-linecap:butt;stroke-linejoin:miter;stroke-miterlimit:4;stroke-opacity:1"
       d="m 78.265276,523.06597 1.878906,1.08985 c 0.296875,0.16797 0.675781,0.0664 0.847656,-0.23047 l 3.492188,-6.04297 c 0.167968,-0.29297 0.0625,-0.67969 -0.230469,-0.84766 l -1.511719,-0.87109 9.875,-17.10547 c 0.171875,-0.29297 0.06641,-0.67578 -0.230469,-0.84375 l -15.527343,-8.96875 c -0.292969,-0.16797 -0.675782,-0.0664 -0.847657,0.23047 l -13.6875,23.71094 c -0.171875,0.29687 -0.07031,0.67578 0.226563,0.84765 l 15.527344,8.96485 c 0.05859,0.0352 0.125,0.0547 0.1875,0.0664 z m 0,0"
       id="path19"
       inkscape:connector-curvature="0" />
    <path
       sodipodi:nodetypes="ccccccccccccccc"
       style="fill:#000000;fill-opacity:1;fill-rule:nonzero;stroke:none"
       d="m 112.87856,515.12457 1.8789,-1.08204 c 0.29688,-0.17187 0.39844,-0.55468 0.22657,-0.84765 l -3.48828,-6.04688 c -0.17188,-0.29687 -0.55079,-0.39453 -0.85157,-0.22265 l -1.50781,0.87109 -4.01237,-6.94214 c -0.17188,-0.29688 -11.097984,-0.71288 -11.705571,-0.51869 l -0.54675,-6.1668 -9.98531,5.26435 c -0.296874,0.17187 -0.398437,0.55469 -0.226562,0.84766 l 13.691406,23.71093 c 0.167969,0.29688 0.550782,0.39844 0.847656,0.23047 l 15.527341,-8.96875 c 0.0586,-0.0312 0.10938,-0.0781 0.15235,-0.1289"
       id="path21"
       inkscape:connector-curvature="0" />
    <a
       id="a3361">
      <path
         inkscape:export-ydpi="4047.6394"
         inkscape:export-xdpi="4047.6394"
         inkscape:connector-curvature="0"
         id="path23"
         d="m 112.87856,515.12457 1.8789,-1.08203 c 0.29688,-0.17188 0.39844,-0.55469 0.22657,-0.84766 l -3.48829,-6.04688 c -0.17187,-0.29687 -0.55078,-0.39453 -0.85156,-0.22265 l -1.50781,0.87109 -3.97557,-7.19084 c -9.943325,1.3082 -18.223176,0.9567 -12.2256,-6.936 l -2.283206,1.28114 -7.765625,4.48242 c -0.2971,0.17149 -0.398437,0.55469 -0.226562,0.84766 l 13.691406,23.71093 c 0.167969,0.29688 0.550781,0.39844 0.847656,0.23047 l 15.527341,-8.96875 c 0.0586,-0.0312 0.10938,-0.0781 0.15235,-0.1289 z"
         style="fill:none;stroke:#000000;stroke-width:1.66530001;stroke-linecap:butt;stroke-linejoin:miter;stroke-miterlimit:4;stroke-opacity:1"
         sodipodi:nodetypes="ccccccccscccccc" />
    </a>
    <path
       style="fill:none;stroke:#000000;stroke-width:1.66530001;stroke-linecap:butt;stroke-linejoin:miter;stroke-miterlimit:4;stroke-opacity:1"
       d="m 121.60512,481.71441 0,-2.16797 c 0,-0.33984 -0.28125,-0.62109 -0.62109,-0.62109 l -6.98047,0 c -0.33985,0 -0.6211,0.28125 -0.6211,0.62109 l 0,1.74219 -19.742184,0 c -0.34375,0 -0.621094,0.28125 -0.621094,0.625 l 0,17.92578 c 0,0.33984 0.277344,0.625 0.621094,0.625 l 27.378904,0 c 0.34375,0 0.6211,-0.28516 0.6211,-0.625 l 0,-17.92578 c 0,-0.0703 -0.0156,-0.13672 -0.0352,-0.19922 z m 0,0"
       id="path27"
       inkscape:connector-curvature="0" />
    <path
       style="fill:#000000;fill-opacity:1;fill-rule:nonzero;stroke:none"
       d="m 139.99965,482.55035 c -1.27343,-1.42578 -2.35937,-1.92188 -3.8789,-1.92188 -2.23438,0 -3.69141,1.98438 -3.69141,3.9375 0,1.70703 0.86719,3.53906 4.375,4.90625 3.03906,1.17578 4.83985,3.25781 4.83985,6.10938 0,3.01172 -2.29688,6.39453 -6.39063,6.39453 -2.10938,0 -3.84766,-0.96485 -5.39844,-3.13672 l 1.08594,-1.83203 c 1.33203,1.80078 2.76172,2.85547 4.46875,2.85547 2.23047,0 4,-1.92188 4,-4.21875 0,-1.76953 -0.80469,-3.03907 -4.28125,-4.52735 -3.94141,-1.67968 -4.9336,-4.03515 -4.9336,-6.33203 0,-3.7539 2.85547,-6.26562 6.17579,-6.26562 1.73828,0 3.13281,0.58984 4.80859,2.14062 l -1.17969,1.89063"
       id="path29"
       inkscape:connector-curvature="0" />
    <path
       style="fill:#000000;fill-opacity:1;fill-rule:nonzero;stroke:none"
       d="m 155.07778,499.86285 c 5.46094,0 9.55859,-4.34375 9.55859,-9.61719 0,-5.27344 -4.09765,-9.61719 -9.55859,-9.61719 -5.46094,0 -9.55469,4.34375 -9.55469,9.61719 0,5.27344 4.09375,9.61719 9.55469,9.61719 z m 0,-21.34375 c 7.19922,0 11.91406,5.70703 11.91406,11.72656 0,6.01953 -4.71484,11.73047 -11.91406,11.73047 -7.19531,0 -11.91406,-5.71094 -11.91406,-11.73047 0,-6.01953 4.71875,-11.72656 11.91406,-11.72656"
       id="path31"
       inkscape:connector-curvature="0" />
    <path
       style="fill:#000000;fill-opacity:1;fill-rule:nonzero;stroke:none"
       d="m 172.23403,478.89019 0,20.29297 9.80859,0 -0.90234,2.23437 -11.13672,0 0,-22.15625 2.23047,-0.37109"
       id="path33"
       inkscape:connector-curvature="0" />
    <path
       style="fill:#000000;fill-opacity:1;fill-rule:nonzero;stroke:none"
       d="m 183.56215,479.26128 2.23438,-0.37109 0,15.51563 c 0,3.3789 2.48047,5.45703 5.80078,5.45703 3.47266,0 5.92578,-2.23438 5.92578,-6.91797 l 0,-13.6836 2.23438,-0.37109 0,22.33984 -2.23438,0.3711 0.24609,-2.76172 -0.0586,-0.0625 c -1.46094,2.17187 -3.57031,3.19922 -6.17578,3.19922 -4.46875,0 -7.97266,-2.94922 -7.97266,-7.23047 l 0,-15.48438"
       id="path35"
       inkscape:connector-curvature="0" />
    <path
       style="fill:#000000;fill-opacity:1;fill-rule:nonzero;stroke:none"
       d="m 201.80434,481.30816 0.37109,-2.23047 14.39844,0 -0.37109,2.23047 -6.08203,0 0,19.92187 -2.23438,0.3711 0,-20.29297 -6.08203,0"
       id="path37"
       inkscape:connector-curvature="0" />
    <path
       style="fill:#000000;fill-opacity:1;fill-rule:nonzero;stroke:none"
       d="m 218.7145,479.26128 2.23437,-0.37109 0,22.33984 -2.23437,0.3711 0,-22.33985"
       id="path39"
       inkscape:connector-curvature="0" />
    <path
       style="fill:#000000;fill-opacity:1;fill-rule:nonzero;stroke:none"
       d="m 235.93325,499.86285 c 5.46093,0 9.55859,-4.34375 9.55859,-9.61719 0,-5.27344 -4.09766,-9.61719 -9.55859,-9.61719 -5.46094,0 -9.55469,4.34375 -9.55469,9.61719 0,5.27344 4.09375,9.61719 9.55469,9.61719 z m 0,-21.34375 c 7.19922,0 11.91406,5.70703 11.91406,11.72656 0,6.01953 -4.71484,11.73047 -11.91406,11.73047 -7.19922,0 -11.91407,-5.71094 -11.91407,-11.73047 0,-6.01953 4.71485,-11.72656 11.91407,-11.72656"
       id="path41"
       inkscape:connector-curvature="0" />
    <path
       style="fill:#000000;fill-opacity:1;fill-rule:nonzero;stroke:none"
       d="m 267.11684,479.26128 2.23047,-0.37109 0,23.08594 -16.32031,-17.84375 0,17.09765 -2.23047,0.3711 0,-22.89844 16.32031,17.90234 0,-17.34375"
       id="path43"
       inkscape:connector-curvature="0" />
    <path
       style="fill:#000000;fill-opacity:1;fill-rule:nonzero;stroke:none"
       d="m 282.44106,482.55035 c -1.26953,-1.42578 -2.35547,-1.92188 -3.875,-1.92188 -2.23438,0 -3.69531,1.98438 -3.69531,3.9375 0,1.70703 0.87109,3.53906 4.375,4.90625 3.04297,1.17578 4.83984,3.25781 4.83984,6.10938 0,3.01172 -2.29297,6.39453 -6.39062,6.39453 -2.10938,0 -3.84766,-0.96485 -5.39844,-3.13672 l 1.08594,-1.83203 c 1.33593,1.80078 2.76171,2.85547 4.46875,2.85547 2.23437,0 4,-1.92188 4,-4.21875 0,-1.76953 -0.80469,-3.03907 -4.28125,-4.52735 -3.9375,-1.67968 -4.9336,-4.03515 -4.9336,-6.33203 0,-3.7539 2.85547,-6.26562 6.17578,-6.26562 1.73828,0 3.13282,0.58984 4.8086,2.14062 l -1.17969,1.89063"
       id="path45"
       inkscape:connector-curvature="0" />
    <path
       style="fill:#000000;fill-opacity:1;fill-rule:nonzero;stroke:none"
       d="m 287.24965,501.41753 11.58203,-11.48828 c 4.98438,-4.98437 6.02735,-7.26172 6.02735,-9.68359 0,-4.17578 -2.65625,-6.64063 -6.1211,-6.64063 -3.79687,0 -6.3125,2.51563 -6.3125,6.40625 0,2.80079 1.28125,5.03125 4.55469,6.26172 l 0.19141,2.89844 c -4.27344,-0.85547 -7.78516,-3.79687 -7.78516,-9.16016 0,-4.9375 3.60938,-9.25781 9.35156,-9.25781 5.64844,0 9.16016,4.51172 9.16016,9.35156 0,5.36329 -4.17969,9.82422 -14.05078,18.46094 l 14.09766,0 -0.8086,2.85156 -19.88672,0"
       id="path47"
       inkscape:connector-curvature="0" />
    <path
       style="fill:#000000;fill-opacity:1;fill-rule:nonzero;stroke:none"
       d="m 315.69497,492.29253 c 3.6914,0 6.76562,-1.58203 6.76562,-5.55078 0,-3.72656 -3.04297,-5.55468 -6.76562,-5.55468 z m -2.23438,-13.21484 1.46094,0 c 6.01953,0 9.77344,2.88281 9.77344,7.47656 0,4.65235 -3.16407,7.78907 -9,7.85157 l 0,6.82421 -2.23438,0.3711 0,-22.52344"
       id="path49"
       inkscape:connector-curvature="0" />
    <path
       style="fill:#000000;fill-opacity:1;fill-rule:nonzero;stroke:none"
       d="m 329.99965,490.898 c 0.2461,0 0.5586,0.0312 0.92969,0.0312 4.06641,0 6.14453,-2.45312 6.14453,-5.08984 0,-2.94922 -1.98828,-4.77734 -5.98828,-4.77734 l -1.08594,0 z m -2.23437,-11.82031 2.76172,0 c 6.11328,0 8.78125,2.63672 8.78125,7.10547 0,3.31641 -2.82422,6.07812 -6.33203,6.51172 l 6.98046,8.16406 -2.17187,1.11719 -7.72266,-9.6211 -0.0625,0 0,8.875 -2.23437,0.3711 0,-22.52344"
       id="path51"
       inkscape:connector-curvature="0" />
    <path
       style="fill:#000000;fill-opacity:1;fill-rule:nonzero;stroke:none"
       d="m 353.57778,499.86285 c 5.46094,0 9.55859,-4.34375 9.55859,-9.61719 0,-5.27344 -4.09765,-9.61719 -9.55859,-9.61719 -5.46094,0 -9.55469,4.34375 -9.55469,9.61719 0,5.27344 4.09375,9.61719 9.55469,9.61719 z m 0,-21.34375 c 7.19922,0 11.91797,5.70703 11.91797,11.72656 0,6.01953 -4.71875,11.73047 -11.91797,11.73047 -7.19531,0 -11.91406,-5.71094 -11.91406,-11.73047 0,-6.01953 4.71875,-11.72656 11.91406,-11.72656"
       id="path53"
       inkscape:connector-curvature="0" />
    <path
       style="fill:#000000;fill-opacity:1;fill-rule:nonzero;stroke:none"
       d="m 378.027,478.89019 0,14.80078 c 0,5.46094 -2.79297,8.28516 -6.60938,8.28516 -2.44922,0 -4.46484,-1.49219 -5.67578,-3.53906 l 1.39453,-1.42969 c 1.76953,2.32812 2.94922,2.85547 4.40625,2.85547 2.39063,0 4.25,-1.89063 4.25,-5.70703 l 0,-14.89454 2.23438,-0.37109"
       id="path55"
       inkscape:connector-curvature="0" />
    <path
       style="fill:#000000;fill-opacity:1;fill-rule:nonzero;stroke:none"
       d="m 381.87465,479.07769 10.23828,0 0.28125,1.98438 -8.28515,0 0,8.0664 7.35156,0 0,1.98828 -7.35156,0 0,8.3125 9.37109,0 -0.71484,1.98828 -10.89063,0 0,-22.33984"
       id="path57"
       inkscape:connector-curvature="0" />
    <path
       style="fill:#000000;fill-opacity:1;fill-rule:nonzero;stroke:none"
       d="m 414.48403,499.36675 c -2.17188,1.70703 -4.90235,2.60938 -7.38281,2.60938 -7.19922,0 -11.91407,-5.71094 -11.91407,-11.73047 0,-6.01953 4.71485,-11.72656 11.91407,-11.72656 2.48046,0 5.11718,0.83593 7.16406,2.51172 l -1.05469,1.92187 c -1.67578,-1.55078 -3.87891,-2.32422 -6.10937,-2.32422 -5.46094,0 -9.5586,4.34375 -9.5586,9.61719 0,5.27344 4.09766,9.61719 9.5586,9.61719 1.98437,0 4.34375,-0.83594 6.20312,-2.29688 l 1.17969,1.80078"
       id="path59"
       inkscape:connector-curvature="0" />
    <path
       style="fill:#000000;fill-opacity:1;fill-rule:nonzero;stroke:none"
       d="m 416.03481,481.30816 0.37109,-2.23047 14.39844,0 -0.37109,2.23047 -6.08203,0 0,19.92187 -2.23438,0.3711 0,-20.29297 -6.08203,0"
       id="path61"
       inkscape:connector-curvature="0" />
    <path
       style="fill:#000000;fill-opacity:1;fill-rule:nonzero;stroke:none"
       d="m 442.00356,482.55035 c -1.27344,-1.42578 -2.35938,-1.92188 -3.87891,-1.92188 -2.23437,0 -3.6914,1.98438 -3.6914,3.9375 0,1.70703 0.86718,3.53906 4.375,4.90625 3.03906,1.17578 4.83984,3.25781 4.83984,6.10938 0,3.01172 -2.29687,6.39453 -6.39062,6.39453 -2.10938,0 -3.84766,-0.96485 -5.39844,-3.13672 l 1.08594,-1.83203 c 1.33203,1.80078 2.76171,2.85547 4.46875,2.85547 2.23046,0 4,-1.92188 4,-4.21875 0,-1.76953 -0.80469,-3.03907 -4.28125,-4.52735 -3.94141,-1.67968 -4.9336,-4.03515 -4.9336,-6.33203 0,-3.7539 2.85547,-6.26562 6.17578,-6.26562 1.73828,0 3.13282,0.58984 4.8086,2.14062 l -1.17969,1.89063"
       id="path63"
       inkscape:connector-curvature="0" />
    <path
       sodipodi:nodetypes="ccc"
       style="fill:none;stroke:#000000;stroke-width:1.66530001;stroke-linecap:butt;stroke-linejoin:miter;stroke-miterlimit:4;stroke-opacity:1"
       d="m 91.168376,487.01841 c 0.29297,0.17187 0.67578,0.0664 0.84766,-0.22657 -4.18757,-12.6799 -3.02303,-3.12065 -0.84766,0.22657 z"
       id="path7-7"
       inkscape:connector-curvature="0" />
  </g>
</svg>
