<?xml version="1.0" encoding="UTF-8" standalone="no"?>
<!-- Created with Inkscape (http://www.inkscape.org/) -->

<svg
   xmlns:dc="http://purl.org/dc/elements/1.1/"
   xmlns:cc="http://creativecommons.org/ns#"
   xmlns:rdf="http://www.w3.org/1999/02/22-rdf-syntax-ns#"
   xmlns:svg="http://www.w3.org/2000/svg"
   xmlns="http://www.w3.org/2000/svg"
   xmlns:sodipodi="http://sodipodi.sourceforge.net/DTD/sodipodi-0.dtd"
   xmlns:inkscape="http://www.inkscape.org/namespaces/inkscape"
   id="svg2"
   version="1.1"
   inkscape:version="0.91 r13725"
   width="1024"
   height="191"
   viewBox="0 0 1024 191"
   sodipodi:docname="microsemi-logo.svg"
   inkscape:export-filename="C:\Users\Team 100\Desktop\2016 Sponsors\microsemi-logo.png"
   inkscape:export-xdpi="176.2341"
   inkscape:export-ydpi="176.2341">
  <metadata
     id="metadata8">
    <rdf:RDF>
      <cc:Work
         rdf:about="">
        <dc:format>image/svg+xml</dc:format>
        <dc:type
           rdf:resource="http://purl.org/dc/dcmitype/StillImage" />
        <dc:title />
      </cc:Work>
    </rdf:RDF>
  </metadata>
  <defs
     id="defs6" />
  <sodipodi:namedview
     pagecolor="#ffffff"
     bordercolor="#666666"
     borderopacity="1"
     objecttolerance="10"
     gridtolerance="10"
     guidetolerance="10"
     inkscape:pageopacity="0"
     inkscape:pageshadow="2"
     inkscape:window-width="1536"
     inkscape:window-height="897"
     id="namedview4"
     showgrid="false"
     inkscape:zoom="0.5"
     inkscape:cx="742.76498"
     inkscape:cy="-85.121025"
     inkscape:window-x="-8"
     inkscape:window-y="-8"
     inkscape:window-maximized="1"
     inkscape:current-layer="layer2" />
  <g
     inkscape:groupmode="layer"
     id="layer1"
     inkscape:label="Layer 1" />
  <g
     inkscape:groupmode="layer"
     id="layer2"
     inkscape:label="Layer 2">
    <path
       sodipodi:nodetypes="csscccccsccssssssssscscssssssssscscsssscssssssssscsssscccsscscssssscscssscc"
       inkscape:connector-curvature="0"
       id="path4171-5"
       d="M 149.70959,170.01934 C 107.38054,169.07125 71.121861,157.73373 46.079083,137.61569 36.619407,130.01631 28.191298,120.33502 23.884022,112.12042 l -1.045408,-1.9937 -0.06302,-7.72226 -0.06302,-7.722264 0.774457,-0.73043 c 0.425963,-0.40172 1.028144,-0.85966 1.3382,-1.0176 0.310044,-0.15796 5.804053,-1.03348 12.208936,-1.94562 l 11.645236,-1.6584 0.535257,0.53526 c 0.319696,0.31972 0.820716,1.38344 1.244173,2.64152 4.115593,12.227964 14.203917,25.256434 27.633638,35.687254 7.687744,5.97105 18.016891,11.91041 26.670519,15.33581 5.174,2.04804 5.27676,2.02597 2.0148,-0.43266 -12.925988,-9.74271 -25.008835,-23.28168 -32.559466,-36.48323 -2.256363,-3.94505 -4.164784,-8.678344 -5.666472,-14.054004 -1.680297,-6.01511 -2.252952,-9.69603 -2.404324,-15.45488 -0.143375,-5.45289 -0.09152,-5.33729 -2.396213,-5.33729 -1.482687,0 -8.037226,0.84283 -27.379929,3.52076 -6.00829,0.83182 -10.347555,1.34314 -10.458326,1.23237 -0.104135,-0.10413 -0.248643,-1.86172 -0.3211,-3.90572 l -0.131757,-3.71636 0.980917,-1.70012 c 1.235999,-2.14223 3.129579,-4.78381 5.355804,-7.4714 2.236541,-2.70006 7.58521,-7.93662 10.684588,-10.46064 13.681702,-11.14189 31.701203,-19.33486 53.066759,-24.12794 10.194489,-2.28703 26.220789,-4.62303 38.116629,-5.55591 5.88695,-0.46165 20.43738,-0.63909 26.77679,-0.32651 17.14206,0.84521 34.10769,3.3176 46.95805,6.84315 9.70521,2.66268 20.32575,6.88412 29.15538,11.58865 10.17971,5.42388 20.78305,12.91183 25.9465,18.32305 l 1.64697,1.72602 0,3.60252 c 0,2.20351 -0.0836,3.65421 -0.21529,3.7356 -0.23839,0.14732 -19.37049,3.07973 -20.09334,3.07973 -0.30105,0 -1.55459,-1.09526 -3.72655,-3.25607 -3.61273,-3.59418 -7.10767,-6.4597 -12.72977,-10.43728 -9.07935,-6.42354 -17.48254,-11.41873 -25.85174,-15.36723 -5.38629,-2.54119 -15.36597,-6.33802 -16.20598,-6.16568 -0.18636,0.0381 1.14343,0.82247 2.95513,1.74277 8.82855,4.48461 17.4371,10.00149 24.81066,15.90022 4.31341,3.45068 7.17671,6.05014 11.21264,10.1795 5.21625,5.33699 8.75057,9.81383 11.63322,14.7355 4.60612,7.86423 5.31386,8.80862 7.27839,9.71205 0.94277,0.43354 1.37405,0.48699 3.82524,0.47405 2.97313,-0.0157 6.53456,-0.49732 23.67072,-3.20093 7.29786,-1.15139 8.84082,-1.33945 9.06549,-1.1049 0.64071,0.66884 2.10229,6.58393 2.66914,10.80209 0.35267,2.62432 0.35532,9.748134 0.004,12.325824 -2.08211,15.3024 -10.25039,28.19859 -24.80121,39.15653 -10.50758,7.91307 -25.5108,14.93237 -40.9466,19.15698 -13.42611,3.67459 -23.84154,5.27518 -42.97951,6.60485 -5.29754,0.36806 -16.36031,0.76457 -19.55133,0.70074 -1.1688,-0.0234 -3.17706,-0.0661 -4.46277,-0.0949 z m 9.77565,-48.19791 c 9.95635,-1.57913 17.97352,-5.41836 24.63087,-11.79517 3.69689,-3.5411 7.0165,-8.0177 9.08461,-12.250914 0.57788,-1.18287 1.27769,-2.3639 1.55509,-2.62452 0.44653,-0.41949 2.31606,-0.7786 16.3004,-3.13096 8.68781,-1.46141 15.87743,-2.73345 15.97697,-2.82677 0.50806,-0.47643 -5.26933,-9.05361 -9.66158,-14.34373 -2.15984,-2.60133 -7.69105,-8.16036 -10.2832,-10.33489 -13.09055,-10.98155 -28.14485,-17.45374 -44.67884,-19.20846 -3.94063,-0.41818 -12.13505,-0.41219 -15.57526,0.0118 -13.43019,1.65378 -24.84618,8.14799 -31.38868,17.85606 l -0.86768,1.28751 -15.347702,2.19139 c -8.441224,1.20527 -15.897755,2.30476 -16.570063,2.44329 -3.044528,0.62741 -3.326285,1.68644 -1.722303,6.47383 3.701964,11.04932 8.906572,19.77951 16.050958,26.923904 11.57927,11.57926 27.37483,18.04804 47.93919,19.6326 3.58033,0.27587 12.00935,0.0994 14.55722,-0.30461 z"
       style="fill:#000000;fill-opacity:1" />
    <path
       sodipodi:nodetypes="cssscccccscssscsssscscsssssssssscscscssssssssscsccsssssccssscssssssssscsssss"
       inkscape:connector-curvature="0"
       id="path4169-7"
       d="m 145.67181,169.80877 c -4.64876,-0.22045 -9.8486,-0.55461 -12.85712,-0.82622 C 87.982002,164.93487 51.3419,148.0771 30.474764,121.89689 c -2.17567,-2.7296 -4.911693,-6.85346 -6.340705,-9.55698 l -1.189167,-2.24974 0,-7.87194 0,-7.871904 1.143646,-0.78768 1.143657,-0.78766 11.660327,-1.6744 c 11.343178,-1.62885 11.67447,-1.66408 12.181231,-1.29504 0.372746,0.27145 0.769839,1.10042 1.396055,2.91434 1.95156,5.65298 4.774297,10.945344 8.748294,16.402194 7.592574,10.42559 17.771149,19.43708 30.77499,27.24626 5.002993,3.00443 18.392488,9.1782 19.270628,8.8855 0.27101,-0.0903 -0.36711,-0.64204 -3.62903,-3.1375 -10.087207,-7.71696 -20.141399,-18.44593 -27.384927,-29.2228 -5.01563,-7.46216 -7.229218,-12.11651 -9.500735,-19.976334 -1.713161,-5.92779 -2.41826,-10.35261 -2.598232,-16.30521 -0.141992,-4.69602 -0.171351,-4.7823 -1.696033,-4.98305 -0.878093,-0.11557 -7.38579,0.7085 -26.208858,3.31896 -7.164624,0.99364 -12.100756,1.58958 -12.239388,1.4777 -0.14093,-0.11375 -0.285022,-1.58838 -0.366288,-3.74873 -0.132933,-3.53408 -0.12974,-3.56935 0.413858,-4.62381 2.465965,-4.78304 8.841978,-12.23667 14.848239,-17.35777 10.412867,-8.87829 23.309171,-15.90105 38.571319,-21.00429 10.274682,-3.43557 19.156971,-5.44927 33.207895,-7.52851 10.24098,-1.51547 12.41953,-1.76424 23.74591,-2.71161 2.16385,-0.18098 6.90304,-0.27036 13.81341,-0.26049 8.8654,0.013 11.43836,0.089 16.36361,0.48596 32.58714,2.62595 54.12562,8.66474 75.33625,21.12218 7.94656,4.66717 17.68342,11.95667 20.87983,15.63165 l 1.11538,1.28239 0,3.61697 c 0,1.98934 -0.0717,3.66123 -0.15939,3.71529 -0.0877,0.054 -4.67212,0.78174 -10.18769,1.617 l -10.02831,1.51867 -3.04132,-3.04652 c -4.37419,-4.3817 -9.59209,-8.4897 -17.44221,-13.73208 -9.63135,-6.43188 -17.24375,-10.64799 -25.87053,-14.32829 -4.39437,-1.87471 -10.63354,-4.12753 -11.93531,-4.30959 -1.23759,-0.17307 -0.9923,-0.007 2.90347,1.9581 18.36911,9.26869 34.75103,22.50499 44.58518,36.02394 0.90739,1.24739 2.76055,4.16413 4.11812,6.48168 3.16657,5.40565 3.93965,6.53413 5.0051,7.30593 2.70551,1.95986 5.04619,1.79843 28.9596,-1.99754 4.67532,-0.74217 8.61904,-1.30614 8.76387,-1.25333 0.51293,0.18713 1.99364,5.80564 2.64609,10.04056 0.17591,1.1417 0.27688,3.80039 0.27447,7.22547 -0.004,4.730004 -0.0669,5.770434 -0.49864,8.181814 -1.28897,7.19711 -3.9618,13.84102 -7.99372,19.87006 -2.60275,3.89195 -4.25214,5.87105 -8.06552,9.67784 -6.87519,6.86325 -14.09483,11.88222 -24.55977,17.07351 -14.14653,7.01758 -31.48404,12.07231 -48.87825,14.25036 -6.44755,0.80735 -18.56821,1.8025 -26.03299,2.13739 -4.15628,0.18645 -17.45065,0.23304 -20.82637,0.073 z m 12.79309,-47.789 c 8.25492,-1.07526 15.41744,-3.8685 21.51762,-8.39152 5.59504,-4.14849 10.32558,-9.78545 13.31799,-15.869964 0.65546,-1.33271 1.39599,-2.55642 1.64567,-2.71936 0.24973,-0.16298 7.33723,-1.45099 15.75497,-2.86313 18.12529,-3.04065 16.46983,-2.72621 16.46983,-3.12832 0,-0.37319 -1.61369,-3.11504 -3.4782,-5.90991 -8.60158,-12.89363 -20.10181,-23.14674 -33.47819,-29.84767 -11.62034,-5.82127 -25.27286,-8.8658 -37.84858,-8.44033 -4.24616,0.14367 -6.2445,0.36705 -9.95572,1.11284 -11.17647,2.24599 -21.00388,8.40423 -26.76672,16.77308 -0.60118,0.87306 -1.23802,1.5536 -1.54264,1.64849 -0.28531,0.0889 -7.57001,1.1631 -16.188216,2.38718 -8.618191,1.22411 -15.992167,2.36045 -16.386628,2.52528 -1.994877,0.83351 -2.097005,2.01344 -0.568662,6.56993 2.647331,7.89246 6.001363,14.40838 10.565809,20.52624 2.546399,3.41304 8.507417,9.332574 11.909807,11.826914 10.90058,7.99136 23.85026,12.46431 40.21989,13.89234 3.63294,0.31693 12.07477,0.26443 14.81197,-0.092 z"
       style="fill:#000000;fill-opacity:1" />
    <path
       sodipodi:nodetypes="cssscsccscssssssssscscscssssscsssscccscsssssssssscssssssccssscsscssssscsssssssss"
       inkscape:connector-curvature="0"
       id="path4167-7"
       d="m 146.62813,169.7192 c -41.74917,-1.36565 -77.241811,-13.03189 -102.006816,-33.52906 -2.972819,-2.46052 -8.936285,-8.28849 -11.455841,-11.19558 -3.779111,-4.36035 -7.283049,-9.37906 -9.169755,-13.13379 l -1.050826,-2.09126 0,-7.43273 c 0,-4.388194 0.08434,-7.590284 0.205837,-7.817344 0.113235,-0.21156 0.663104,-0.67226 1.221948,-1.02382 0.97967,-0.61626 1.433318,-0.69905 12.649148,-2.30826 l 11.633026,-1.66905 0.495009,0.52858 c 0.272272,0.29071 0.808996,1.48489 1.192756,2.65371 3.439603,10.476394 12.3788,22.781574 23.39314,32.201614 9.662767,8.26409 22.455383,15.8053 33.742564,19.8911 3.05964,1.10754 2.97309,0.85774 -0.65126,-1.87913 -4.70115,-3.54997 -7.642478,-6.14657 -12.813723,-11.31186 -6.888077,-6.88013 -11.076418,-11.91076 -15.885816,-19.08041 -4.342895,-6.47423 -6.426484,-10.6751 -8.53056,-17.199224 -2.232901,-6.92342 -3.082384,-11.6725 -3.241348,-18.12069 -0.111405,-4.51662 -0.130104,-4.67555 -0.607994,-5.15346 -0.879664,-0.87964 -0.971475,-0.87053 -26.17925,2.60177 -7.395992,1.01877 -13.494325,1.80526 -13.551857,1.74772 -0.05762,-0.0576 -0.164008,-1.76834 -0.236611,-3.80182 l -0.132018,-3.6972 1.069765,-1.80637 c 3.936349,-6.64691 10.909915,-14.04631 18.859999,-20.01167 12.889242,-9.67148 29.447678,-16.98387 48.513222,-21.42391 9.824991,-2.28807 26.688721,-4.84528 37.129981,-5.63035 2.45454,-0.18455 5.22785,-0.45087 6.16292,-0.59181 1.82022,-0.27436 22.92582,-0.34863 24.33286,-0.0857 0.40909,0.0764 2.03481,0.23509 3.61274,0.35254 11.54141,0.8589 21.44158,2.14476 31.13616,4.04401 16.75099,3.28167 32.06473,9.13074 46.32524,17.69393 7.80409,4.68622 14.78534,9.88845 19.07315,14.21276 l 2.07201,2.08964 0,3.5958 0,3.59578 -0.5844,0.12128 c -1.32045,0.27415 -19.03497,2.88751 -19.56328,2.88611 -0.44163,-8.6e-4 -0.81529,-0.29711 -1.63503,-1.29489 -2.7688,-3.3702 -9.83118,-9.11312 -18.06369,-14.68884 -11.10002,-7.51785 -20.14839,-12.40772 -30.38952,-16.42288 -3.23282,-1.26748 -9.17374,-3.29423 -9.6562,-3.29423 -0.75075,0 0.21597,0.62435 3.64931,2.35696 14.16381,7.14756 26.57716,16.07634 36.50636,26.25853 5.31289,5.44828 8.93406,10.11672 12.12073,15.62618 4.02178,6.95329 4.75906,7.91778 6.77518,8.86333 1.09607,0.51404 1.38597,0.55316 3.94567,0.53224 2.96148,-0.0242 6.4013,-0.49072 23.45928,-3.18167 4.83772,-0.76315 8.90782,-1.34459 9.04471,-1.29206 0.42405,0.16273 1.75533,4.92196 2.32776,8.32157 1.39963,8.31226 0.75537,16.726084 -1.88489,24.615984 -4.46885,13.35429 -14.77863,25.03548 -30.5116,34.57024 -6.05751,3.67107 -16.37212,8.39756 -24.11172,11.04882 -11.0389,3.78145 -24.76492,6.76955 -36.55243,7.95735 -10.35412,1.04336 -17.62497,1.5552 -25.82046,1.81764 -7.11258,0.22778 -8.95983,0.22595 -16.36358,-0.0162 z m 12.75083,-47.68809 c 1.22728,-0.18799 3.23555,-0.5799 4.46281,-0.87091 12.85501,-3.04827 23.43101,-11.35939 29.43356,-23.130284 0.71631,-1.40469 1.52494,-2.69493 1.81468,-2.89551 0.36723,-0.25423 5.16641,-1.13495 16.14241,-2.96241 9.25445,-1.54081 15.74026,-2.71443 15.91541,-2.87995 0.25011,-0.23634 0.0739,-0.64976 -1.14459,-2.68566 -8.32051,-13.90198 -20.52252,-25.50757 -34.35971,-32.68024 -9.51546,-4.93246 -18.79661,-7.70914 -29.56989,-8.84655 -4.61853,-0.4876 -13.62898,-0.32318 -17.35813,0.31671 -7.98229,1.36975 -14.76671,4.16116 -20.61388,8.48146 -2.34053,1.72935 -6.92462,6.41866 -8.3611,8.55303 l -1.22481,1.81985 -15.928254,2.28847 c -8.760515,1.25867 -16.259488,2.37995 -16.66436,2.49174 -1.091012,0.30124 -1.98638,1.14931 -2.153404,2.03966 -0.172702,0.92056 0.366184,2.94335 1.884252,7.07287 2.756011,7.49708 6.37335,14.04454 10.919066,19.7638 1.838221,2.312764 6.669937,7.147054 9.00209,9.006924 4.14836,3.30819 9.41834,6.48674 14.31518,8.63408 8.37239,3.67146 18.13481,5.94413 29.14399,6.78472 3.65445,0.27904 11.65111,0.11076 14.34468,-0.3018 z"
       style="fill:#000000;fill-opacity:1" />
    <path
       sodipodi:nodetypes="ssssscccccscssssssssssscssssccscsssscscsccsscssscssscsssssscscsssssscssssss"
       inkscape:connector-curvature="0"
       id="path4165-8"
       d="m 146.73443,169.5881 c -3.68984,-0.104 -12.3794,-0.69896 -16.68234,-1.14224 -34.693877,-3.57415 -63.921106,-14.67631 -85.430724,-32.45142 -3.377119,-2.79081 -10.737253,-10.22882 -13.31611,-13.45706 -2.507753,-3.13921 -5.781153,-8.01515 -7.168399,-10.67781 l -0.97941,-1.87991 0,-7.71825 0,-7.718264 1.01711,-0.74664 1.01712,-0.74662 11.255569,-1.60972 c 6.19058,-0.88532 11.503754,-1.60944 11.807049,-1.60911 0.80678,5.2e-4 1.125738,0.48974 1.964737,3.01148 1.733202,5.20927 4.883373,11.046784 9.041845,16.755184 10.863645,14.91269 28.760416,28.07841 47.983613,35.29896 2.09875,0.78832 2.83124,0.90209 2.83124,0.43973 0,-0.10296 -1.21929,-1.10042 -2.70953,-2.21643 -4.84124,-3.62554 -8.141599,-6.52587 -13.34862,-11.73066 -6.61854,-6.61574 -10.918088,-11.77294 -15.561346,-18.66543 -3.856768,-5.72504 -5.501424,-8.76191 -7.333634,-13.541644 -3.087958,-8.05557 -4.602376,-15.42283 -4.710796,-22.91683 -0.05262,-3.63279 -0.08663,-3.927 -0.501976,-4.34238 -0.921368,-0.92139 -1.687266,-0.84171 -31.429337,3.26922 -4.467103,0.61744 -8.188775,1.05585 -8.270394,0.97424 -0.08164,-0.0816 -0.215529,-1.65457 -0.297596,-3.49544 -0.175396,-3.93427 -0.193825,-3.86932 2.065742,-7.27854 5.129177,-7.73894 13.235157,-15.48725 22.741997,-21.73854 11.198899,-7.36392 24.641879,-13.07193 40.183361,-17.06221 12.237979,-3.1421 36.854439,-6.72169 47.542799,-6.91341 1.064,-0.0191 1.30604,-0.0682 0.85004,-0.17288 -1.1462,-0.26281 10.39364,-0.48143 16.31682,-0.30913 3.18155,0.0926 5.44995,0.22354 5.04085,0.29107 -0.41873,0.0692 0.67791,0.18886 2.50939,0.27398 11.20068,0.52063 25.7381,2.45574 37.18104,4.94928 15.33838,3.3424 30.83787,9.65002 44.25265,18.00897 6.72271,4.18899 13.21258,9.1002 16.94801,12.82533 l 2.17827,2.1723 0,3.52551 c 0,2.629 -0.0676,3.54923 -0.26564,3.61875 -0.14612,0.0514 -4.7066,0.7617 -10.13442,1.57872 l -9.86875,1.48549 -0.73603,-0.89473 c -2.65948,-3.23297 -8.8731,-8.46994 -15.86637,-13.37251 -13.8875,-9.73573 -26.16032,-16.14008 -39.3756,-20.54744 -3.28213,-1.0946 -4.40769,-1.31195 -4.24352,-0.81942 0.0483,0.14513 1.89726,1.17841 4.10861,2.29621 18.04723,9.12242 33.53362,21.24749 43.54278,34.09189 2.18183,2.79986 3.65943,5.03249 6.0522,9.14482 4.40895,7.57746 5.20982,8.23714 9.99812,8.23564 2.64896,-5.2e-4 5.89445,-0.43909 22.50838,-3.03936 5.19133,-0.8125 9.60649,-1.47727 9.81146,-1.47727 0.43244,0 0.94724,1.40676 1.7722,4.843 1.02816,4.28269 1.27682,6.59992 1.28193,11.94558 0.004,3.775074 -0.087,5.564314 -0.3714,7.330104 -2.26517,14.06753 -9.65141,25.92206 -22.57049,36.22442 -16.07972,12.82283 -41.20325,22.34868 -67.26072,25.50263 -14.87934,1.80098 -31.2818,2.59587 -45.37178,2.19879 z m 12.11332,-47.34857 c 15.25725,-1.98604 27.95429,-10.90989 34.6936,-24.383674 0.63261,-1.26479 1.35747,-2.43336 1.61076,-2.59685 0.25331,-0.16348 7.34604,-1.45213 15.76159,-2.86367 17.77833,-2.98197 16.46811,-2.73692 16.60991,-3.10646 0.18931,-0.49332 -3.90151,-6.96732 -6.87237,-10.87593 -4.44927,-5.85372 -10.33104,-11.85863 -15.90045,-16.2333 -12.60738,-9.90287 -27.31852,-15.78356 -43.30396,-17.31048 -4.36093,-0.41656 -12.16256,-0.31171 -15.62696,0.21001 -8.95372,1.34837 -16.26919,4.37074 -22.67449,9.36794 -2.26156,1.76438 -6.11966,5.79693 -7.43042,7.76638 -0.58026,0.87184 -1.10952,1.65537 -1.17614,1.74122 -0.0667,0.0858 -7.41396,1.20365 -16.327418,2.48399 -11.417299,1.64004 -16.434915,2.44171 -16.980094,2.71289 -1.822184,0.90638 -2.026399,2.19502 -0.903001,5.69777 5.943269,18.53113 16.844551,31.659484 32.828893,39.535684 9.6462,4.75313 19.99448,7.31065 33.04595,8.16718 3.74062,0.24549 9.43913,0.10452 12.6446,-0.3127 z"
       style="fill:#000000;fill-opacity:1" />
    <path
       sodipodi:nodetypes="ssssscssssssscscssssssssssssssssssssssssscssssssssssssssssscccsscscssssscscssssscsssscsssssscsscccssscsssssssssssscscssssscsssscsssscccsssscsssscscccsssssscssssscccscscscscccccsscssssssscsscccs"
       inkscape:connector-curvature="0"
       id="path4958"
       d="m 482.13131,155.89692 c -15.25157,-4.96645 -22.30008,-15.42047 -22.27417,-33.036 0.0425,-28.86678 19.59233,-48.66441 47.91963,-48.52691 9.68978,0.047 15.62276,1.78369 22.27128,6.5191 4.63763,3.30315 9.20431,10.64627 10.30098,16.56372 l 0.6717,3.62442 -8.83773,0.68906 c -4.86075,0.37898 -9.55189,0.89254 -10.42475,1.14124 -1.13556,0.32356 -1.91307,-0.63607 -2.73318,-3.37336 -2.13148,-7.11423 -8.3679,-10.58872 -16.41911,-9.14756 -8.66407,1.55086 -15.51811,9.72525 -18.74142,22.35175 -3.55532,13.92705 -2.22114,21.79076 4.43728,26.15353 6.2722,4.1097 16.76104,0.43671 21.77191,-7.62411 1.68877,-2.71666 3.79073,-4.93598 4.67102,-4.93183 1.71475,0.008 12.80443,1.6649 17.3651,2.59435 l 2.76459,0.56342 -3.1763,5.95934 c -4.1768,7.83648 -13.0941,16.05103 -20.56829,18.94734 -7.23525,2.80373 -22.601,3.61577 -28.99854,1.5325 z m 132.71396,-0.4869 c -7.67102,-2.47543 -10.92823,-4.35911 -15.19116,-8.78518 -8.10017,-8.41016 -11.04694,-20.53471 -8.47948,-34.88911 4.22635,-23.62914 21.45536,-37.44331 46.69924,-37.44331 18.46902,0 31.4699,7.78994 36.40931,21.81594 3.77712,10.72556 2.58219,25.29066 -2.97447,36.25621 -3.42906,6.76693 -12.06262,15.84757 -18.28961,19.23672 -10.51005,5.72029 -27.11592,7.37711 -38.17383,3.80873 z m 20.32078,-15.18972 c 5.49127,-1.52484 11.16535,-7.139 14.91954,-14.762 3.00042,-6.09245 3.25968,-7.39013 3.25968,-16.31583 0,-8.29544 -0.30417,-10.10547 -2.10453,-12.5235 -6.61611,-8.88597 -21.00455,-8.72459 -29.58893,0.33187 -7.71597,8.14028 -11.20913,25.74704 -6.88172,34.68627 3.81915,7.88933 11.40238,11.08056 20.39596,8.58319 z m 63.22907,15.52407 c -7.52382,-1.89228 -13.18804,-5.20219 -17.98066,-10.50705 -3.45484,-3.82409 -7.19625,-10.65117 -6.31827,-11.52916 0.53829,-0.53829 20.84059,-3.68036 21.10555,-3.26639 3.0789,4.81045 6.75103,8.44965 10.02744,9.93753 9.90393,4.49756 24.61609,0.18313 24.61609,-7.21881 0,-3.73732 -2.18205,-5.05696 -16.10355,-9.73897 -22.28362,-7.49432 -27.39978,-11.89388 -27.39284,-23.55607 0.005,-8.01022 3.55224,-14.26815 10.80559,-19.06164 6.86564,-4.53725 14.95781,-6.51139 26.6908,-6.51139 14.44008,0 24.25976,3.28481 29.77252,9.95931 1.6613,2.01139 5.22748,8.71593 5.22748,9.82783 0,0.47675 -3.7125,1.42494 -8.25,2.10708 -4.5375,0.68214 -9.17245,1.46118 -10.29988,1.7312 -1.47821,0.35403 -2.44522,-0.24776 -3.46748,-2.15787 -4.62893,-8.64922 -27.47081,-9.33933 -29.59046,-0.894 -1.05952,4.22146 2.47529,6.83436 13.42065,9.92044 19.11774,5.39031 26.6072,9.4887 30.1964,16.5241 6.02106,11.80225 -1.97534,27.23979 -17.20373,33.21288 -7.03021,2.75748 -26.46963,3.43071 -35.25565,1.22098 z m 84.3795,0.23643 c -23.15914,-6.52683 -32.42488,-32.27268 -20.58169,-57.18838 7.64094,-16.07499 21.63022,-24.5 40.68094,-24.5 18.94129,0 30.08815,8.9806 33.12448,26.68714 0.83356,4.86091 0.91744,9.11801 0.27407,13.90888 l -0.92715,6.90398 -28.37571,0.26579 -28.37571,0.26578 0.48607,5.05871 c 1.47026,15.30128 19.68017,20.00509 30.13976,7.78541 l 3.39558,-3.96697 9.22019,1.48416 c 5.07111,0.81629 9.44919,1.71315 9.72907,1.99304 0.99297,0.99297 -3.88691,7.56663 -9.2675,12.48419 -7.3118,6.68256 -14.35988,9.33583 -25.95175,9.76961 -5.36515,0.20077 -10.84596,-0.18345 -13.57065,-0.95134 z m 33.24304,-51.68838 c -1.05182,-14.44777 -16.90894,-19.93437 -28.04109,-9.70227 -2.40731,2.21267 -7.10329,11.0984 -7.12153,13.47534 -0.008,0.9935 3.88836,1.21311 17.74023,1 l 17.75,-0.27307 z m -510.67082,49.75 c 0.24133,-0.6875 5.60774,-24.99896 11.92534,-54.02548 6.3176,-29.02651 11.75758,-53.21401 12.08884,-53.75 0.35116,-0.5682 7.39751,-0.97452 16.89979,-0.97452 l 16.2975,0 0.61659,8.75 c 0.33913,4.8125 1.16038,21.6875 1.82501,37.5 0.66463,15.8125 1.47281,28.75 1.79596,28.75 0.32315,0 8.64941,-16.875 18.5028,-37.5 l 17.91526,-37.5 16.81567,0 c 9.24862,0 16.81567,0.26102 16.81567,0.58005 0,0.97377 -20.07992,105.79686 -20.62527,107.66995 -0.44321,1.52228 -1.86706,1.75 -10.94212,1.75 -5.73793,0 -10.43261,-0.19568 -10.43261,-0.43484 0,-0.23916 4.29601,-19.86816 9.54668,-43.61999 5.25067,-23.75183 9.36668,-43.36515 9.14668,-43.58514 -0.21999,-0.22 -5.01696,9.3965 -10.65992,21.36999 -5.64296,11.97349 -14.99238,31.78248 -20.7765,44.01998 l -10.51657,22.25 -11.37018,0 -11.37019,0 0,-3.37854 c 0,-6.01989 -4.04547,-86.00026 -4.36618,-86.32097 -0.17093,-0.17094 -4.30065,19.94152 -9.17714,44.69436 l -8.86635,45.00515 -10.76378,0 c -8.17838,0 -10.65838,-0.30024 -10.32498,-1.25 z m 118.49843,0.8193 c 0,-0.23689 3.825,-17.7526 8.5,-38.92381 4.675,-21.17121 8.5,-38.75239 8.5,-39.0693 0,-0.31691 4.95,-0.57619 11,-0.57619 7.89765,0 11,0.33892 11,1.20172 0,1.21099 -15.63453,72.79128 -16.61042,76.04828 -0.45783,1.52798 -1.91138,1.75 -11.45697,1.75 -6.01293,0 -10.93261,-0.19382 -10.93261,-0.4307 z m 109.22436,-1.3193 c 0.25169,-0.9625 4.19389,-18.7375 8.76045,-39.5 l 8.30282,-37.75 10.35618,0 c 5.69591,0 10.35368,0.3375 10.35061,0.75 -0.003,0.4125 -0.40939,2.325 -0.90295,4.25 -2.585,10.08224 -2.65984,9.98273 2.86605,3.81103 7.14849,-7.98395 13.92253,-11.17901 22.53815,-10.63041 3.57432,0.22759 6.98347,0.89852 7.57589,1.49093 0.7695,0.7695 -0.10402,3.4263 -3.05855,9.30257 l -4.13567,8.22545 -3.36831,-0.6319 c -4.80886,-0.90215 -11.27082,1.01314 -16.68134,4.94425 -6.85832,4.98304 -10.95632,13.9931 -15.45862,33.98808 -1.98151,8.8 -4.01751,17.6875 -4.52445,19.75 l -0.92171,3.75 -11.07809,0 c -10.05822,0 -11.03595,-0.16111 -10.62046,-1.75 z m 302.05409,-7.5 c 1.12422,-5.0875 5.01186,-22.75 8.6392,-39.25 l 6.59517,-30 10.64569,-0.28284 10.64568,-0.28284 -0.87824,3.78284 c -1.29624,5.5833 -1.2068,5.69694 2.21661,2.81634 6.15359,-5.17791 12.84145,-7.82999 20.97614,-8.31811 11.41896,-0.6852 18.93149,2.66314 21.86499,9.74522 l 1.2431,3.00111 4.10619,-3.51474 c 2.2584,-1.93311 6.59488,-4.737 9.6366,-6.23087 4.84666,-2.3803 6.71353,-2.71611 15.09969,-2.71611 8.68639,0 9.94057,0.24548 13.59371,2.66076 5.26066,3.47809 7.76458,8.73949 7.53794,15.83924 -0.0966,3.025 -3.00776,18.1 -6.46931,33.5 l -6.29373,28 -11.24628,0.28301 -11.24627,0.283 0.54193,-2.283 c 3.24279,-13.66091 12.51274,-56.54703 12.51274,-57.88844 0,-2.6355 -4.79619,-5.89457 -8.6747,-5.89457 -8.96531,0 -17.63682,8.78095 -21.232,21.5 -0.98888,3.49845 -10.0933,43.35439 -10.0933,44.1849 0,0.17331 -4.95,0.3151 -11,0.3151 -6.05,0 -10.99883,-0.3375 -10.9974,-0.75 0.001,-0.4125 2.70143,-13.02406 6,-28.0257 3.29857,-15.00163 5.9974,-28.40959 5.9974,-29.79545 0,-3.53053 -4.19104,-7.42885 -7.98666,-7.42885 -7.16345,0 -14.64868,5.42236 -18.38352,13.31717 -1.35946,2.87366 -4.85529,15.90289 -7.76851,28.95383 l -5.29677,23.729 -11.16506,0 -11.16505,0 z m 128.8819,0.5 c 1.05926,-4.8125 4.94705,-22.475 8.63954,-39.25 l 6.7136,-30.5 11.36326,-0.28388 c 8.9094,-0.22257 11.26648,-0.007 10.91528,1 -0.2464,0.70613 -4.23788,18.49523 -8.86998,39.53134 l -8.4221,38.24746 -11.13274,0.003 -11.13278,0.003 1.92592,-8.75 z M 443.84527,64.36795 c 0,-0.50846 0.94031,-5.00846 2.08959,-10 l 2.08958,-9.07553 10.91042,0 c 8.06954,0 10.90656,0.32547 10.89563,1.25 -0.0127,1.07343 -0.74139,4.50381 -3.50498,16.5 -0.49882,2.16526 -0.93189,2.25 -11.49929,2.25 -6.05587,0 -10.98095,-0.41464 -10.98095,-0.92447 z m 538.51107,-1.29253 c 0.31118,-1.25565 1.34598,-5.658 2.29968,-9.783 l 1.7339,-7.5 10.7277,-0.28383 c 12.48338,-0.33029 11.89858,-1.10432 8.90168,11.78383 l -1.744,7.5 -11.24238,0.283 -11.24232,0.28301 z"
       style="fill:#585858" />
    <path
       sodipodi:nodetypes="csssssscsssssssssscssccsssssssssssssscscscssssscssssssssssssccsssssssscssscssssssssssssscccsssscccssssssscccscscccssscssssssscscsssscccsssssscscccssssssssscsssssscscscssscccccsscscscccscsscscscsscssccccs"
       inkscape:connector-curvature="0"
       id="path4956"
       d="m 483.57974,156.20432 c -9.15901,-2.15784 -16.76092,-8.2037 -20.79613,-16.53932 -2.87395,-5.93679 -3.83395,-19.72919 -1.96687,-28.25816 1.55582,-7.10711 5.98774,-16.47639 10.17569,-21.51186 4.47564,-5.38136 13.94893,-11.27049 22.12428,-13.75368 9.54329,-2.89868 22.86296,-2.34328 30.73465,1.28157 8.94497,4.1191 14.45663,10.98626 16.44278,20.48658 l 0.65165,3.11709 -9.19326,0.71917 c -5.05629,0.39555 -9.76118,0.93711 -10.45531,1.20347 -0.77831,0.29867 -1.52256,-0.70182 -1.94172,-2.61021 -1.60061,-7.28757 -9.13117,-11.85405 -16.69972,-10.12661 -11.57673,2.64227 -19.22739,14.63301 -20.51534,32.15328 -0.72165,9.81673 1.03925,13.94202 7.23055,16.93918 3.80846,1.84364 4.86835,1.9602 8.65703,0.95202 5.68905,-1.51386 10.3685,-5.16453 12.8468,-10.0224 2.21528,-4.34229 2.63901,-4.44975 11.53679,-2.92578 3.26351,0.55896 7.39365,1.25388 9.17807,1.54427 l 3.24442,0.52797 -2.59605,5.12306 c -5.36493,10.58719 -16.15661,19.11169 -27.50744,21.72852 -5.26142,1.21297 -15.94321,1.19875 -21.15087,-0.0282 z m 132.49568,-0.46235 c -14.21291,-3.82646 -22.59185,-12.90026 -25.20146,-27.29136 -1.26131,-6.95572 -0.22818,-17.51106 2.45923,-25.12547 5.11597,-14.49545 17.19902,-24.95298 32.50763,-28.13443 7.41997,-1.54203 23.20073,-0.60708 29.42635,1.7434 6.16999,2.32948 14.77401,10.06579 17.53275,15.76459 7.43654,15.36183 3.39857,37.03306 -9.40058,50.45163 -6.34253,6.64948 -12.62133,10.40357 -21.08903,12.60913 -7.23922,1.88558 -19.19581,1.87761 -26.23489,-0.0175 z m 21.27843,-16.31458 c 8.08372,-3.67236 14.92509,-14.70563 16.29691,-26.2825 1.60365,-13.53328 -2.24485,-20.58348 -12.49827,-22.896 -14.37118,-3.24123 -27.218,10.52296 -28.04111,30.04348 -0.31387,7.44361 -0.073,8.9878 1.93774,12.42498 2.71927,4.64825 9.48679,8.58495 14.70343,8.55306 1.976,-0.0121 5.39658,-0.84144 7.6013,-1.84302 z m 61.85998,16.43169 c -7.53224,-1.71092 -11.30308,-3.60932 -16.50598,-8.30983 -3.52696,-3.18639 -9.59251,-12.86029 -8.65269,-13.80011 0.1894,-0.18939 5.04165,-1.09115 10.78279,-2.0039 8.18756,-1.30169 10.52791,-1.39109 10.85341,-0.4146 1.0063,3.0189 7.6281,8.99911 11.00237,9.93633 10.99253,3.05331 23.15154,-1.21434 23.15154,-8.12581 0,-3.70642 -1.95379,-4.87662 -16.50297,-9.88426 -21.95696,-7.55731 -27.00024,-11.92762 -26.99342,-23.39145 0.006,-10.77285 6.9145,-18.98215 19.55701,-23.24078 4.20897,-1.41779 8.49313,-1.8318 18.93938,-1.83027 11.96674,0.002 14.06787,0.26312 18.5,2.30123 7.51375,3.45518 12.82766,9.08565 14.88521,15.77195 0.59179,1.9231 0.0332,2.16617 -7.62331,3.31724 -4.54405,0.68314 -9.18963,1.46433 -10.32353,1.73597 -1.50005,0.35935 -2.37445,-0.19266 -3.21001,-2.02651 -1.89507,-4.15924 -8.63149,-6.97764 -16.72836,-6.99885 -7.8977,-0.0207 -12.09408,1.9315 -13.144,6.11471 -1.00793,4.01592 2.84802,6.77427 14.144,10.1179 20.41428,6.04265 26.31476,9.34286 29.58688,16.54829 5.72089,12.59778 -2.75414,27.81164 -18.45239,33.12462 -6.90308,2.33631 -25.09181,2.91489 -33.26593,1.05818 z m 83.63144,0.069 c -6.94568,-2.02535 -10.9428,-4.44359 -16.10504,-9.74346 -14.37937,-14.76275 -12.3022,-43.19921 4.37363,-59.87504 8.79036,-8.79036 19.78449,-12.54609 34.64618,-11.83554 10.13984,0.48479 16.33596,3.01363 22.2071,9.06343 5.83196,6.00944 8.20725,13.25739 8.27653,25.25499 0.0318,5.5 -0.25576,10.7875 -0.63894,11.75 -0.64035,1.60848 -2.96359,1.75 -28.72808,1.75 l -28.03138,0 0,4.35212 c 0,7.5088 6.14241,14.32078 13.84469,15.35387 5.70728,0.76551 12.16681,-1.86944 16.59279,-6.76847 l 3.56464,-3.94563 9.13981,1.47826 c 5.02689,0.81304 9.35275,1.69119 9.61301,1.95145 0.96103,0.96103 -4.00555,7.60676 -9.30319,12.44851 -7.24631,6.62271 -14.28965,9.2613 -25.95175,9.72209 -5.53171,0.21857 -10.73415,-0.15007 -13.5,-0.95658 z m 33.50889,-47.65001 c 0.34481,-0.55791 0.12836,-3.41598 -0.481,-6.35125 -1.11211,-5.35704 -3.8987,-9.03922 -8.71215,-11.51218 -5.36166,-2.75461 -15.00841,-0.32866 -20.00367,5.0305 -2.26909,2.43439 -6.25168,10.41041 -6.29011,12.59732 -0.028,1.59415 34.50561,1.82343 35.48693,0.23561 z m -500.35348,-2.23561 c 5.93539,-27.0875 11.28581,-51.6125 11.88983,-54.5 l 1.09821,-5.25 16.7815,0 16.7815,0 0.60769,9.25 c 0.33423,5.0875 1.15624,21.7375 1.82669,37 0.67046,15.2625 1.49258,27.75 1.82694,27.75 0.33437,0 8.52348,-16.5375 18.19804,-36.75 l 17.5901,-36.75 17.14788,-0.27372 17.14787,-0.27372 -0.51802,2.27372 c -0.28491,1.25054 -4.80044,24.77372 -10.03453,52.27372 -5.23408,27.5 -9.7458,51.0125 -10.02604,52.25 -0.48905,2.1596 -0.93496,2.25 -11.09888,2.25 -10.47963,0 -10.58359,-0.0233 -10.03337,-2.25 2.89992,-11.73546 18.7051,-85.09334 18.46936,-85.72332 -0.16969,-0.45348 -9.70333,19.15501 -21.18587,43.57441 l -20.87734,44.39891 -11.37266,0 -11.37266,0 -0.009,-4.25 c -0.0161,-7.57557 -3.98432,-85.07668 -4.37617,-85.46854 -0.20896,-0.20895 -4.3611,19.89224 -9.22699,44.66931 l -8.8471,45.04923 -10.5893,0 -10.5893,0 z m 108.0706,47.5 c 0.25169,-0.9625 4.19389,-18.7375 8.76045,-39.5 l 8.30282,-37.75 10.85618,0 c 6.27467,0 10.85619,0.40543 10.85619,0.96069 0,1.01357 -15.74922,73.28512 -16.62476,76.28931 -0.44599,1.53031 -1.89713,1.75 -11.55926,1.75 -10.03075,0 -11.00706,-0.16131 -10.59162,-1.75 z m 109.12743,0 c 0.26762,-0.9625 4.2058,-18.7375 8.75152,-39.5 l 8.26496,-37.75 10.31586,0 c 5.67373,0 10.31336,0.3375 10.31029,0.75 -0.003,0.4125 -0.40939,2.325 -0.90295,4.25 -2.58517,10.0829 -2.65954,9.98239 2.84093,3.83921 6.37129,-7.11575 13.48171,-10.83921 20.69884,-10.83921 2.88121,0 6.39474,0.43958 7.80786,0.97684 l 2.56929,0.97685 -4.25004,8.56951 -4.25005,8.56952 -3.73342,-0.63075 c -7.42216,-1.25397 -17.47112,4.20875 -22.5265,12.24563 -3.86429,6.14334 -6.44643,14.2475 -10.28896,32.2924 -1.69822,7.975 -3.31414,15.2875 -3.59093,16.25 -0.44003,1.53011 -1.88546,1.75 -11.50327,1.75 -9.99488,0 -10.95554,-0.1599 -10.51343,-1.75 z m 307.86926,-34 c 4.33802,-19.6625 8.21974,-37.325 8.62604,-39.25 l 0.73873,-3.5 10.60918,-0.28284 10.60919,-0.28284 -0.87824,3.78284 c -1.31404,5.65995 -1.24848,5.70635 3.14564,2.22614 6.4865,-5.1374 14.31936,-7.89555 22.42841,-7.8976 10.51881,-0.003 17.10965,3.74633 19.83616,11.28318 0.59138,1.63475 1.10889,1.44602 4.87545,-1.77802 7.00462,-5.99569 14.12695,-8.83144 23.47093,-9.34492 6.97753,-0.38344 8.85416,-0.12454 12.74302,1.75802 8.54095,4.13461 11.11123,11.11719 8.84764,24.03604 -0.72277,4.125 -3.67807,18.075 -6.56732,31 l -5.2532,23.5 -11.30435,0.28348 c -10.45582,0.2622 -11.26314,0.14961 -10.75523,-1.5 1.16955,-3.79852 12.6069,-56.63357 12.6069,-58.23782 0,-4.71037 -7.96626,-7.52978 -14.38262,-5.09029 -4.54191,1.72683 -10.27397,7.88803 -13.00939,13.98334 -2.43533,5.42665 -3.92156,11.21536 -10.60649,41.31129 l -2.16568,9.75 -10.91791,0 c -6.00485,0 -10.91781,-0.3375 -10.9177,-0.75 1.2e-4,-0.4125 2.69596,-12.9 5.99076,-27.75 3.2948,-14.85 5.9947,-28.42984 5.99979,-30.17742 0.007,-2.24844 -0.76111,-3.78338 -2.62562,-5.25 -7.8963,-6.21123 -21.77883,2.49607 -25.86289,16.22155 -0.85197,2.86323 -3.676,14.76637 -6.27564,26.45143 l -4.72661,21.24556 -11.08313,0.004 -11.08313,0.004 7.88731,-35.75 z m 122.38711,29.5 c 0.77562,-3.4375 4.70498,-21.1 8.73192,-39.25 l 7.32172,-33 11.2891,-0.28388 c 8.8649,-0.22291 11.18438,-0.008 10.80158,1 -0.268,0.70613 -4.25948,18.4961 -8.86988,39.53327 l -8.3826,38.24939 -11.15103,6.1e-4 -11.15102,6.1e-4 z m -519.59338,-84.5 c 0.0127,-0.64197 0.78046,-4.14894 3.48934,-15.93768 0.47397,-2.06266 1.13124,-2.20553 11.50133,-2.5 6.04924,-0.17178 10.99771,-0.009 10.99659,0.36215 -10e-4,0.37096 -0.94235,4.75846 -2.09163,9.75 l -2.08958,9.07553 -10.91042,0 c -6.00072,0 -10.90376,-0.3375 -10.89563,-0.75 z m 538.49629,-1.467 c 0.31113,-1.25565 1.33593,-5.60578 2.27733,-9.66695 l 1.7116,-7.38395 10.478,0.19527 c 5.76278,0.10739 10.67078,0.38812 10.90648,0.62383 0.2357,0.23571 -0.4357,4.37062 -1.492,9.18868 l -1.9204,8.76012 -11.26338,0.283 -11.26337,0.28301 z"
       style="fill:#060606" />
    <text
       xml:space="preserve"
       style="font-style:normal;font-weight:normal;font-size:16.56038857px;line-height:125%;font-family:sans-serif;letter-spacing:0px;word-spacing:0px;fill:#000000;fill-opacity:1;stroke:none;stroke-width:1px;stroke-linecap:butt;stroke-linejoin:miter;stroke-opacity:1"
       x="990.78192"
       y="155.29955"
       id="text4984"
       sodipodi:linespacing="125%"><tspan
         sodipodi:role="line"
         id="tspan4986"
         x="990.78192"
         y="155.29955">®</tspan></text>
  </g>
</svg>
